<mxfile host="app.diagrams.net" modified="2023-10-11T14:53:37.976Z" agent="Mozilla/5.0 (Windows NT 10.0; Win64; x64) AppleWebKit/537.36 (KHTML, like Gecko) Chrome/117.0.0.0 Safari/537.36" etag="RP8xaC6SnO7_cQHCV9nk" version="22.0.4" type="device">
  <diagram name="Pagina-1" id="L9EXSdyZsOcfwvz5sOls">
    <mxGraphModel dx="2514" dy="-280" grid="1" gridSize="10" guides="1" tooltips="1" connect="1" arrows="1" fold="1" page="1" pageScale="1" pageWidth="827" pageHeight="1169" math="0" shadow="0">
      <root>
        <mxCell id="0" />
        <mxCell id="1" parent="0" />
        <mxCell id="5YIIH4ySnnkuUXp5CgPr-30" style="edgeStyle=orthogonalEdgeStyle;rounded=0;orthogonalLoop=1;jettySize=auto;html=1;exitX=0.5;exitY=1;exitDx=0;exitDy=0;entryX=0.5;entryY=0;entryDx=0;entryDy=0;" parent="1" source="5YIIH4ySnnkuUXp5CgPr-27" target="5YIIH4ySnnkuUXp5CgPr-29" edge="1">
          <mxGeometry relative="1" as="geometry" />
        </mxCell>
        <mxCell id="bxtvWOW6OA86Dgw1eZwp-14" style="edgeStyle=orthogonalEdgeStyle;rounded=0;orthogonalLoop=1;jettySize=auto;html=1;entryX=1;entryY=0.5;entryDx=0;entryDy=0;" parent="1" source="5YIIH4ySnnkuUXp5CgPr-27" target="bxtvWOW6OA86Dgw1eZwp-13" edge="1">
          <mxGeometry relative="1" as="geometry">
            <Array as="points">
              <mxPoint x="724.5" y="1616.5" />
              <mxPoint x="724.5" y="2062.5" />
            </Array>
          </mxGeometry>
        </mxCell>
        <mxCell id="5YIIH4ySnnkuUXp5CgPr-27" value="Project" style="whiteSpace=wrap;html=1;align=center;" parent="1" vertex="1">
          <mxGeometry x="529.5" y="1596.5" width="100" height="40" as="geometry" />
        </mxCell>
        <mxCell id="5YIIH4ySnnkuUXp5CgPr-37" style="edgeStyle=orthogonalEdgeStyle;rounded=0;orthogonalLoop=1;jettySize=auto;html=1;entryX=1;entryY=0.5;entryDx=0;entryDy=0;exitX=0;exitY=0.5;exitDx=0;exitDy=0;" parent="1" source="5YIIH4ySnnkuUXp5CgPr-28" target="MzKUODoRHFMMzJcSqZbJ-19" edge="1">
          <mxGeometry relative="1" as="geometry">
            <mxPoint x="327.58" y="1802.5" as="targetPoint" />
            <Array as="points">
              <mxPoint x="315.58" y="1845" />
              <mxPoint x="315.58" y="1563" />
              <mxPoint x="685.58" y="1563" />
              <mxPoint x="685.58" y="1388" />
            </Array>
          </mxGeometry>
        </mxCell>
        <mxCell id="5YIIH4ySnnkuUXp5CgPr-55" style="edgeStyle=orthogonalEdgeStyle;rounded=0;orthogonalLoop=1;jettySize=auto;html=1;entryX=0.5;entryY=1;entryDx=0;entryDy=0;" parent="1" source="5YIIH4ySnnkuUXp5CgPr-28" edge="1">
          <mxGeometry relative="1" as="geometry">
            <mxPoint x="416.5" y="1754.5" as="targetPoint" />
          </mxGeometry>
        </mxCell>
        <mxCell id="LN7ajbvHa4iX7Mi3LsKq-29" style="edgeStyle=orthogonalEdgeStyle;rounded=0;orthogonalLoop=1;jettySize=auto;html=1;entryX=0.5;entryY=1;entryDx=0;entryDy=0;" parent="1" source="5YIIH4ySnnkuUXp5CgPr-28" target="LN7ajbvHa4iX7Mi3LsKq-28" edge="1">
          <mxGeometry relative="1" as="geometry" />
        </mxCell>
        <mxCell id="5YIIH4ySnnkuUXp5CgPr-28" value="Case" style="whiteSpace=wrap;html=1;align=center;" parent="1" vertex="1">
          <mxGeometry x="366.5" y="1824.5" width="100" height="40" as="geometry" />
        </mxCell>
        <mxCell id="5YIIH4ySnnkuUXp5CgPr-29" value="Contenimento" style="shape=rhombus;perimeter=rhombusPerimeter;whiteSpace=wrap;html=1;align=center;" parent="1" vertex="1">
          <mxGeometry x="356.5" y="1692.5" width="120" height="60" as="geometry" />
        </mxCell>
        <mxCell id="5YIIH4ySnnkuUXp5CgPr-32" value="0,n" style="text;html=1;align=center;verticalAlign=middle;resizable=0;points=[];autosize=1;strokeColor=none;fillColor=none;" parent="1" vertex="1">
          <mxGeometry x="579.5" y="1636.5" width="40" height="30" as="geometry" />
        </mxCell>
        <mxCell id="5YIIH4ySnnkuUXp5CgPr-33" value="1,1" style="text;html=1;align=center;verticalAlign=middle;resizable=0;points=[];autosize=1;strokeColor=none;fillColor=none;" parent="1" vertex="1">
          <mxGeometry x="416.5" y="1794.5" width="40" height="30" as="geometry" />
        </mxCell>
        <mxCell id="bxtvWOW6OA86Dgw1eZwp-3" style="edgeStyle=orthogonalEdgeStyle;rounded=0;orthogonalLoop=1;jettySize=auto;html=1;entryX=0.5;entryY=0;entryDx=0;entryDy=0;exitX=0.5;exitY=1;exitDx=0;exitDy=0;" parent="1" source="MzKUODoRHFMMzJcSqZbJ-19" target="bxtvWOW6OA86Dgw1eZwp-2" edge="1">
          <mxGeometry relative="1" as="geometry">
            <mxPoint x="67.58" y="1822.5" as="sourcePoint" />
          </mxGeometry>
        </mxCell>
        <mxCell id="5YIIH4ySnnkuUXp5CgPr-39" value="0,n" style="text;html=1;align=center;verticalAlign=middle;resizable=0;points=[];autosize=1;strokeColor=none;fillColor=none;" parent="1" vertex="1">
          <mxGeometry x="326.5" y="1812.5" width="40" height="30" as="geometry" />
        </mxCell>
        <mxCell id="5YIIH4ySnnkuUXp5CgPr-63" style="edgeStyle=orthogonalEdgeStyle;rounded=0;orthogonalLoop=1;jettySize=auto;html=1;entryX=1;entryY=0.5;entryDx=0;entryDy=0;" parent="1" source="5YIIH4ySnnkuUXp5CgPr-41" target="5YIIH4ySnnkuUXp5CgPr-54" edge="1">
          <mxGeometry relative="1" as="geometry" />
        </mxCell>
        <mxCell id="bxtvWOW6OA86Dgw1eZwp-4" style="edgeStyle=orthogonalEdgeStyle;rounded=0;orthogonalLoop=1;jettySize=auto;html=1;entryX=0.5;entryY=1;entryDx=0;entryDy=0;" parent="1" source="5YIIH4ySnnkuUXp5CgPr-41" target="bxtvWOW6OA86Dgw1eZwp-2" edge="1">
          <mxGeometry relative="1" as="geometry" />
        </mxCell>
        <mxCell id="bxtvWOW6OA86Dgw1eZwp-15" style="edgeStyle=orthogonalEdgeStyle;rounded=0;orthogonalLoop=1;jettySize=auto;html=1;entryX=0;entryY=0.5;entryDx=0;entryDy=0;" parent="1" source="5YIIH4ySnnkuUXp5CgPr-41" target="bxtvWOW6OA86Dgw1eZwp-13" edge="1">
          <mxGeometry relative="1" as="geometry">
            <Array as="points">
              <mxPoint x="285.58" y="1871" />
              <mxPoint x="285.58" y="2063" />
            </Array>
          </mxGeometry>
        </mxCell>
        <mxCell id="5YIIH4ySnnkuUXp5CgPr-41" value="Analysis" style="whiteSpace=wrap;html=1;align=center;" parent="1" vertex="1">
          <mxGeometry x="-44.5" y="1851.5" width="100" height="40" as="geometry" />
        </mxCell>
        <mxCell id="5YIIH4ySnnkuUXp5CgPr-62" style="edgeStyle=orthogonalEdgeStyle;rounded=0;orthogonalLoop=1;jettySize=auto;html=1;entryX=0;entryY=0.5;entryDx=0;entryDy=0;" parent="1" source="5YIIH4ySnnkuUXp5CgPr-51" target="5YIIH4ySnnkuUXp5CgPr-54" edge="1">
          <mxGeometry relative="1" as="geometry" />
        </mxCell>
        <mxCell id="5YIIH4ySnnkuUXp5CgPr-51" value="Gene" style="whiteSpace=wrap;html=1;align=center;" parent="1" vertex="1">
          <mxGeometry x="-444.5" y="1811.5" width="100" height="40" as="geometry" />
        </mxCell>
        <mxCell id="5YIIH4ySnnkuUXp5CgPr-67" style="edgeStyle=orthogonalEdgeStyle;rounded=0;orthogonalLoop=1;jettySize=auto;html=1;entryX=0;entryY=0.5;entryDx=0;entryDy=0;" parent="1" source="5YIIH4ySnnkuUXp5CgPr-52" target="5YIIH4ySnnkuUXp5CgPr-66" edge="1">
          <mxGeometry relative="1" as="geometry" />
        </mxCell>
        <mxCell id="5YIIH4ySnnkuUXp5CgPr-52" value="Protein" style="whiteSpace=wrap;html=1;align=center;" parent="1" vertex="1">
          <mxGeometry x="-444.5" y="1891.5" width="100" height="40" as="geometry" />
        </mxCell>
        <mxCell id="5YIIH4ySnnkuUXp5CgPr-54" value="Gene_Expression" style="shape=rhombus;perimeter=rhombusPerimeter;whiteSpace=wrap;html=1;align=center;" parent="1" vertex="1">
          <mxGeometry x="-254.5" y="1801.5" width="120" height="60" as="geometry" />
        </mxCell>
        <mxCell id="5YIIH4ySnnkuUXp5CgPr-64" value="0,n" style="text;html=1;align=center;verticalAlign=middle;resizable=0;points=[];autosize=1;strokeColor=none;fillColor=none;" parent="1" vertex="1">
          <mxGeometry x="-83.5" y="1847.5" width="40" height="30" as="geometry" />
        </mxCell>
        <mxCell id="5YIIH4ySnnkuUXp5CgPr-65" value="0,n" style="text;html=1;align=center;verticalAlign=middle;resizable=0;points=[];autosize=1;strokeColor=none;fillColor=none;" parent="1" vertex="1">
          <mxGeometry x="-344.5" y="1807.5" width="40" height="30" as="geometry" />
        </mxCell>
        <mxCell id="5YIIH4ySnnkuUXp5CgPr-66" value="Protein_Expression" style="shape=rhombus;perimeter=rhombusPerimeter;whiteSpace=wrap;html=1;align=center;" parent="1" vertex="1">
          <mxGeometry x="-254.5" y="1881.5" width="120" height="60" as="geometry" />
        </mxCell>
        <mxCell id="5YIIH4ySnnkuUXp5CgPr-68" style="edgeStyle=orthogonalEdgeStyle;rounded=0;orthogonalLoop=1;jettySize=auto;html=1;entryX=1;entryY=0.5;entryDx=0;entryDy=0;exitX=0;exitY=0.5;exitDx=0;exitDy=0;" parent="1" source="5YIIH4ySnnkuUXp5CgPr-41" target="5YIIH4ySnnkuUXp5CgPr-66" edge="1">
          <mxGeometry relative="1" as="geometry">
            <mxPoint x="-43.5" y="1907.5" as="sourcePoint" />
            <mxPoint x="-124.49999999999999" y="1841.5" as="targetPoint" />
          </mxGeometry>
        </mxCell>
        <mxCell id="5YIIH4ySnnkuUXp5CgPr-71" value="0,n" style="text;html=1;align=center;verticalAlign=middle;resizable=0;points=[];autosize=1;strokeColor=none;fillColor=none;" parent="1" vertex="1">
          <mxGeometry x="-82.5" y="1871.5" width="40" height="30" as="geometry" />
        </mxCell>
        <mxCell id="bxtvWOW6OA86Dgw1eZwp-2" value="EntitÃ  dell&#39;analisi" style="shape=rhombus;perimeter=rhombusPerimeter;whiteSpace=wrap;html=1;align=center;" parent="1" vertex="1">
          <mxGeometry x="-53.5" y="1704.5" width="120" height="60" as="geometry" />
        </mxCell>
        <mxCell id="bxtvWOW6OA86Dgw1eZwp-5" value="0,n" style="text;html=1;align=center;verticalAlign=middle;resizable=0;points=[];autosize=1;strokeColor=none;fillColor=none;" parent="1" vertex="1">
          <mxGeometry x="6.579999999999998" y="1513" width="40" height="30" as="geometry" />
        </mxCell>
        <mxCell id="bxtvWOW6OA86Dgw1eZwp-6" value="1,n" style="text;html=1;align=center;verticalAlign=middle;resizable=0;points=[];autosize=1;strokeColor=none;fillColor=none;" parent="1" vertex="1">
          <mxGeometry x="0.5" y="1821.5" width="40" height="30" as="geometry" />
        </mxCell>
        <mxCell id="bxtvWOW6OA86Dgw1eZwp-13" value="Presenza" style="shape=rhombus;perimeter=rhombusPerimeter;whiteSpace=wrap;html=1;align=center;" parent="1" vertex="1">
          <mxGeometry x="356.5" y="2032.5" width="120" height="60" as="geometry" />
        </mxCell>
        <mxCell id="bxtvWOW6OA86Dgw1eZwp-16" value="0,n" style="text;html=1;align=center;verticalAlign=middle;resizable=0;points=[];autosize=1;strokeColor=none;fillColor=none;" parent="1" vertex="1">
          <mxGeometry x="624.5" y="1582.5" width="40" height="30" as="geometry" />
        </mxCell>
        <mxCell id="bxtvWOW6OA86Dgw1eZwp-17" value="1,1" style="text;html=1;align=center;verticalAlign=middle;resizable=0;points=[];autosize=1;strokeColor=none;fillColor=none;" parent="1" vertex="1">
          <mxGeometry x="60.5" y="1879.5" width="40" height="30" as="geometry" />
        </mxCell>
        <mxCell id="bxtvWOW6OA86Dgw1eZwp-18" value="0,n" style="text;html=1;align=center;verticalAlign=middle;resizable=0;points=[];autosize=1;strokeColor=none;fillColor=none;" parent="1" vertex="1">
          <mxGeometry x="-349.5" y="1909.5" width="40" height="30" as="geometry" />
        </mxCell>
        <mxCell id="LN7ajbvHa4iX7Mi3LsKq-6" style="edgeStyle=orthogonalEdgeStyle;rounded=0;orthogonalLoop=1;jettySize=auto;html=1;entryX=0.5;entryY=1;entryDx=0;entryDy=0;" parent="1" source="LN7ajbvHa4iX7Mi3LsKq-1" target="LN7ajbvHa4iX7Mi3LsKq-4" edge="1">
          <mxGeometry relative="1" as="geometry" />
        </mxCell>
        <mxCell id="LN7ajbvHa4iX7Mi3LsKq-1" value="Sample type" style="whiteSpace=wrap;html=1;align=center;" parent="1" vertex="1">
          <mxGeometry x="-574.42" y="1719.5" width="100" height="40" as="geometry" />
        </mxCell>
        <mxCell id="LN7ajbvHa4iX7Mi3LsKq-11" style="edgeStyle=orthogonalEdgeStyle;rounded=0;orthogonalLoop=1;jettySize=auto;html=1;entryX=0.5;entryY=1;entryDx=0;entryDy=0;" parent="1" source="LN7ajbvHa4iX7Mi3LsKq-2" target="LN7ajbvHa4iX7Mi3LsKq-9" edge="1">
          <mxGeometry relative="1" as="geometry" />
        </mxCell>
        <mxCell id="LN7ajbvHa4iX7Mi3LsKq-2" value="Tumor" style="whiteSpace=wrap;html=1;align=center;" parent="1" vertex="1">
          <mxGeometry x="-392.42" y="1719.5" width="100" height="40" as="geometry" />
        </mxCell>
        <mxCell id="LN7ajbvHa4iX7Mi3LsKq-4" value="Occorrenza" style="shape=rhombus;perimeter=rhombusPerimeter;whiteSpace=wrap;html=1;align=center;" parent="1" vertex="1">
          <mxGeometry x="-584.42" y="1601.5" width="120" height="60" as="geometry" />
        </mxCell>
        <mxCell id="LN7ajbvHa4iX7Mi3LsKq-8" value="0,n" style="text;html=1;align=center;verticalAlign=middle;resizable=0;points=[];autosize=1;strokeColor=none;fillColor=none;" parent="1" vertex="1">
          <mxGeometry x="-524.42" y="1689.5" width="40" height="30" as="geometry" />
        </mxCell>
        <mxCell id="LN7ajbvHa4iX7Mi3LsKq-9" value="Riferimento" style="shape=rhombus;perimeter=rhombusPerimeter;whiteSpace=wrap;html=1;align=center;" parent="1" vertex="1">
          <mxGeometry x="-402.42" y="1601.5" width="120" height="60" as="geometry" />
        </mxCell>
        <mxCell id="LN7ajbvHa4iX7Mi3LsKq-13" value="0,n" style="text;html=1;align=center;verticalAlign=middle;resizable=0;points=[];autosize=1;strokeColor=none;fillColor=none;" parent="1" vertex="1">
          <mxGeometry x="-352.42" y="1689.5" width="40" height="30" as="geometry" />
        </mxCell>
        <mxCell id="LN7ajbvHa4iX7Mi3LsKq-30" style="edgeStyle=orthogonalEdgeStyle;rounded=0;orthogonalLoop=1;jettySize=auto;html=1;entryX=0.5;entryY=0;entryDx=0;entryDy=0;" parent="1" source="LN7ajbvHa4iX7Mi3LsKq-26" target="LN7ajbvHa4iX7Mi3LsKq-28" edge="1">
          <mxGeometry relative="1" as="geometry" />
        </mxCell>
        <mxCell id="LN7ajbvHa4iX7Mi3LsKq-26" value="Disease" style="whiteSpace=wrap;html=1;align=center;" parent="1" vertex="1">
          <mxGeometry x="554.5" y="1692.5" width="100" height="40" as="geometry" />
        </mxCell>
        <mxCell id="LN7ajbvHa4iX7Mi3LsKq-34" style="edgeStyle=orthogonalEdgeStyle;rounded=0;orthogonalLoop=1;jettySize=auto;html=1;entryX=0.5;entryY=1;entryDx=0;entryDy=0;" parent="1" source="LN7ajbvHa4iX7Mi3LsKq-27" target="LN7ajbvHa4iX7Mi3LsKq-33" edge="1">
          <mxGeometry relative="1" as="geometry" />
        </mxCell>
        <mxCell id="LN7ajbvHa4iX7Mi3LsKq-27" value="Primary Site" style="whiteSpace=wrap;html=1;align=center;" parent="1" vertex="1">
          <mxGeometry x="554.5" y="1972.5" width="100" height="40" as="geometry" />
        </mxCell>
        <mxCell id="LN7ajbvHa4iX7Mi3LsKq-28" value="Possedimento" style="shape=rhombus;perimeter=rhombusPerimeter;whiteSpace=wrap;html=1;align=center;" parent="1" vertex="1">
          <mxGeometry x="544.5000000000001" y="1764.5" width="120" height="60" as="geometry" />
        </mxCell>
        <mxCell id="LN7ajbvHa4iX7Mi3LsKq-31" value="0,n" style="text;html=1;align=center;verticalAlign=middle;resizable=0;points=[];autosize=1;strokeColor=none;fillColor=none;" parent="1" vertex="1">
          <mxGeometry x="614.5" y="1730.5" width="40" height="30" as="geometry" />
        </mxCell>
        <mxCell id="LN7ajbvHa4iX7Mi3LsKq-32" value="1,1" style="text;html=1;align=center;verticalAlign=middle;resizable=0;points=[];autosize=1;strokeColor=none;fillColor=none;" parent="1" vertex="1">
          <mxGeometry x="466.5" y="1840.5" width="40" height="30" as="geometry" />
        </mxCell>
        <mxCell id="LN7ajbvHa4iX7Mi3LsKq-33" value="Allocazione" style="shape=rhombus;perimeter=rhombusPerimeter;whiteSpace=wrap;html=1;align=center;" parent="1" vertex="1">
          <mxGeometry x="544.5000000000001" y="1872.5" width="120" height="60" as="geometry" />
        </mxCell>
        <mxCell id="LN7ajbvHa4iX7Mi3LsKq-35" value="0,n" style="text;html=1;align=center;verticalAlign=middle;resizable=0;points=[];autosize=1;strokeColor=none;fillColor=none;" parent="1" vertex="1">
          <mxGeometry x="604.5" y="1940.5" width="40" height="30" as="geometry" />
        </mxCell>
        <mxCell id="LN7ajbvHa4iX7Mi3LsKq-36" style="edgeStyle=orthogonalEdgeStyle;rounded=0;orthogonalLoop=1;jettySize=auto;html=1;entryX=0.5;entryY=0;entryDx=0;entryDy=0;exitX=1;exitY=0.5;exitDx=0;exitDy=0;" parent="1" source="5YIIH4ySnnkuUXp5CgPr-28" target="LN7ajbvHa4iX7Mi3LsKq-33" edge="1">
          <mxGeometry relative="1" as="geometry">
            <mxPoint x="476.5" y="1854.5" as="sourcePoint" />
            <mxPoint x="614.5" y="1834.5" as="targetPoint" />
          </mxGeometry>
        </mxCell>
        <mxCell id="LN7ajbvHa4iX7Mi3LsKq-37" value="1,1" style="text;html=1;align=center;verticalAlign=middle;resizable=0;points=[];autosize=1;strokeColor=none;fillColor=none;" parent="1" vertex="1">
          <mxGeometry x="466.5" y="1820.5" width="40" height="30" as="geometry" />
        </mxCell>
        <mxCell id="LN7ajbvHa4iX7Mi3LsKq-44" style="edgeStyle=orthogonalEdgeStyle;rounded=0;orthogonalLoop=1;jettySize=auto;html=1;exitX=0.5;exitY=1;exitDx=0;exitDy=0;entryX=0.5;entryY=0;entryDx=0;entryDy=0;" parent="1" source="LN7ajbvHa4iX7Mi3LsKq-46" target="LN7ajbvHa4iX7Mi3LsKq-52" edge="1">
          <mxGeometry relative="1" as="geometry" />
        </mxCell>
        <mxCell id="G5Dd-7IOfGYtY5oB0d5u-3" style="edgeStyle=orthogonalEdgeStyle;rounded=0;orthogonalLoop=1;jettySize=auto;html=1;entryX=1;entryY=0.5;entryDx=0;entryDy=0;" parent="1" source="LN7ajbvHa4iX7Mi3LsKq-46" target="LN7ajbvHa4iX7Mi3LsKq-93" edge="1">
          <mxGeometry relative="1" as="geometry">
            <Array as="points">
              <mxPoint x="765.11" y="2662" />
              <mxPoint x="765.11" y="3198" />
            </Array>
          </mxGeometry>
        </mxCell>
        <mxCell id="LN7ajbvHa4iX7Mi3LsKq-46" value="Project" style="whiteSpace=wrap;html=1;align=center;" parent="1" vertex="1">
          <mxGeometry x="580.11" y="2642.5" width="100" height="40" as="geometry" />
        </mxCell>
        <mxCell id="LN7ajbvHa4iX7Mi3LsKq-47" style="edgeStyle=orthogonalEdgeStyle;rounded=0;orthogonalLoop=1;jettySize=auto;html=1;entryX=1;entryY=0.5;entryDx=0;entryDy=0;" parent="1" source="LN7ajbvHa4iX7Mi3LsKq-51" target="LN7ajbvHa4iX7Mi3LsKq-58" edge="1">
          <mxGeometry relative="1" as="geometry" />
        </mxCell>
        <mxCell id="LN7ajbvHa4iX7Mi3LsKq-48" style="edgeStyle=orthogonalEdgeStyle;rounded=0;orthogonalLoop=1;jettySize=auto;html=1;entryX=0.5;entryY=1;entryDx=0;entryDy=0;" parent="1" source="LN7ajbvHa4iX7Mi3LsKq-51" edge="1">
          <mxGeometry relative="1" as="geometry">
            <mxPoint x="467.11" y="2800.5" as="targetPoint" />
          </mxGeometry>
        </mxCell>
        <mxCell id="LN7ajbvHa4iX7Mi3LsKq-50" style="edgeStyle=orthogonalEdgeStyle;rounded=0;orthogonalLoop=1;jettySize=auto;html=1;entryX=0.5;entryY=1;entryDx=0;entryDy=0;" parent="1" source="LN7ajbvHa4iX7Mi3LsKq-51" target="LN7ajbvHa4iX7Mi3LsKq-132" edge="1">
          <mxGeometry relative="1" as="geometry" />
        </mxCell>
        <mxCell id="LN7ajbvHa4iX7Mi3LsKq-51" value="Case" style="whiteSpace=wrap;html=1;align=center;" parent="1" vertex="1">
          <mxGeometry x="417.11" y="2870.5" width="100" height="40" as="geometry" />
        </mxCell>
        <mxCell id="LN7ajbvHa4iX7Mi3LsKq-52" value="Contenimento" style="shape=rhombus;perimeter=rhombusPerimeter;whiteSpace=wrap;html=1;align=center;" parent="1" vertex="1">
          <mxGeometry x="407.11" y="2738.5" width="120" height="60" as="geometry" />
        </mxCell>
        <mxCell id="LN7ajbvHa4iX7Mi3LsKq-53" value="0,n" style="text;html=1;align=center;verticalAlign=middle;resizable=0;points=[];autosize=1;strokeColor=none;fillColor=none;" parent="1" vertex="1">
          <mxGeometry x="630.11" y="2682.5" width="40" height="30" as="geometry" />
        </mxCell>
        <mxCell id="LN7ajbvHa4iX7Mi3LsKq-54" value="1,1" style="text;html=1;align=center;verticalAlign=middle;resizable=0;points=[];autosize=1;strokeColor=none;fillColor=none;" parent="1" vertex="1">
          <mxGeometry x="467.11" y="2840.5" width="40" height="30" as="geometry" />
        </mxCell>
        <mxCell id="LN7ajbvHa4iX7Mi3LsKq-55" style="edgeStyle=orthogonalEdgeStyle;rounded=0;orthogonalLoop=1;jettySize=auto;html=1;entryX=0;entryY=0.5;entryDx=0;entryDy=0;" parent="1" source="LN7ajbvHa4iX7Mi3LsKq-57" target="LN7ajbvHa4iX7Mi3LsKq-58" edge="1">
          <mxGeometry relative="1" as="geometry" />
        </mxCell>
        <mxCell id="LN7ajbvHa4iX7Mi3LsKq-150" style="edgeStyle=orthogonalEdgeStyle;rounded=0;orthogonalLoop=1;jettySize=auto;html=1;entryX=0.5;entryY=1;entryDx=0;entryDy=0;" parent="1" source="LN7ajbvHa4iX7Mi3LsKq-57" target="LN7ajbvHa4iX7Mi3LsKq-147" edge="1">
          <mxGeometry relative="1" as="geometry">
            <Array as="points">
              <mxPoint x="57.11" y="2766" />
              <mxPoint x="-364.89" y="2766" />
            </Array>
          </mxGeometry>
        </mxCell>
        <mxCell id="LN7ajbvHa4iX7Mi3LsKq-151" style="edgeStyle=orthogonalEdgeStyle;rounded=0;orthogonalLoop=1;jettySize=auto;html=1;entryX=0.5;entryY=1;entryDx=0;entryDy=0;" parent="1" source="LN7ajbvHa4iX7Mi3LsKq-57" target="LN7ajbvHa4iX7Mi3LsKq-146" edge="1">
          <mxGeometry relative="1" as="geometry">
            <Array as="points">
              <mxPoint x="57.11" y="2766" />
              <mxPoint x="-97.89" y="2766" />
            </Array>
          </mxGeometry>
        </mxCell>
        <mxCell id="LN7ajbvHa4iX7Mi3LsKq-152" style="edgeStyle=orthogonalEdgeStyle;rounded=0;orthogonalLoop=1;jettySize=auto;html=1;entryX=0.5;entryY=1;entryDx=0;entryDy=0;" parent="1" source="LN7ajbvHa4iX7Mi3LsKq-57" target="LN7ajbvHa4iX7Mi3LsKq-144" edge="1">
          <mxGeometry relative="1" as="geometry" />
        </mxCell>
        <mxCell id="LN7ajbvHa4iX7Mi3LsKq-153" style="edgeStyle=orthogonalEdgeStyle;rounded=0;orthogonalLoop=1;jettySize=auto;html=1;entryX=0.5;entryY=1;entryDx=0;entryDy=0;" parent="1" source="LN7ajbvHa4iX7Mi3LsKq-57" target="LN7ajbvHa4iX7Mi3LsKq-145" edge="1">
          <mxGeometry relative="1" as="geometry">
            <Array as="points">
              <mxPoint x="57.11" y="2766" />
              <mxPoint x="286.11" y="2766" />
            </Array>
          </mxGeometry>
        </mxCell>
        <mxCell id="LN7ajbvHa4iX7Mi3LsKq-168" style="edgeStyle=orthogonalEdgeStyle;rounded=0;orthogonalLoop=1;jettySize=auto;html=1;entryX=0.5;entryY=0;entryDx=0;entryDy=0;" parent="1" source="LN7ajbvHa4iX7Mi3LsKq-57" target="LN7ajbvHa4iX7Mi3LsKq-161" edge="1">
          <mxGeometry relative="1" as="geometry" />
        </mxCell>
        <mxCell id="3CzU7pItrZiahojDzi_F-20" style="edgeStyle=orthogonalEdgeStyle;rounded=0;orthogonalLoop=1;jettySize=auto;html=1;entryX=0.5;entryY=1;entryDx=0;entryDy=0;" parent="1" source="LN7ajbvHa4iX7Mi3LsKq-57" target="3CzU7pItrZiahojDzi_F-18" edge="1">
          <mxGeometry relative="1" as="geometry">
            <Array as="points">
              <mxPoint x="57.11" y="2766" />
              <mxPoint x="-231.89" y="2766" />
            </Array>
          </mxGeometry>
        </mxCell>
        <mxCell id="LN7ajbvHa4iX7Mi3LsKq-57" value="Biospecimen" style="whiteSpace=wrap;html=1;align=center;" parent="1" vertex="1">
          <mxGeometry x="7.11" y="2798.5" width="100" height="40" as="geometry" />
        </mxCell>
        <mxCell id="LN7ajbvHa4iX7Mi3LsKq-58" value="Scaturire" style="shape=rhombus;perimeter=rhombusPerimeter;whiteSpace=wrap;html=1;align=center;" parent="1" vertex="1">
          <mxGeometry x="197.11" y="2788.5" width="120" height="60" as="geometry" />
        </mxCell>
        <mxCell id="LN7ajbvHa4iX7Mi3LsKq-59" value="0,n" style="text;html=1;align=center;verticalAlign=middle;resizable=0;points=[];autosize=1;strokeColor=none;fillColor=none;" parent="1" vertex="1">
          <mxGeometry x="377.11" y="2858.5" width="40" height="30" as="geometry" />
        </mxCell>
        <mxCell id="LN7ajbvHa4iX7Mi3LsKq-60" value="1,1" style="text;html=1;align=center;verticalAlign=middle;resizable=0;points=[];autosize=1;strokeColor=none;fillColor=none;" parent="1" vertex="1">
          <mxGeometry x="107.11" y="2793.5" width="40" height="30" as="geometry" />
        </mxCell>
        <mxCell id="LN7ajbvHa4iX7Mi3LsKq-63" style="edgeStyle=orthogonalEdgeStyle;rounded=0;orthogonalLoop=1;jettySize=auto;html=1;entryX=0;entryY=0.5;entryDx=0;entryDy=0;" parent="1" source="LN7ajbvHa4iX7Mi3LsKq-64" target="LN7ajbvHa4iX7Mi3LsKq-93" edge="1">
          <mxGeometry relative="1" as="geometry" />
        </mxCell>
        <mxCell id="LN7ajbvHa4iX7Mi3LsKq-166" style="edgeStyle=orthogonalEdgeStyle;rounded=0;orthogonalLoop=1;jettySize=auto;html=1;entryX=0.5;entryY=1;entryDx=0;entryDy=0;" parent="1" source="LN7ajbvHa4iX7Mi3LsKq-64" target="LN7ajbvHa4iX7Mi3LsKq-160" edge="1">
          <mxGeometry relative="1" as="geometry" />
        </mxCell>
        <mxCell id="LN7ajbvHa4iX7Mi3LsKq-172" style="edgeStyle=orthogonalEdgeStyle;rounded=0;orthogonalLoop=1;jettySize=auto;html=1;entryX=1;entryY=0.5;entryDx=0;entryDy=0;" parent="1" source="LN7ajbvHa4iX7Mi3LsKq-64" target="LN7ajbvHa4iX7Mi3LsKq-170" edge="1">
          <mxGeometry relative="1" as="geometry" />
        </mxCell>
        <mxCell id="LN7ajbvHa4iX7Mi3LsKq-173" style="edgeStyle=orthogonalEdgeStyle;rounded=0;orthogonalLoop=1;jettySize=auto;html=1;entryX=1;entryY=0.5;entryDx=0;entryDy=0;" parent="1" source="LN7ajbvHa4iX7Mi3LsKq-64" target="LN7ajbvHa4iX7Mi3LsKq-171" edge="1">
          <mxGeometry relative="1" as="geometry" />
        </mxCell>
        <mxCell id="LN7ajbvHa4iX7Mi3LsKq-64" value="Analysis" style="whiteSpace=wrap;html=1;align=center;" parent="1" vertex="1">
          <mxGeometry x="6.11" y="3177.5" width="100" height="40" as="geometry" />
        </mxCell>
        <mxCell id="LN7ajbvHa4iX7Mi3LsKq-65" style="edgeStyle=orthogonalEdgeStyle;rounded=0;orthogonalLoop=1;jettySize=auto;html=1;entryX=0;entryY=0.5;entryDx=0;entryDy=0;" parent="1" source="LN7ajbvHa4iX7Mi3LsKq-66" target="LN7ajbvHa4iX7Mi3LsKq-174" edge="1">
          <mxGeometry relative="1" as="geometry">
            <mxPoint x="-554.89" y="3068.5" as="targetPoint" />
          </mxGeometry>
        </mxCell>
        <mxCell id="LN7ajbvHa4iX7Mi3LsKq-66" value="Gene" style="whiteSpace=wrap;html=1;align=center;" parent="1" vertex="1">
          <mxGeometry x="-744.89" y="3048.5" width="100" height="40" as="geometry" />
        </mxCell>
        <mxCell id="LN7ajbvHa4iX7Mi3LsKq-67" style="edgeStyle=orthogonalEdgeStyle;rounded=0;orthogonalLoop=1;jettySize=auto;html=1;entryX=0;entryY=0.5;entryDx=0;entryDy=0;" parent="1" source="LN7ajbvHa4iX7Mi3LsKq-68" target="LN7ajbvHa4iX7Mi3LsKq-175" edge="1">
          <mxGeometry relative="1" as="geometry">
            <mxPoint x="-554.89" y="3148.5" as="targetPoint" />
          </mxGeometry>
        </mxCell>
        <mxCell id="LN7ajbvHa4iX7Mi3LsKq-68" value="Protein" style="whiteSpace=wrap;html=1;align=center;" parent="1" vertex="1">
          <mxGeometry x="-744.89" y="3128.5" width="100" height="40" as="geometry" />
        </mxCell>
        <mxCell id="LN7ajbvHa4iX7Mi3LsKq-70" value="0,n" style="text;html=1;align=center;verticalAlign=middle;resizable=0;points=[];autosize=1;strokeColor=none;fillColor=none;" parent="1" vertex="1">
          <mxGeometry x="-30.89" y="3173.5" width="40" height="30" as="geometry" />
        </mxCell>
        <mxCell id="LN7ajbvHa4iX7Mi3LsKq-71" value="0,n" style="text;html=1;align=center;verticalAlign=middle;resizable=0;points=[];autosize=1;strokeColor=none;fillColor=none;" parent="1" vertex="1">
          <mxGeometry x="-644.89" y="3044.5" width="40" height="30" as="geometry" />
        </mxCell>
        <mxCell id="LN7ajbvHa4iX7Mi3LsKq-74" value="0,n" style="text;html=1;align=center;verticalAlign=middle;resizable=0;points=[];autosize=1;strokeColor=none;fillColor=none;" parent="1" vertex="1">
          <mxGeometry x="-29.89" y="3197.5" width="40" height="30" as="geometry" />
        </mxCell>
        <mxCell id="LN7ajbvHa4iX7Mi3LsKq-76" value="0,n" style="text;html=1;align=center;verticalAlign=middle;resizable=0;points=[];autosize=1;strokeColor=none;fillColor=none;" parent="1" vertex="1">
          <mxGeometry x="52.11" y="2836.5" width="40" height="30" as="geometry" />
        </mxCell>
        <mxCell id="LN7ajbvHa4iX7Mi3LsKq-77" value="1,n" style="text;html=1;align=center;verticalAlign=middle;resizable=0;points=[];autosize=1;strokeColor=none;fillColor=none;" parent="1" vertex="1">
          <mxGeometry x="51.11" y="3154.5" width="40" height="30" as="geometry" />
        </mxCell>
        <mxCell id="LN7ajbvHa4iX7Mi3LsKq-79" style="edgeStyle=orthogonalEdgeStyle;rounded=0;orthogonalLoop=1;jettySize=auto;html=1;entryX=0;entryY=0.5;entryDx=0;entryDy=0;" parent="1" source="LN7ajbvHa4iX7Mi3LsKq-82" target="LN7ajbvHa4iX7Mi3LsKq-97" edge="1">
          <mxGeometry relative="1" as="geometry" />
        </mxCell>
        <mxCell id="LN7ajbvHa4iX7Mi3LsKq-80" style="edgeStyle=orthogonalEdgeStyle;rounded=0;orthogonalLoop=1;jettySize=auto;html=1;entryX=0.5;entryY=0;entryDx=0;entryDy=0;" parent="1" source="LN7ajbvHa4iX7Mi3LsKq-82" target="LN7ajbvHa4iX7Mi3LsKq-114" edge="1">
          <mxGeometry relative="1" as="geometry" />
        </mxCell>
        <mxCell id="LN7ajbvHa4iX7Mi3LsKq-81" style="edgeStyle=orthogonalEdgeStyle;rounded=0;orthogonalLoop=1;jettySize=auto;html=1;entryX=0.5;entryY=0;entryDx=0;entryDy=0;" parent="1" source="LN7ajbvHa4iX7Mi3LsKq-82" target="LN7ajbvHa4iX7Mi3LsKq-117" edge="1">
          <mxGeometry relative="1" as="geometry" />
        </mxCell>
        <mxCell id="LN7ajbvHa4iX7Mi3LsKq-82" value="Sample" style="whiteSpace=wrap;html=1;align=center;" parent="1" vertex="1">
          <mxGeometry x="-554.89" y="2531" width="100" height="40" as="geometry" />
        </mxCell>
        <mxCell id="LN7ajbvHa4iX7Mi3LsKq-83" style="edgeStyle=orthogonalEdgeStyle;rounded=0;orthogonalLoop=1;jettySize=auto;html=1;entryX=1;entryY=0.5;entryDx=0;entryDy=0;exitX=0.5;exitY=0;exitDx=0;exitDy=0;" parent="1" source="LN7ajbvHa4iX7Mi3LsKq-85" target="LN7ajbvHa4iX7Mi3LsKq-97" edge="1">
          <mxGeometry relative="1" as="geometry" />
        </mxCell>
        <mxCell id="LN7ajbvHa4iX7Mi3LsKq-84" style="edgeStyle=orthogonalEdgeStyle;rounded=0;orthogonalLoop=1;jettySize=auto;html=1;entryX=0;entryY=0.5;entryDx=0;entryDy=0;exitX=0.5;exitY=0;exitDx=0;exitDy=0;" parent="1" source="LN7ajbvHa4iX7Mi3LsKq-85" target="LN7ajbvHa4iX7Mi3LsKq-98" edge="1">
          <mxGeometry relative="1" as="geometry" />
        </mxCell>
        <mxCell id="LN7ajbvHa4iX7Mi3LsKq-85" value="Portion" style="whiteSpace=wrap;html=1;align=center;" parent="1" vertex="1">
          <mxGeometry x="-253.89000000000001" y="2531" width="100" height="40" as="geometry" />
        </mxCell>
        <mxCell id="LN7ajbvHa4iX7Mi3LsKq-86" style="edgeStyle=orthogonalEdgeStyle;rounded=0;orthogonalLoop=1;jettySize=auto;html=1;entryX=1;entryY=0.5;entryDx=0;entryDy=0;exitX=0.5;exitY=0;exitDx=0;exitDy=0;" parent="1" source="LN7ajbvHa4iX7Mi3LsKq-89" target="LN7ajbvHa4iX7Mi3LsKq-98" edge="1">
          <mxGeometry relative="1" as="geometry" />
        </mxCell>
        <mxCell id="LN7ajbvHa4iX7Mi3LsKq-87" style="edgeStyle=orthogonalEdgeStyle;rounded=0;orthogonalLoop=1;jettySize=auto;html=1;entryX=0;entryY=0.5;entryDx=0;entryDy=0;exitX=0.5;exitY=0;exitDx=0;exitDy=0;" parent="1" source="LN7ajbvHa4iX7Mi3LsKq-89" target="LN7ajbvHa4iX7Mi3LsKq-99" edge="1">
          <mxGeometry relative="1" as="geometry" />
        </mxCell>
        <mxCell id="LN7ajbvHa4iX7Mi3LsKq-89" value="Analyte" style="whiteSpace=wrap;html=1;align=center;" parent="1" vertex="1">
          <mxGeometry x="52.11" y="2531" width="100" height="40" as="geometry" />
        </mxCell>
        <mxCell id="LN7ajbvHa4iX7Mi3LsKq-90" style="edgeStyle=orthogonalEdgeStyle;rounded=0;orthogonalLoop=1;jettySize=auto;html=1;entryX=1;entryY=0.5;entryDx=0;entryDy=0;exitX=0.5;exitY=0;exitDx=0;exitDy=0;" parent="1" source="LN7ajbvHa4iX7Mi3LsKq-92" target="LN7ajbvHa4iX7Mi3LsKq-99" edge="1">
          <mxGeometry relative="1" as="geometry" />
        </mxCell>
        <mxCell id="LN7ajbvHa4iX7Mi3LsKq-92" value="Aliquote" style="whiteSpace=wrap;html=1;align=center;" parent="1" vertex="1">
          <mxGeometry x="380.11" y="2531" width="100" height="40" as="geometry" />
        </mxCell>
        <mxCell id="LN7ajbvHa4iX7Mi3LsKq-93" value="Presenza" style="shape=rhombus;perimeter=rhombusPerimeter;whiteSpace=wrap;html=1;align=center;" parent="1" vertex="1">
          <mxGeometry x="405.11" y="3167.5" width="120" height="60" as="geometry" />
        </mxCell>
        <mxCell id="LN7ajbvHa4iX7Mi3LsKq-94" value="0,n" style="text;html=1;align=center;verticalAlign=middle;resizable=0;points=[];autosize=1;strokeColor=none;fillColor=none;" parent="1" vertex="1">
          <mxGeometry x="675.11" y="2628.5" width="40" height="30" as="geometry" />
        </mxCell>
        <mxCell id="LN7ajbvHa4iX7Mi3LsKq-95" value="1,1" style="text;html=1;align=center;verticalAlign=middle;resizable=0;points=[];autosize=1;strokeColor=none;fillColor=none;" parent="1" vertex="1">
          <mxGeometry x="113.11" y="3205.5" width="40" height="30" as="geometry" />
        </mxCell>
        <mxCell id="LN7ajbvHa4iX7Mi3LsKq-96" value="0,n" style="text;html=1;align=center;verticalAlign=middle;resizable=0;points=[];autosize=1;strokeColor=none;fillColor=none;" parent="1" vertex="1">
          <mxGeometry x="-649.89" y="3146.5" width="40" height="30" as="geometry" />
        </mxCell>
        <mxCell id="LN7ajbvHa4iX7Mi3LsKq-97" value="Separazione_1" style="shape=rhombus;perimeter=rhombusPerimeter;whiteSpace=wrap;html=1;align=center;" parent="1" vertex="1">
          <mxGeometry x="-454.89" y="2399" width="120" height="60" as="geometry" />
        </mxCell>
        <mxCell id="LN7ajbvHa4iX7Mi3LsKq-98" value="Separazione_2" style="shape=rhombus;perimeter=rhombusPerimeter;whiteSpace=wrap;html=1;align=center;" parent="1" vertex="1">
          <mxGeometry x="-123.88999999999999" y="2399" width="120" height="60" as="geometry" />
        </mxCell>
        <mxCell id="LN7ajbvHa4iX7Mi3LsKq-99" value="Separazione_3" style="shape=rhombus;perimeter=rhombusPerimeter;whiteSpace=wrap;html=1;align=center;" parent="1" vertex="1">
          <mxGeometry x="209.11" y="2399" width="120" height="60" as="geometry" />
        </mxCell>
        <mxCell id="LN7ajbvHa4iX7Mi3LsKq-100" style="edgeStyle=orthogonalEdgeStyle;rounded=0;orthogonalLoop=1;jettySize=auto;html=1;entryX=0.5;entryY=0;entryDx=0;entryDy=0;exitX=1;exitY=0.5;exitDx=0;exitDy=0;" parent="1" source="LN7ajbvHa4iX7Mi3LsKq-82" target="LN7ajbvHa4iX7Mi3LsKq-147" edge="1">
          <mxGeometry relative="1" as="geometry">
            <Array as="points">
              <mxPoint x="-394.89" y="2551" />
              <mxPoint x="-394.89" y="2656" />
              <mxPoint x="-364.89" y="2656" />
            </Array>
            <mxPoint x="57.11" y="2610.5" as="targetPoint" />
          </mxGeometry>
        </mxCell>
        <mxCell id="LN7ajbvHa4iX7Mi3LsKq-101" style="edgeStyle=orthogonalEdgeStyle;rounded=0;orthogonalLoop=1;jettySize=auto;html=1;entryX=0.5;entryY=0;entryDx=0;entryDy=0;" parent="1" source="LN7ajbvHa4iX7Mi3LsKq-85" target="LN7ajbvHa4iX7Mi3LsKq-146" edge="1">
          <mxGeometry relative="1" as="geometry">
            <Array as="points">
              <mxPoint x="-203.89" y="2610" />
              <mxPoint x="-97.89" y="2610" />
            </Array>
            <mxPoint x="57.11" y="2610.5" as="targetPoint" />
          </mxGeometry>
        </mxCell>
        <mxCell id="LN7ajbvHa4iX7Mi3LsKq-102" style="edgeStyle=orthogonalEdgeStyle;rounded=0;orthogonalLoop=1;jettySize=auto;html=1;entryX=0.5;entryY=0;entryDx=0;entryDy=0;" parent="1" source="LN7ajbvHa4iX7Mi3LsKq-89" target="LN7ajbvHa4iX7Mi3LsKq-144" edge="1">
          <mxGeometry relative="1" as="geometry">
            <Array as="points">
              <mxPoint x="102.11" y="2626" />
              <mxPoint x="55.11" y="2626" />
            </Array>
            <mxPoint x="57.11" y="2610.5" as="targetPoint" />
          </mxGeometry>
        </mxCell>
        <mxCell id="LN7ajbvHa4iX7Mi3LsKq-103" style="edgeStyle=orthogonalEdgeStyle;rounded=0;orthogonalLoop=1;jettySize=auto;html=1;entryX=0.5;entryY=0;entryDx=0;entryDy=0;exitX=0.5;exitY=1;exitDx=0;exitDy=0;" parent="1" source="LN7ajbvHa4iX7Mi3LsKq-92" target="LN7ajbvHa4iX7Mi3LsKq-145" edge="1">
          <mxGeometry relative="1" as="geometry">
            <Array as="points">
              <mxPoint x="430.11" y="2610" />
              <mxPoint x="286.11" y="2610" />
            </Array>
            <mxPoint x="57.11" y="2610.5" as="targetPoint" />
          </mxGeometry>
        </mxCell>
        <mxCell id="LN7ajbvHa4iX7Mi3LsKq-104" value="0,n" style="text;html=1;align=center;verticalAlign=middle;resizable=0;points=[];autosize=1;strokeColor=none;fillColor=none;" parent="1" vertex="1">
          <mxGeometry x="-504.88999999999993" y="2498.5" width="40" height="30" as="geometry" />
        </mxCell>
        <mxCell id="LN7ajbvHa4iX7Mi3LsKq-105" value="1,1" style="text;html=1;align=center;verticalAlign=middle;resizable=0;points=[];autosize=1;strokeColor=none;fillColor=none;" parent="1" vertex="1">
          <mxGeometry x="-243.89000000000001" y="2498.5" width="40" height="30" as="geometry" />
        </mxCell>
        <mxCell id="LN7ajbvHa4iX7Mi3LsKq-106" value="0,n" style="text;html=1;align=center;verticalAlign=middle;resizable=0;points=[];autosize=1;strokeColor=none;fillColor=none;" parent="1" vertex="1">
          <mxGeometry x="-203.89" y="2498.5" width="40" height="30" as="geometry" />
        </mxCell>
        <mxCell id="LN7ajbvHa4iX7Mi3LsKq-108" value="0,n" style="text;html=1;align=center;verticalAlign=middle;resizable=0;points=[];autosize=1;strokeColor=none;fillColor=none;" parent="1" vertex="1">
          <mxGeometry x="95.11" y="2506" width="40" height="30" as="geometry" />
        </mxCell>
        <mxCell id="LN7ajbvHa4iX7Mi3LsKq-109" value="1,1" style="text;html=1;align=center;verticalAlign=middle;resizable=0;points=[];autosize=1;strokeColor=none;fillColor=none;" parent="1" vertex="1">
          <mxGeometry x="395.11" y="2506" width="40" height="30" as="geometry" />
        </mxCell>
        <mxCell id="LN7ajbvHa4iX7Mi3LsKq-110" style="edgeStyle=orthogonalEdgeStyle;rounded=0;orthogonalLoop=1;jettySize=auto;html=1;entryX=0.5;entryY=1;entryDx=0;entryDy=0;" parent="1" source="LN7ajbvHa4iX7Mi3LsKq-111" target="LN7ajbvHa4iX7Mi3LsKq-114" edge="1">
          <mxGeometry relative="1" as="geometry" />
        </mxCell>
        <mxCell id="LN7ajbvHa4iX7Mi3LsKq-111" value="Sample type" style="whiteSpace=wrap;html=1;align=center;" parent="1" vertex="1">
          <mxGeometry x="-744.89" y="2728.5" width="100" height="40" as="geometry" />
        </mxCell>
        <mxCell id="LN7ajbvHa4iX7Mi3LsKq-112" style="edgeStyle=orthogonalEdgeStyle;rounded=0;orthogonalLoop=1;jettySize=auto;html=1;entryX=0.5;entryY=1;entryDx=0;entryDy=0;" parent="1" source="LN7ajbvHa4iX7Mi3LsKq-113" target="LN7ajbvHa4iX7Mi3LsKq-117" edge="1">
          <mxGeometry relative="1" as="geometry" />
        </mxCell>
        <mxCell id="LN7ajbvHa4iX7Mi3LsKq-113" value="Tumor" style="whiteSpace=wrap;html=1;align=center;" parent="1" vertex="1">
          <mxGeometry x="-554.89" y="2728.5" width="100" height="40" as="geometry" />
        </mxCell>
        <mxCell id="LN7ajbvHa4iX7Mi3LsKq-114" value="Occorrenza" style="shape=rhombus;perimeter=rhombusPerimeter;whiteSpace=wrap;html=1;align=center;" parent="1" vertex="1">
          <mxGeometry x="-754.89" y="2610.5" width="120" height="60" as="geometry" />
        </mxCell>
        <mxCell id="LN7ajbvHa4iX7Mi3LsKq-115" value="1,1" style="text;html=1;align=center;verticalAlign=middle;resizable=0;points=[];autosize=1;strokeColor=none;fillColor=none;" parent="1" vertex="1">
          <mxGeometry x="-591.89" y="2555.5" width="40" height="30" as="geometry" />
        </mxCell>
        <mxCell id="LN7ajbvHa4iX7Mi3LsKq-116" value="0,n" style="text;html=1;align=center;verticalAlign=middle;resizable=0;points=[];autosize=1;strokeColor=none;fillColor=none;" parent="1" vertex="1">
          <mxGeometry x="-694.89" y="2698.5" width="40" height="30" as="geometry" />
        </mxCell>
        <mxCell id="LN7ajbvHa4iX7Mi3LsKq-117" value="Riferimento" style="shape=rhombus;perimeter=rhombusPerimeter;whiteSpace=wrap;html=1;align=center;" parent="1" vertex="1">
          <mxGeometry x="-564.89" y="2610.5" width="120" height="60" as="geometry" />
        </mxCell>
        <mxCell id="LN7ajbvHa4iX7Mi3LsKq-118" value="1,1" style="text;html=1;align=center;verticalAlign=middle;resizable=0;points=[];autosize=1;strokeColor=none;fillColor=none;" parent="1" vertex="1">
          <mxGeometry x="-514.89" y="2568.5" width="40" height="30" as="geometry" />
        </mxCell>
        <mxCell id="LN7ajbvHa4iX7Mi3LsKq-119" value="0,n" style="text;html=1;align=center;verticalAlign=middle;resizable=0;points=[];autosize=1;strokeColor=none;fillColor=none;" parent="1" vertex="1">
          <mxGeometry x="-514.89" y="2698.5" width="40" height="30" as="geometry" />
        </mxCell>
        <mxCell id="LN7ajbvHa4iX7Mi3LsKq-128" style="edgeStyle=orthogonalEdgeStyle;rounded=0;orthogonalLoop=1;jettySize=auto;html=1;entryX=0.5;entryY=0;entryDx=0;entryDy=0;" parent="1" source="LN7ajbvHa4iX7Mi3LsKq-129" target="LN7ajbvHa4iX7Mi3LsKq-132" edge="1">
          <mxGeometry relative="1" as="geometry" />
        </mxCell>
        <mxCell id="LN7ajbvHa4iX7Mi3LsKq-129" value="Disease" style="whiteSpace=wrap;html=1;align=center;" parent="1" vertex="1">
          <mxGeometry x="605.11" y="2738.5" width="100" height="40" as="geometry" />
        </mxCell>
        <mxCell id="LN7ajbvHa4iX7Mi3LsKq-130" style="edgeStyle=orthogonalEdgeStyle;rounded=0;orthogonalLoop=1;jettySize=auto;html=1;entryX=0.5;entryY=1;entryDx=0;entryDy=0;" parent="1" source="LN7ajbvHa4iX7Mi3LsKq-131" target="LN7ajbvHa4iX7Mi3LsKq-135" edge="1">
          <mxGeometry relative="1" as="geometry" />
        </mxCell>
        <mxCell id="LN7ajbvHa4iX7Mi3LsKq-131" value="Primary Site" style="whiteSpace=wrap;html=1;align=center;" parent="1" vertex="1">
          <mxGeometry x="605.11" y="3018.5" width="100" height="40" as="geometry" />
        </mxCell>
        <mxCell id="LN7ajbvHa4iX7Mi3LsKq-132" value="Possedimento" style="shape=rhombus;perimeter=rhombusPerimeter;whiteSpace=wrap;html=1;align=center;" parent="1" vertex="1">
          <mxGeometry x="595.11" y="2810.5" width="120" height="60" as="geometry" />
        </mxCell>
        <mxCell id="LN7ajbvHa4iX7Mi3LsKq-133" value="0,n" style="text;html=1;align=center;verticalAlign=middle;resizable=0;points=[];autosize=1;strokeColor=none;fillColor=none;" parent="1" vertex="1">
          <mxGeometry x="665.11" y="2776.5" width="40" height="30" as="geometry" />
        </mxCell>
        <mxCell id="LN7ajbvHa4iX7Mi3LsKq-134" value="1,1" style="text;html=1;align=center;verticalAlign=middle;resizable=0;points=[];autosize=1;strokeColor=none;fillColor=none;" parent="1" vertex="1">
          <mxGeometry x="517.1099999999999" y="2886.5" width="40" height="30" as="geometry" />
        </mxCell>
        <mxCell id="LN7ajbvHa4iX7Mi3LsKq-135" value="Allocazione" style="shape=rhombus;perimeter=rhombusPerimeter;whiteSpace=wrap;html=1;align=center;" parent="1" vertex="1">
          <mxGeometry x="595.11" y="2918.5" width="120" height="60" as="geometry" />
        </mxCell>
        <mxCell id="LN7ajbvHa4iX7Mi3LsKq-136" value="0,n" style="text;html=1;align=center;verticalAlign=middle;resizable=0;points=[];autosize=1;strokeColor=none;fillColor=none;" parent="1" vertex="1">
          <mxGeometry x="655.11" y="2986.5" width="40" height="30" as="geometry" />
        </mxCell>
        <mxCell id="LN7ajbvHa4iX7Mi3LsKq-137" style="edgeStyle=orthogonalEdgeStyle;rounded=0;orthogonalLoop=1;jettySize=auto;html=1;entryX=0.5;entryY=0;entryDx=0;entryDy=0;exitX=1;exitY=0.5;exitDx=0;exitDy=0;" parent="1" source="LN7ajbvHa4iX7Mi3LsKq-51" target="LN7ajbvHa4iX7Mi3LsKq-135" edge="1">
          <mxGeometry relative="1" as="geometry">
            <mxPoint x="527.1099999999999" y="2900.5" as="sourcePoint" />
            <mxPoint x="665.11" y="2880.5" as="targetPoint" />
          </mxGeometry>
        </mxCell>
        <mxCell id="LN7ajbvHa4iX7Mi3LsKq-138" value="1,1" style="text;html=1;align=center;verticalAlign=middle;resizable=0;points=[];autosize=1;strokeColor=none;fillColor=none;" parent="1" vertex="1">
          <mxGeometry x="517.1099999999999" y="2866.5" width="40" height="30" as="geometry" />
        </mxCell>
        <mxCell id="LN7ajbvHa4iX7Mi3LsKq-142" value="1,1" style="text;html=1;align=center;verticalAlign=middle;resizable=0;points=[];autosize=1;strokeColor=none;fillColor=none;" parent="1" vertex="1">
          <mxGeometry x="65.11" y="2506" width="40" height="30" as="geometry" />
        </mxCell>
        <mxCell id="LN7ajbvHa4iX7Mi3LsKq-144" value="Campione Biologico" style="shape=rhombus;perimeter=rhombusPerimeter;whiteSpace=wrap;html=1;align=center;" parent="1" vertex="1">
          <mxGeometry x="-3.8900000000000015" y="2683.5" width="120" height="60" as="geometry" />
        </mxCell>
        <mxCell id="LN7ajbvHa4iX7Mi3LsKq-145" value="Campione Biologico" style="shape=rhombus;perimeter=rhombusPerimeter;whiteSpace=wrap;html=1;align=center;" parent="1" vertex="1">
          <mxGeometry x="226.11" y="2682.5" width="120" height="60" as="geometry" />
        </mxCell>
        <mxCell id="LN7ajbvHa4iX7Mi3LsKq-146" value="Campione Biologico" style="shape=rhombus;perimeter=rhombusPerimeter;whiteSpace=wrap;html=1;align=center;" parent="1" vertex="1">
          <mxGeometry x="-157.89" y="2686" width="120" height="60" as="geometry" />
        </mxCell>
        <mxCell id="LN7ajbvHa4iX7Mi3LsKq-147" value="Campione Biologico" style="shape=rhombus;perimeter=rhombusPerimeter;whiteSpace=wrap;html=1;align=center;" parent="1" vertex="1">
          <mxGeometry x="-424.89" y="2683.5" width="120" height="60" as="geometry" />
        </mxCell>
        <mxCell id="LN7ajbvHa4iX7Mi3LsKq-154" value="0,1" style="text;html=1;align=center;verticalAlign=middle;resizable=0;points=[];autosize=1;strokeColor=none;fillColor=none;" parent="1" vertex="1">
          <mxGeometry x="25.110000000000003" y="2774" width="40" height="30" as="geometry" />
        </mxCell>
        <mxCell id="LN7ajbvHa4iX7Mi3LsKq-155" value="1,1" style="text;html=1;align=center;verticalAlign=middle;resizable=0;points=[];autosize=1;strokeColor=none;fillColor=none;" parent="1" vertex="1">
          <mxGeometry x="-464.89" y="2554" width="40" height="30" as="geometry" />
        </mxCell>
        <mxCell id="LN7ajbvHa4iX7Mi3LsKq-156" value="1,1" style="text;html=1;align=center;verticalAlign=middle;resizable=0;points=[];autosize=1;strokeColor=none;fillColor=none;" parent="1" vertex="1">
          <mxGeometry x="-199.39" y="2568.5" width="40" height="30" as="geometry" />
        </mxCell>
        <mxCell id="LN7ajbvHa4iX7Mi3LsKq-157" value="1,1" style="text;html=1;align=center;verticalAlign=middle;resizable=0;points=[];autosize=1;strokeColor=none;fillColor=none;" parent="1" vertex="1">
          <mxGeometry x="65.11" y="2584" width="40" height="30" as="geometry" />
        </mxCell>
        <mxCell id="LN7ajbvHa4iX7Mi3LsKq-158" value="1,1" style="text;html=1;align=center;verticalAlign=middle;resizable=0;points=[];autosize=1;strokeColor=none;fillColor=none;" parent="1" vertex="1">
          <mxGeometry x="385.11" y="2584" width="40" height="30" as="geometry" />
        </mxCell>
        <mxCell id="LN7ajbvHa4iX7Mi3LsKq-162" style="edgeStyle=orthogonalEdgeStyle;rounded=0;orthogonalLoop=1;jettySize=auto;html=1;entryX=0.5;entryY=1;entryDx=0;entryDy=0;" parent="1" source="LN7ajbvHa4iX7Mi3LsKq-159" target="LN7ajbvHa4iX7Mi3LsKq-161" edge="1">
          <mxGeometry relative="1" as="geometry" />
        </mxCell>
        <mxCell id="LN7ajbvHa4iX7Mi3LsKq-163" style="edgeStyle=orthogonalEdgeStyle;rounded=0;orthogonalLoop=1;jettySize=auto;html=1;entryX=0.5;entryY=0;entryDx=0;entryDy=0;" parent="1" source="LN7ajbvHa4iX7Mi3LsKq-159" target="LN7ajbvHa4iX7Mi3LsKq-160" edge="1">
          <mxGeometry relative="1" as="geometry" />
        </mxCell>
        <mxCell id="LN7ajbvHa4iX7Mi3LsKq-159" value="EntitÃ  del File" style="whiteSpace=wrap;html=1;align=center;" parent="1" vertex="1">
          <mxGeometry x="6.11" y="2992.5" width="100" height="40" as="geometry" />
        </mxCell>
        <mxCell id="LN7ajbvHa4iX7Mi3LsKq-160" value="Relationship" style="shape=rhombus;perimeter=rhombusPerimeter;whiteSpace=wrap;html=1;align=center;" parent="1" vertex="1">
          <mxGeometry x="-3.8900000000000015" y="3076.5" width="120" height="60" as="geometry" />
        </mxCell>
        <mxCell id="LN7ajbvHa4iX7Mi3LsKq-161" value="Relationship" style="shape=rhombus;perimeter=rhombusPerimeter;whiteSpace=wrap;html=1;align=center;" parent="1" vertex="1">
          <mxGeometry x="-2.8900000000000015" y="2895.5" width="120" height="60" as="geometry" />
        </mxCell>
        <mxCell id="LN7ajbvHa4iX7Mi3LsKq-179" style="edgeStyle=orthogonalEdgeStyle;rounded=0;orthogonalLoop=1;jettySize=auto;html=1;entryX=1;entryY=0.5;entryDx=0;entryDy=0;" parent="1" source="LN7ajbvHa4iX7Mi3LsKq-164" target="LN7ajbvHa4iX7Mi3LsKq-174" edge="1">
          <mxGeometry relative="1" as="geometry" />
        </mxCell>
        <mxCell id="LN7ajbvHa4iX7Mi3LsKq-181" style="edgeStyle=orthogonalEdgeStyle;rounded=0;orthogonalLoop=1;jettySize=auto;html=1;entryX=0;entryY=0.5;entryDx=0;entryDy=0;" parent="1" source="LN7ajbvHa4iX7Mi3LsKq-164" target="LN7ajbvHa4iX7Mi3LsKq-170" edge="1">
          <mxGeometry relative="1" as="geometry" />
        </mxCell>
        <mxCell id="LN7ajbvHa4iX7Mi3LsKq-164" value="Gene Expression File" style="whiteSpace=wrap;html=1;align=center;" parent="1" vertex="1">
          <mxGeometry x="-392.89" y="3048.5" width="100" height="40" as="geometry" />
        </mxCell>
        <mxCell id="LN7ajbvHa4iX7Mi3LsKq-180" style="edgeStyle=orthogonalEdgeStyle;rounded=0;orthogonalLoop=1;jettySize=auto;html=1;entryX=1;entryY=0.5;entryDx=0;entryDy=0;" parent="1" source="LN7ajbvHa4iX7Mi3LsKq-165" target="LN7ajbvHa4iX7Mi3LsKq-175" edge="1">
          <mxGeometry relative="1" as="geometry" />
        </mxCell>
        <mxCell id="LN7ajbvHa4iX7Mi3LsKq-182" style="edgeStyle=orthogonalEdgeStyle;rounded=0;orthogonalLoop=1;jettySize=auto;html=1;entryX=0;entryY=0.5;entryDx=0;entryDy=0;" parent="1" source="LN7ajbvHa4iX7Mi3LsKq-165" target="LN7ajbvHa4iX7Mi3LsKq-171" edge="1">
          <mxGeometry relative="1" as="geometry" />
        </mxCell>
        <mxCell id="LN7ajbvHa4iX7Mi3LsKq-165" value="Protein Expression File" style="whiteSpace=wrap;html=1;align=center;" parent="1" vertex="1">
          <mxGeometry x="-392.89" y="3128.5" width="100" height="40" as="geometry" />
        </mxCell>
        <mxCell id="LN7ajbvHa4iX7Mi3LsKq-167" value="1,1" style="text;html=1;align=center;verticalAlign=middle;resizable=0;points=[];autosize=1;strokeColor=none;fillColor=none;" parent="1" vertex="1">
          <mxGeometry x="45.11" y="3032" width="40" height="30" as="geometry" />
        </mxCell>
        <mxCell id="LN7ajbvHa4iX7Mi3LsKq-169" value="1,1" style="text;html=1;align=center;verticalAlign=middle;resizable=0;points=[];autosize=1;strokeColor=none;fillColor=none;" parent="1" vertex="1">
          <mxGeometry x="54.11" y="2971" width="40" height="30" as="geometry" />
        </mxCell>
        <mxCell id="LN7ajbvHa4iX7Mi3LsKq-170" value="Insieme" style="shape=rhombus;perimeter=rhombusPerimeter;whiteSpace=wrap;html=1;align=center;" parent="1" vertex="1">
          <mxGeometry x="-204.89" y="3038.5" width="120" height="60" as="geometry" />
        </mxCell>
        <mxCell id="LN7ajbvHa4iX7Mi3LsKq-171" value="Insieme" style="shape=rhombus;perimeter=rhombusPerimeter;whiteSpace=wrap;html=1;align=center;" parent="1" vertex="1">
          <mxGeometry x="-204.89" y="3168.5" width="120" height="60" as="geometry" />
        </mxCell>
        <mxCell id="LN7ajbvHa4iX7Mi3LsKq-174" value="Partecipazione" style="shape=rhombus;perimeter=rhombusPerimeter;whiteSpace=wrap;html=1;align=center;" parent="1" vertex="1">
          <mxGeometry x="-577.89" y="3038.5" width="120" height="60" as="geometry" />
        </mxCell>
        <mxCell id="LN7ajbvHa4iX7Mi3LsKq-175" value="Partecipazione" style="shape=rhombus;perimeter=rhombusPerimeter;whiteSpace=wrap;html=1;align=center;" parent="1" vertex="1">
          <mxGeometry x="-577.89" y="3118.5" width="120" height="60" as="geometry" />
        </mxCell>
        <mxCell id="LN7ajbvHa4iX7Mi3LsKq-183" value="1,1" style="text;html=1;align=center;verticalAlign=middle;resizable=0;points=[];autosize=1;strokeColor=none;fillColor=none;" parent="1" vertex="1">
          <mxGeometry x="-424.89" y="3038.5" width="40" height="30" as="geometry" />
        </mxCell>
        <mxCell id="LN7ajbvHa4iX7Mi3LsKq-184" value="1,1" style="text;html=1;align=center;verticalAlign=middle;resizable=0;points=[];autosize=1;strokeColor=none;fillColor=none;" parent="1" vertex="1">
          <mxGeometry x="-297.89" y="3038.5" width="40" height="30" as="geometry" />
        </mxCell>
        <mxCell id="LN7ajbvHa4iX7Mi3LsKq-185" value="1,1" style="text;html=1;align=center;verticalAlign=middle;resizable=0;points=[];autosize=1;strokeColor=none;fillColor=none;" parent="1" vertex="1">
          <mxGeometry x="-424.89" y="3154" width="40" height="30" as="geometry" />
        </mxCell>
        <mxCell id="LN7ajbvHa4iX7Mi3LsKq-186" value="1,1" style="text;html=1;align=center;verticalAlign=middle;resizable=0;points=[];autosize=1;strokeColor=none;fillColor=none;" parent="1" vertex="1">
          <mxGeometry x="-297.89" y="3154.5" width="40" height="30" as="geometry" />
        </mxCell>
        <mxCell id="LN7ajbvHa4iX7Mi3LsKq-187" value="Protein" style="shape=table;startSize=30;container=1;collapsible=1;childLayout=tableLayout;fixedRows=1;rowLines=0;fontStyle=1;align=center;resizeLast=1;html=1;" parent="1" vertex="1">
          <mxGeometry x="1970" y="1917.5" width="180" height="60" as="geometry" />
        </mxCell>
        <mxCell id="LN7ajbvHa4iX7Mi3LsKq-188" value="" style="shape=tableRow;horizontal=0;startSize=0;swimlaneHead=0;swimlaneBody=0;fillColor=none;collapsible=0;dropTarget=0;points=[[0,0.5],[1,0.5]];portConstraint=eastwest;top=0;left=0;right=0;bottom=1;" parent="LN7ajbvHa4iX7Mi3LsKq-187" vertex="1">
          <mxGeometry y="30" width="180" height="30" as="geometry" />
        </mxCell>
        <mxCell id="LN7ajbvHa4iX7Mi3LsKq-189" value="PK" style="shape=partialRectangle;connectable=0;fillColor=none;top=0;left=0;bottom=0;right=0;fontStyle=1;overflow=hidden;whiteSpace=wrap;html=1;" parent="LN7ajbvHa4iX7Mi3LsKq-188" vertex="1">
          <mxGeometry width="30" height="30" as="geometry">
            <mxRectangle width="30" height="30" as="alternateBounds" />
          </mxGeometry>
        </mxCell>
        <mxCell id="LN7ajbvHa4iX7Mi3LsKq-190" value="AGID" style="shape=partialRectangle;connectable=0;fillColor=none;top=0;left=0;bottom=0;right=0;align=left;spacingLeft=6;fontStyle=5;overflow=hidden;whiteSpace=wrap;html=1;" parent="LN7ajbvHa4iX7Mi3LsKq-188" vertex="1">
          <mxGeometry x="30" width="150" height="30" as="geometry">
            <mxRectangle width="150" height="30" as="alternateBounds" />
          </mxGeometry>
        </mxCell>
        <mxCell id="LN7ajbvHa4iX7Mi3LsKq-200" value="Gene" style="shape=table;startSize=30;container=1;collapsible=1;childLayout=tableLayout;fixedRows=1;rowLines=0;fontStyle=1;align=center;resizeLast=1;html=1;" parent="1" vertex="1">
          <mxGeometry x="1970" y="2070" width="180" height="120" as="geometry" />
        </mxCell>
        <mxCell id="LN7ajbvHa4iX7Mi3LsKq-201" value="" style="shape=tableRow;horizontal=0;startSize=0;swimlaneHead=0;swimlaneBody=0;fillColor=none;collapsible=0;dropTarget=0;points=[[0,0.5],[1,0.5]];portConstraint=eastwest;top=0;left=0;right=0;bottom=1;" parent="LN7ajbvHa4iX7Mi3LsKq-200" vertex="1">
          <mxGeometry y="30" width="180" height="30" as="geometry" />
        </mxCell>
        <mxCell id="LN7ajbvHa4iX7Mi3LsKq-202" value="PK" style="shape=partialRectangle;connectable=0;fillColor=none;top=0;left=0;bottom=0;right=0;fontStyle=1;overflow=hidden;whiteSpace=wrap;html=1;" parent="LN7ajbvHa4iX7Mi3LsKq-201" vertex="1">
          <mxGeometry width="30" height="30" as="geometry">
            <mxRectangle width="30" height="30" as="alternateBounds" />
          </mxGeometry>
        </mxCell>
        <mxCell id="LN7ajbvHa4iX7Mi3LsKq-203" value="Gene_Id" style="shape=partialRectangle;connectable=0;fillColor=none;top=0;left=0;bottom=0;right=0;align=left;spacingLeft=6;fontStyle=5;overflow=hidden;whiteSpace=wrap;html=1;" parent="LN7ajbvHa4iX7Mi3LsKq-201" vertex="1">
          <mxGeometry x="30" width="150" height="30" as="geometry">
            <mxRectangle width="150" height="30" as="alternateBounds" />
          </mxGeometry>
        </mxCell>
        <mxCell id="LN7ajbvHa4iX7Mi3LsKq-204" value="" style="shape=tableRow;horizontal=0;startSize=0;swimlaneHead=0;swimlaneBody=0;fillColor=none;collapsible=0;dropTarget=0;points=[[0,0.5],[1,0.5]];portConstraint=eastwest;top=0;left=0;right=0;bottom=0;" parent="LN7ajbvHa4iX7Mi3LsKq-200" vertex="1">
          <mxGeometry y="60" width="180" height="30" as="geometry" />
        </mxCell>
        <mxCell id="LN7ajbvHa4iX7Mi3LsKq-205" value="" style="shape=partialRectangle;connectable=0;fillColor=none;top=0;left=0;bottom=0;right=0;editable=1;overflow=hidden;whiteSpace=wrap;html=1;" parent="LN7ajbvHa4iX7Mi3LsKq-204" vertex="1">
          <mxGeometry width="30" height="30" as="geometry">
            <mxRectangle width="30" height="30" as="alternateBounds" />
          </mxGeometry>
        </mxCell>
        <mxCell id="LN7ajbvHa4iX7Mi3LsKq-206" value="Name" style="shape=partialRectangle;connectable=0;fillColor=none;top=0;left=0;bottom=0;right=0;align=left;spacingLeft=6;overflow=hidden;whiteSpace=wrap;html=1;" parent="LN7ajbvHa4iX7Mi3LsKq-204" vertex="1">
          <mxGeometry x="30" width="150" height="30" as="geometry">
            <mxRectangle width="150" height="30" as="alternateBounds" />
          </mxGeometry>
        </mxCell>
        <mxCell id="LN7ajbvHa4iX7Mi3LsKq-207" value="" style="shape=tableRow;horizontal=0;startSize=0;swimlaneHead=0;swimlaneBody=0;fillColor=none;collapsible=0;dropTarget=0;points=[[0,0.5],[1,0.5]];portConstraint=eastwest;top=0;left=0;right=0;bottom=0;" parent="LN7ajbvHa4iX7Mi3LsKq-200" vertex="1">
          <mxGeometry y="90" width="180" height="30" as="geometry" />
        </mxCell>
        <mxCell id="LN7ajbvHa4iX7Mi3LsKq-208" value="FK" style="shape=partialRectangle;connectable=0;fillColor=none;top=0;left=0;bottom=0;right=0;editable=1;overflow=hidden;whiteSpace=wrap;html=1;" parent="LN7ajbvHa4iX7Mi3LsKq-207" vertex="1">
          <mxGeometry width="30" height="30" as="geometry">
            <mxRectangle width="30" height="30" as="alternateBounds" />
          </mxGeometry>
        </mxCell>
        <mxCell id="LN7ajbvHa4iX7Mi3LsKq-209" value="Type" style="shape=partialRectangle;connectable=0;fillColor=none;top=0;left=0;bottom=0;right=0;align=left;spacingLeft=6;overflow=hidden;whiteSpace=wrap;html=1;" parent="LN7ajbvHa4iX7Mi3LsKq-207" vertex="1">
          <mxGeometry x="30" width="150" height="30" as="geometry">
            <mxRectangle width="150" height="30" as="alternateBounds" />
          </mxGeometry>
        </mxCell>
        <mxCell id="LN7ajbvHa4iX7Mi3LsKq-226" value="Aliquote" style="shape=table;startSize=30;container=1;collapsible=1;childLayout=tableLayout;fixedRows=1;rowLines=0;fontStyle=1;align=center;resizeLast=1;html=1;" parent="1" vertex="1">
          <mxGeometry x="2160" y="1548.5" width="180" height="150" as="geometry" />
        </mxCell>
        <mxCell id="LN7ajbvHa4iX7Mi3LsKq-227" value="" style="shape=tableRow;horizontal=0;startSize=0;swimlaneHead=0;swimlaneBody=0;fillColor=none;collapsible=0;dropTarget=0;points=[[0,0.5],[1,0.5]];portConstraint=eastwest;top=0;left=0;right=0;bottom=1;" parent="LN7ajbvHa4iX7Mi3LsKq-226" vertex="1">
          <mxGeometry y="30" width="180" height="30" as="geometry" />
        </mxCell>
        <mxCell id="LN7ajbvHa4iX7Mi3LsKq-228" value="PK/FK" style="shape=partialRectangle;connectable=0;fillColor=none;top=0;left=0;bottom=0;right=0;fontStyle=1;overflow=hidden;whiteSpace=wrap;html=1;" parent="LN7ajbvHa4iX7Mi3LsKq-227" vertex="1">
          <mxGeometry width="30" height="30" as="geometry">
            <mxRectangle width="30" height="30" as="alternateBounds" />
          </mxGeometry>
        </mxCell>
        <mxCell id="LN7ajbvHa4iX7Mi3LsKq-229" value="Aliquote_Id" style="shape=partialRectangle;connectable=0;fillColor=none;top=0;left=0;bottom=0;right=0;align=left;spacingLeft=6;fontStyle=5;overflow=hidden;whiteSpace=wrap;html=1;" parent="LN7ajbvHa4iX7Mi3LsKq-227" vertex="1">
          <mxGeometry x="30" width="150" height="30" as="geometry">
            <mxRectangle width="150" height="30" as="alternateBounds" />
          </mxGeometry>
        </mxCell>
        <mxCell id="LN7ajbvHa4iX7Mi3LsKq-230" value="" style="shape=tableRow;horizontal=0;startSize=0;swimlaneHead=0;swimlaneBody=0;fillColor=none;collapsible=0;dropTarget=0;points=[[0,0.5],[1,0.5]];portConstraint=eastwest;top=0;left=0;right=0;bottom=0;" parent="LN7ajbvHa4iX7Mi3LsKq-226" vertex="1">
          <mxGeometry y="60" width="180" height="30" as="geometry" />
        </mxCell>
        <mxCell id="LN7ajbvHa4iX7Mi3LsKq-231" value="FK" style="shape=partialRectangle;connectable=0;fillColor=none;top=0;left=0;bottom=0;right=0;editable=1;overflow=hidden;whiteSpace=wrap;html=1;" parent="LN7ajbvHa4iX7Mi3LsKq-230" vertex="1">
          <mxGeometry width="30" height="30" as="geometry">
            <mxRectangle width="30" height="30" as="alternateBounds" />
          </mxGeometry>
        </mxCell>
        <mxCell id="LN7ajbvHa4iX7Mi3LsKq-232" value="Aliquote_UUId" style="shape=partialRectangle;connectable=0;fillColor=none;top=0;left=0;bottom=0;right=0;align=left;spacingLeft=6;overflow=hidden;whiteSpace=wrap;html=1;" parent="LN7ajbvHa4iX7Mi3LsKq-230" vertex="1">
          <mxGeometry x="30" width="150" height="30" as="geometry">
            <mxRectangle width="150" height="30" as="alternateBounds" />
          </mxGeometry>
        </mxCell>
        <mxCell id="LN7ajbvHa4iX7Mi3LsKq-236" value="" style="shape=tableRow;horizontal=0;startSize=0;swimlaneHead=0;swimlaneBody=0;fillColor=none;collapsible=0;dropTarget=0;points=[[0,0.5],[1,0.5]];portConstraint=eastwest;top=0;left=0;right=0;bottom=0;" parent="LN7ajbvHa4iX7Mi3LsKq-226" vertex="1">
          <mxGeometry y="90" width="180" height="30" as="geometry" />
        </mxCell>
        <mxCell id="LN7ajbvHa4iX7Mi3LsKq-237" value="" style="shape=partialRectangle;connectable=0;fillColor=none;top=0;left=0;bottom=0;right=0;editable=1;overflow=hidden;whiteSpace=wrap;html=1;" parent="LN7ajbvHa4iX7Mi3LsKq-236" vertex="1">
          <mxGeometry width="30" height="30" as="geometry">
            <mxRectangle width="30" height="30" as="alternateBounds" />
          </mxGeometry>
        </mxCell>
        <mxCell id="LN7ajbvHa4iX7Mi3LsKq-238" value="Concentration" style="shape=partialRectangle;connectable=0;fillColor=none;top=0;left=0;bottom=0;right=0;align=left;spacingLeft=6;overflow=hidden;whiteSpace=wrap;html=1;" parent="LN7ajbvHa4iX7Mi3LsKq-236" vertex="1">
          <mxGeometry x="30" width="150" height="30" as="geometry">
            <mxRectangle width="150" height="30" as="alternateBounds" />
          </mxGeometry>
        </mxCell>
        <mxCell id="LN7ajbvHa4iX7Mi3LsKq-507" value="" style="shape=tableRow;horizontal=0;startSize=0;swimlaneHead=0;swimlaneBody=0;fillColor=none;collapsible=0;dropTarget=0;points=[[0,0.5],[1,0.5]];portConstraint=eastwest;top=0;left=0;right=0;bottom=0;" parent="LN7ajbvHa4iX7Mi3LsKq-226" vertex="1">
          <mxGeometry y="120" width="180" height="30" as="geometry" />
        </mxCell>
        <mxCell id="LN7ajbvHa4iX7Mi3LsKq-508" value="FL" style="shape=partialRectangle;connectable=0;fillColor=none;top=0;left=0;bottom=0;right=0;editable=1;overflow=hidden;whiteSpace=wrap;html=1;" parent="LN7ajbvHa4iX7Mi3LsKq-507" vertex="1">
          <mxGeometry width="30" height="30" as="geometry">
            <mxRectangle width="30" height="30" as="alternateBounds" />
          </mxGeometry>
        </mxCell>
        <mxCell id="LN7ajbvHa4iX7Mi3LsKq-509" value="Analyte" style="shape=partialRectangle;connectable=0;fillColor=none;top=0;left=0;bottom=0;right=0;align=left;spacingLeft=6;overflow=hidden;whiteSpace=wrap;html=1;" parent="LN7ajbvHa4iX7Mi3LsKq-507" vertex="1">
          <mxGeometry x="30" width="150" height="30" as="geometry">
            <mxRectangle width="150" height="30" as="alternateBounds" />
          </mxGeometry>
        </mxCell>
        <mxCell id="LN7ajbvHa4iX7Mi3LsKq-252" value="Analysis" style="shape=table;startSize=30;container=1;collapsible=1;childLayout=tableLayout;fixedRows=1;rowLines=0;fontStyle=1;align=center;resizeLast=1;html=1;" parent="1" vertex="1">
          <mxGeometry x="1300" y="1989.5" width="180" height="300" as="geometry" />
        </mxCell>
        <mxCell id="LN7ajbvHa4iX7Mi3LsKq-253" value="" style="shape=tableRow;horizontal=0;startSize=0;swimlaneHead=0;swimlaneBody=0;fillColor=none;collapsible=0;dropTarget=0;points=[[0,0.5],[1,0.5]];portConstraint=eastwest;top=0;left=0;right=0;bottom=1;" parent="LN7ajbvHa4iX7Mi3LsKq-252" vertex="1">
          <mxGeometry y="30" width="180" height="30" as="geometry" />
        </mxCell>
        <mxCell id="LN7ajbvHa4iX7Mi3LsKq-254" value="PK" style="shape=partialRectangle;connectable=0;fillColor=none;top=0;left=0;bottom=0;right=0;fontStyle=1;overflow=hidden;whiteSpace=wrap;html=1;" parent="LN7ajbvHa4iX7Mi3LsKq-253" vertex="1">
          <mxGeometry width="30" height="30" as="geometry">
            <mxRectangle width="30" height="30" as="alternateBounds" />
          </mxGeometry>
        </mxCell>
        <mxCell id="LN7ajbvHa4iX7Mi3LsKq-255" value="File_Id" style="shape=partialRectangle;connectable=0;fillColor=none;top=0;left=0;bottom=0;right=0;align=left;spacingLeft=6;fontStyle=5;overflow=hidden;whiteSpace=wrap;html=1;" parent="LN7ajbvHa4iX7Mi3LsKq-253" vertex="1">
          <mxGeometry x="30" width="150" height="30" as="geometry">
            <mxRectangle width="150" height="30" as="alternateBounds" />
          </mxGeometry>
        </mxCell>
        <mxCell id="LN7ajbvHa4iX7Mi3LsKq-256" value="" style="shape=tableRow;horizontal=0;startSize=0;swimlaneHead=0;swimlaneBody=0;fillColor=none;collapsible=0;dropTarget=0;points=[[0,0.5],[1,0.5]];portConstraint=eastwest;top=0;left=0;right=0;bottom=0;" parent="LN7ajbvHa4iX7Mi3LsKq-252" vertex="1">
          <mxGeometry y="60" width="180" height="30" as="geometry" />
        </mxCell>
        <mxCell id="LN7ajbvHa4iX7Mi3LsKq-257" value="" style="shape=partialRectangle;connectable=0;fillColor=none;top=0;left=0;bottom=0;right=0;editable=1;overflow=hidden;whiteSpace=wrap;html=1;" parent="LN7ajbvHa4iX7Mi3LsKq-256" vertex="1">
          <mxGeometry width="30" height="30" as="geometry">
            <mxRectangle width="30" height="30" as="alternateBounds" />
          </mxGeometry>
        </mxCell>
        <mxCell id="LN7ajbvHa4iX7Mi3LsKq-258" value="Filename" style="shape=partialRectangle;connectable=0;fillColor=none;top=0;left=0;bottom=0;right=0;align=left;spacingLeft=6;overflow=hidden;whiteSpace=wrap;html=1;" parent="LN7ajbvHa4iX7Mi3LsKq-256" vertex="1">
          <mxGeometry x="30" width="150" height="30" as="geometry">
            <mxRectangle width="150" height="30" as="alternateBounds" />
          </mxGeometry>
        </mxCell>
        <mxCell id="LN7ajbvHa4iX7Mi3LsKq-262" value="" style="shape=tableRow;horizontal=0;startSize=0;swimlaneHead=0;swimlaneBody=0;fillColor=none;collapsible=0;dropTarget=0;points=[[0,0.5],[1,0.5]];portConstraint=eastwest;top=0;left=0;right=0;bottom=0;" parent="LN7ajbvHa4iX7Mi3LsKq-252" vertex="1">
          <mxGeometry y="90" width="180" height="30" as="geometry" />
        </mxCell>
        <mxCell id="LN7ajbvHa4iX7Mi3LsKq-263" value="" style="shape=partialRectangle;connectable=0;fillColor=none;top=0;left=0;bottom=0;right=0;editable=1;overflow=hidden;whiteSpace=wrap;html=1;" parent="LN7ajbvHa4iX7Mi3LsKq-262" vertex="1">
          <mxGeometry width="30" height="30" as="geometry">
            <mxRectangle width="30" height="30" as="alternateBounds" />
          </mxGeometry>
        </mxCell>
        <mxCell id="LN7ajbvHa4iX7Mi3LsKq-264" value="File_Size" style="shape=partialRectangle;connectable=0;fillColor=none;top=0;left=0;bottom=0;right=0;align=left;spacingLeft=6;overflow=hidden;whiteSpace=wrap;html=1;" parent="LN7ajbvHa4iX7Mi3LsKq-262" vertex="1">
          <mxGeometry x="30" width="150" height="30" as="geometry">
            <mxRectangle width="150" height="30" as="alternateBounds" />
          </mxGeometry>
        </mxCell>
        <mxCell id="LN7ajbvHa4iX7Mi3LsKq-563" value="" style="shape=tableRow;horizontal=0;startSize=0;swimlaneHead=0;swimlaneBody=0;fillColor=none;collapsible=0;dropTarget=0;points=[[0,0.5],[1,0.5]];portConstraint=eastwest;top=0;left=0;right=0;bottom=0;" parent="LN7ajbvHa4iX7Mi3LsKq-252" vertex="1">
          <mxGeometry y="120" width="180" height="30" as="geometry" />
        </mxCell>
        <mxCell id="LN7ajbvHa4iX7Mi3LsKq-564" value="" style="shape=partialRectangle;connectable=0;fillColor=none;top=0;left=0;bottom=0;right=0;editable=1;overflow=hidden;whiteSpace=wrap;html=1;" parent="LN7ajbvHa4iX7Mi3LsKq-563" vertex="1">
          <mxGeometry width="30" height="30" as="geometry">
            <mxRectangle width="30" height="30" as="alternateBounds" />
          </mxGeometry>
        </mxCell>
        <mxCell id="LN7ajbvHa4iX7Mi3LsKq-565" value="Created_DateTime" style="shape=partialRectangle;connectable=0;fillColor=none;top=0;left=0;bottom=0;right=0;align=left;spacingLeft=6;overflow=hidden;whiteSpace=wrap;html=1;" parent="LN7ajbvHa4iX7Mi3LsKq-563" vertex="1">
          <mxGeometry x="30" width="150" height="30" as="geometry">
            <mxRectangle width="150" height="30" as="alternateBounds" />
          </mxGeometry>
        </mxCell>
        <mxCell id="LN7ajbvHa4iX7Mi3LsKq-566" value="" style="shape=tableRow;horizontal=0;startSize=0;swimlaneHead=0;swimlaneBody=0;fillColor=none;collapsible=0;dropTarget=0;points=[[0,0.5],[1,0.5]];portConstraint=eastwest;top=0;left=0;right=0;bottom=0;" parent="LN7ajbvHa4iX7Mi3LsKq-252" vertex="1">
          <mxGeometry y="150" width="180" height="30" as="geometry" />
        </mxCell>
        <mxCell id="LN7ajbvHa4iX7Mi3LsKq-567" value="" style="shape=partialRectangle;connectable=0;fillColor=none;top=0;left=0;bottom=0;right=0;editable=1;overflow=hidden;whiteSpace=wrap;html=1;" parent="LN7ajbvHa4iX7Mi3LsKq-566" vertex="1">
          <mxGeometry width="30" height="30" as="geometry">
            <mxRectangle width="30" height="30" as="alternateBounds" />
          </mxGeometry>
        </mxCell>
        <mxCell id="LN7ajbvHa4iX7Mi3LsKq-568" value="Updated_DateTime" style="shape=partialRectangle;connectable=0;fillColor=none;top=0;left=0;bottom=0;right=0;align=left;spacingLeft=6;overflow=hidden;whiteSpace=wrap;html=1;" parent="LN7ajbvHa4iX7Mi3LsKq-566" vertex="1">
          <mxGeometry x="30" width="150" height="30" as="geometry">
            <mxRectangle width="150" height="30" as="alternateBounds" />
          </mxGeometry>
        </mxCell>
        <mxCell id="LN7ajbvHa4iX7Mi3LsKq-569" value="" style="shape=tableRow;horizontal=0;startSize=0;swimlaneHead=0;swimlaneBody=0;fillColor=none;collapsible=0;dropTarget=0;points=[[0,0.5],[1,0.5]];portConstraint=eastwest;top=0;left=0;right=0;bottom=0;" parent="LN7ajbvHa4iX7Mi3LsKq-252" vertex="1">
          <mxGeometry y="180" width="180" height="30" as="geometry" />
        </mxCell>
        <mxCell id="LN7ajbvHa4iX7Mi3LsKq-570" value="FK" style="shape=partialRectangle;connectable=0;fillColor=none;top=0;left=0;bottom=0;right=0;editable=1;overflow=hidden;whiteSpace=wrap;html=1;" parent="LN7ajbvHa4iX7Mi3LsKq-569" vertex="1">
          <mxGeometry width="30" height="30" as="geometry">
            <mxRectangle width="30" height="30" as="alternateBounds" />
          </mxGeometry>
        </mxCell>
        <mxCell id="LN7ajbvHa4iX7Mi3LsKq-571" value="Project" style="shape=partialRectangle;connectable=0;fillColor=none;top=0;left=0;bottom=0;right=0;align=left;spacingLeft=6;overflow=hidden;whiteSpace=wrap;html=1;" parent="LN7ajbvHa4iX7Mi3LsKq-569" vertex="1">
          <mxGeometry x="30" width="150" height="30" as="geometry">
            <mxRectangle width="150" height="30" as="alternateBounds" />
          </mxGeometry>
        </mxCell>
        <mxCell id="vzgwTtRD75kb0JKpq5gD-39" value="" style="shape=tableRow;horizontal=0;startSize=0;swimlaneHead=0;swimlaneBody=0;fillColor=none;collapsible=0;dropTarget=0;points=[[0,0.5],[1,0.5]];portConstraint=eastwest;top=0;left=0;right=0;bottom=0;" parent="LN7ajbvHa4iX7Mi3LsKq-252" vertex="1">
          <mxGeometry y="210" width="180" height="30" as="geometry" />
        </mxCell>
        <mxCell id="vzgwTtRD75kb0JKpq5gD-40" value="FK" style="shape=partialRectangle;connectable=0;fillColor=none;top=0;left=0;bottom=0;right=0;fontStyle=0;overflow=hidden;whiteSpace=wrap;html=1;" parent="vzgwTtRD75kb0JKpq5gD-39" vertex="1">
          <mxGeometry width="30" height="30" as="geometry">
            <mxRectangle width="30" height="30" as="alternateBounds" />
          </mxGeometry>
        </mxCell>
        <mxCell id="vzgwTtRD75kb0JKpq5gD-41" value="Data_Category" style="shape=partialRectangle;connectable=0;fillColor=none;top=0;left=0;bottom=0;right=0;align=left;spacingLeft=6;fontStyle=0;overflow=hidden;whiteSpace=wrap;html=1;" parent="vzgwTtRD75kb0JKpq5gD-39" vertex="1">
          <mxGeometry x="30" width="150" height="30" as="geometry">
            <mxRectangle width="150" height="30" as="alternateBounds" />
          </mxGeometry>
        </mxCell>
        <mxCell id="vzgwTtRD75kb0JKpq5gD-42" value="" style="shape=tableRow;horizontal=0;startSize=0;swimlaneHead=0;swimlaneBody=0;fillColor=none;collapsible=0;dropTarget=0;points=[[0,0.5],[1,0.5]];portConstraint=eastwest;top=0;left=0;right=0;bottom=0;" parent="LN7ajbvHa4iX7Mi3LsKq-252" vertex="1">
          <mxGeometry y="240" width="180" height="30" as="geometry" />
        </mxCell>
        <mxCell id="vzgwTtRD75kb0JKpq5gD-43" value="FK" style="shape=partialRectangle;connectable=0;fillColor=none;top=0;left=0;bottom=0;right=0;fontStyle=0;overflow=hidden;whiteSpace=wrap;html=1;" parent="vzgwTtRD75kb0JKpq5gD-42" vertex="1">
          <mxGeometry width="30" height="30" as="geometry">
            <mxRectangle width="30" height="30" as="alternateBounds" />
          </mxGeometry>
        </mxCell>
        <mxCell id="vzgwTtRD75kb0JKpq5gD-44" value="Data_Type" style="shape=partialRectangle;connectable=0;fillColor=none;top=0;left=0;bottom=0;right=0;align=left;spacingLeft=6;fontStyle=0;overflow=hidden;whiteSpace=wrap;html=1;" parent="vzgwTtRD75kb0JKpq5gD-42" vertex="1">
          <mxGeometry x="30" width="150" height="30" as="geometry">
            <mxRectangle width="150" height="30" as="alternateBounds" />
          </mxGeometry>
        </mxCell>
        <mxCell id="vzgwTtRD75kb0JKpq5gD-45" value="" style="shape=tableRow;horizontal=0;startSize=0;swimlaneHead=0;swimlaneBody=0;fillColor=none;collapsible=0;dropTarget=0;points=[[0,0.5],[1,0.5]];portConstraint=eastwest;top=0;left=0;right=0;bottom=0;" parent="LN7ajbvHa4iX7Mi3LsKq-252" vertex="1">
          <mxGeometry y="270" width="180" height="30" as="geometry" />
        </mxCell>
        <mxCell id="vzgwTtRD75kb0JKpq5gD-46" value="FK" style="shape=partialRectangle;connectable=0;fillColor=none;top=0;left=0;bottom=0;right=0;fontStyle=0;overflow=hidden;whiteSpace=wrap;html=1;" parent="vzgwTtRD75kb0JKpq5gD-45" vertex="1">
          <mxGeometry width="30" height="30" as="geometry">
            <mxRectangle width="30" height="30" as="alternateBounds" />
          </mxGeometry>
        </mxCell>
        <mxCell id="vzgwTtRD75kb0JKpq5gD-47" value="Experimental_Strategy" style="shape=partialRectangle;connectable=0;fillColor=none;top=0;left=0;bottom=0;right=0;align=left;spacingLeft=6;fontStyle=0;overflow=hidden;whiteSpace=wrap;html=1;" parent="vzgwTtRD75kb0JKpq5gD-45" vertex="1">
          <mxGeometry x="30" width="150" height="30" as="geometry">
            <mxRectangle width="150" height="30" as="alternateBounds" />
          </mxGeometry>
        </mxCell>
        <mxCell id="LN7ajbvHa4iX7Mi3LsKq-291" value="Tumor" style="shape=table;startSize=30;container=1;collapsible=1;childLayout=tableLayout;fixedRows=1;rowLines=0;fontStyle=1;align=center;resizeLast=1;html=1;" parent="1" vertex="1">
          <mxGeometry x="960" y="1734.5" width="180" height="120" as="geometry" />
        </mxCell>
        <mxCell id="LN7ajbvHa4iX7Mi3LsKq-292" value="" style="shape=tableRow;horizontal=0;startSize=0;swimlaneHead=0;swimlaneBody=0;fillColor=none;collapsible=0;dropTarget=0;points=[[0,0.5],[1,0.5]];portConstraint=eastwest;top=0;left=0;right=0;bottom=1;" parent="LN7ajbvHa4iX7Mi3LsKq-291" vertex="1">
          <mxGeometry y="30" width="180" height="30" as="geometry" />
        </mxCell>
        <mxCell id="LN7ajbvHa4iX7Mi3LsKq-293" value="PK" style="shape=partialRectangle;connectable=0;fillColor=none;top=0;left=0;bottom=0;right=0;fontStyle=1;overflow=hidden;whiteSpace=wrap;html=1;" parent="LN7ajbvHa4iX7Mi3LsKq-292" vertex="1">
          <mxGeometry width="30" height="30" as="geometry">
            <mxRectangle width="30" height="30" as="alternateBounds" />
          </mxGeometry>
        </mxCell>
        <mxCell id="LN7ajbvHa4iX7Mi3LsKq-294" value="Tumor_Code_Id" style="shape=partialRectangle;connectable=0;fillColor=none;top=0;left=0;bottom=0;right=0;align=left;spacingLeft=6;fontStyle=5;overflow=hidden;whiteSpace=wrap;html=1;" parent="LN7ajbvHa4iX7Mi3LsKq-292" vertex="1">
          <mxGeometry x="30" width="150" height="30" as="geometry">
            <mxRectangle width="150" height="30" as="alternateBounds" />
          </mxGeometry>
        </mxCell>
        <mxCell id="LN7ajbvHa4iX7Mi3LsKq-295" value="" style="shape=tableRow;horizontal=0;startSize=0;swimlaneHead=0;swimlaneBody=0;fillColor=none;collapsible=0;dropTarget=0;points=[[0,0.5],[1,0.5]];portConstraint=eastwest;top=0;left=0;right=0;bottom=0;" parent="LN7ajbvHa4iX7Mi3LsKq-291" vertex="1">
          <mxGeometry y="60" width="180" height="30" as="geometry" />
        </mxCell>
        <mxCell id="LN7ajbvHa4iX7Mi3LsKq-296" value="" style="shape=partialRectangle;connectable=0;fillColor=none;top=0;left=0;bottom=0;right=0;editable=1;overflow=hidden;whiteSpace=wrap;html=1;" parent="LN7ajbvHa4iX7Mi3LsKq-295" vertex="1">
          <mxGeometry width="30" height="30" as="geometry">
            <mxRectangle width="30" height="30" as="alternateBounds" />
          </mxGeometry>
        </mxCell>
        <mxCell id="LN7ajbvHa4iX7Mi3LsKq-297" value="Tumor_Code" style="shape=partialRectangle;connectable=0;fillColor=none;top=0;left=0;bottom=0;right=0;align=left;spacingLeft=6;overflow=hidden;whiteSpace=wrap;html=1;" parent="LN7ajbvHa4iX7Mi3LsKq-295" vertex="1">
          <mxGeometry x="30" width="150" height="30" as="geometry">
            <mxRectangle width="150" height="30" as="alternateBounds" />
          </mxGeometry>
        </mxCell>
        <mxCell id="LN7ajbvHa4iX7Mi3LsKq-298" value="" style="shape=tableRow;horizontal=0;startSize=0;swimlaneHead=0;swimlaneBody=0;fillColor=none;collapsible=0;dropTarget=0;points=[[0,0.5],[1,0.5]];portConstraint=eastwest;top=0;left=0;right=0;bottom=0;" parent="LN7ajbvHa4iX7Mi3LsKq-291" vertex="1">
          <mxGeometry y="90" width="180" height="30" as="geometry" />
        </mxCell>
        <mxCell id="LN7ajbvHa4iX7Mi3LsKq-299" value="" style="shape=partialRectangle;connectable=0;fillColor=none;top=0;left=0;bottom=0;right=0;editable=1;overflow=hidden;whiteSpace=wrap;html=1;" parent="LN7ajbvHa4iX7Mi3LsKq-298" vertex="1">
          <mxGeometry width="30" height="30" as="geometry">
            <mxRectangle width="30" height="30" as="alternateBounds" />
          </mxGeometry>
        </mxCell>
        <mxCell id="LN7ajbvHa4iX7Mi3LsKq-300" value="Descriptor" style="shape=partialRectangle;connectable=0;fillColor=none;top=0;left=0;bottom=0;right=0;align=left;spacingLeft=6;overflow=hidden;whiteSpace=wrap;html=1;" parent="LN7ajbvHa4iX7Mi3LsKq-298" vertex="1">
          <mxGeometry x="30" width="150" height="30" as="geometry">
            <mxRectangle width="150" height="30" as="alternateBounds" />
          </mxGeometry>
        </mxCell>
        <mxCell id="LN7ajbvHa4iX7Mi3LsKq-330" value="Sample_Type" style="shape=table;startSize=30;container=1;collapsible=1;childLayout=tableLayout;fixedRows=1;rowLines=0;fontStyle=1;align=center;resizeLast=1;html=1;" parent="1" vertex="1">
          <mxGeometry x="960" y="1593.5" width="180" height="90" as="geometry" />
        </mxCell>
        <mxCell id="LN7ajbvHa4iX7Mi3LsKq-331" value="" style="shape=tableRow;horizontal=0;startSize=0;swimlaneHead=0;swimlaneBody=0;fillColor=none;collapsible=0;dropTarget=0;points=[[0,0.5],[1,0.5]];portConstraint=eastwest;top=0;left=0;right=0;bottom=1;" parent="LN7ajbvHa4iX7Mi3LsKq-330" vertex="1">
          <mxGeometry y="30" width="180" height="30" as="geometry" />
        </mxCell>
        <mxCell id="LN7ajbvHa4iX7Mi3LsKq-332" value="PK" style="shape=partialRectangle;connectable=0;fillColor=none;top=0;left=0;bottom=0;right=0;fontStyle=1;overflow=hidden;whiteSpace=wrap;html=1;" parent="LN7ajbvHa4iX7Mi3LsKq-331" vertex="1">
          <mxGeometry width="30" height="30" as="geometry">
            <mxRectangle width="30" height="30" as="alternateBounds" />
          </mxGeometry>
        </mxCell>
        <mxCell id="LN7ajbvHa4iX7Mi3LsKq-333" value="Type_Id" style="shape=partialRectangle;connectable=0;fillColor=none;top=0;left=0;bottom=0;right=0;align=left;spacingLeft=6;fontStyle=5;overflow=hidden;whiteSpace=wrap;html=1;" parent="LN7ajbvHa4iX7Mi3LsKq-331" vertex="1">
          <mxGeometry x="30" width="150" height="30" as="geometry">
            <mxRectangle width="150" height="30" as="alternateBounds" />
          </mxGeometry>
        </mxCell>
        <mxCell id="LN7ajbvHa4iX7Mi3LsKq-334" value="" style="shape=tableRow;horizontal=0;startSize=0;swimlaneHead=0;swimlaneBody=0;fillColor=none;collapsible=0;dropTarget=0;points=[[0,0.5],[1,0.5]];portConstraint=eastwest;top=0;left=0;right=0;bottom=0;" parent="LN7ajbvHa4iX7Mi3LsKq-330" vertex="1">
          <mxGeometry y="60" width="180" height="30" as="geometry" />
        </mxCell>
        <mxCell id="LN7ajbvHa4iX7Mi3LsKq-335" value="" style="shape=partialRectangle;connectable=0;fillColor=none;top=0;left=0;bottom=0;right=0;editable=1;overflow=hidden;whiteSpace=wrap;html=1;" parent="LN7ajbvHa4iX7Mi3LsKq-334" vertex="1">
          <mxGeometry width="30" height="30" as="geometry">
            <mxRectangle width="30" height="30" as="alternateBounds" />
          </mxGeometry>
        </mxCell>
        <mxCell id="LN7ajbvHa4iX7Mi3LsKq-336" value="Type" style="shape=partialRectangle;connectable=0;fillColor=none;top=0;left=0;bottom=0;right=0;align=left;spacingLeft=6;overflow=hidden;whiteSpace=wrap;html=1;" parent="LN7ajbvHa4iX7Mi3LsKq-334" vertex="1">
          <mxGeometry x="30" width="150" height="30" as="geometry">
            <mxRectangle width="150" height="30" as="alternateBounds" />
          </mxGeometry>
        </mxCell>
        <mxCell id="LN7ajbvHa4iX7Mi3LsKq-343" value="Analyte" style="shape=table;startSize=30;container=1;collapsible=1;childLayout=tableLayout;fixedRows=1;rowLines=0;fontStyle=1;align=center;resizeLast=1;html=1;" parent="1" vertex="1">
          <mxGeometry x="1820" y="1548.5" width="180" height="150" as="geometry" />
        </mxCell>
        <mxCell id="LN7ajbvHa4iX7Mi3LsKq-344" value="" style="shape=tableRow;horizontal=0;startSize=0;swimlaneHead=0;swimlaneBody=0;fillColor=none;collapsible=0;dropTarget=0;points=[[0,0.5],[1,0.5]];portConstraint=eastwest;top=0;left=0;right=0;bottom=1;" parent="LN7ajbvHa4iX7Mi3LsKq-343" vertex="1">
          <mxGeometry y="30" width="180" height="30" as="geometry" />
        </mxCell>
        <mxCell id="LN7ajbvHa4iX7Mi3LsKq-345" value="PK/FK" style="shape=partialRectangle;connectable=0;fillColor=none;top=0;left=0;bottom=0;right=0;fontStyle=1;overflow=hidden;whiteSpace=wrap;html=1;" parent="LN7ajbvHa4iX7Mi3LsKq-344" vertex="1">
          <mxGeometry width="30" height="30" as="geometry">
            <mxRectangle width="30" height="30" as="alternateBounds" />
          </mxGeometry>
        </mxCell>
        <mxCell id="LN7ajbvHa4iX7Mi3LsKq-346" value="Analyte_Id" style="shape=partialRectangle;connectable=0;fillColor=none;top=0;left=0;bottom=0;right=0;align=left;spacingLeft=6;fontStyle=5;overflow=hidden;whiteSpace=wrap;html=1;" parent="LN7ajbvHa4iX7Mi3LsKq-344" vertex="1">
          <mxGeometry x="30" width="150" height="30" as="geometry">
            <mxRectangle width="150" height="30" as="alternateBounds" />
          </mxGeometry>
        </mxCell>
        <mxCell id="LN7ajbvHa4iX7Mi3LsKq-347" value="" style="shape=tableRow;horizontal=0;startSize=0;swimlaneHead=0;swimlaneBody=0;fillColor=none;collapsible=0;dropTarget=0;points=[[0,0.5],[1,0.5]];portConstraint=eastwest;top=0;left=0;right=0;bottom=0;" parent="LN7ajbvHa4iX7Mi3LsKq-343" vertex="1">
          <mxGeometry y="60" width="180" height="30" as="geometry" />
        </mxCell>
        <mxCell id="LN7ajbvHa4iX7Mi3LsKq-348" value="FK" style="shape=partialRectangle;connectable=0;fillColor=none;top=0;left=0;bottom=0;right=0;editable=1;overflow=hidden;whiteSpace=wrap;html=1;" parent="LN7ajbvHa4iX7Mi3LsKq-347" vertex="1">
          <mxGeometry width="30" height="30" as="geometry">
            <mxRectangle width="30" height="30" as="alternateBounds" />
          </mxGeometry>
        </mxCell>
        <mxCell id="LN7ajbvHa4iX7Mi3LsKq-349" value="Analyte_UUId" style="shape=partialRectangle;connectable=0;fillColor=none;top=0;left=0;bottom=0;right=0;align=left;spacingLeft=6;overflow=hidden;whiteSpace=wrap;html=1;" parent="LN7ajbvHa4iX7Mi3LsKq-347" vertex="1">
          <mxGeometry x="30" width="150" height="30" as="geometry">
            <mxRectangle width="150" height="30" as="alternateBounds" />
          </mxGeometry>
        </mxCell>
        <mxCell id="LN7ajbvHa4iX7Mi3LsKq-353" value="" style="shape=tableRow;horizontal=0;startSize=0;swimlaneHead=0;swimlaneBody=0;fillColor=none;collapsible=0;dropTarget=0;points=[[0,0.5],[1,0.5]];portConstraint=eastwest;top=0;left=0;right=0;bottom=0;" parent="LN7ajbvHa4iX7Mi3LsKq-343" vertex="1">
          <mxGeometry y="90" width="180" height="30" as="geometry" />
        </mxCell>
        <mxCell id="LN7ajbvHa4iX7Mi3LsKq-354" value="" style="shape=partialRectangle;connectable=0;fillColor=none;top=0;left=0;bottom=0;right=0;editable=1;overflow=hidden;whiteSpace=wrap;html=1;" parent="LN7ajbvHa4iX7Mi3LsKq-353" vertex="1">
          <mxGeometry width="30" height="30" as="geometry">
            <mxRectangle width="30" height="30" as="alternateBounds" />
          </mxGeometry>
        </mxCell>
        <mxCell id="LN7ajbvHa4iX7Mi3LsKq-355" value="Concentration" style="shape=partialRectangle;connectable=0;fillColor=none;top=0;left=0;bottom=0;right=0;align=left;spacingLeft=6;overflow=hidden;whiteSpace=wrap;html=1;" parent="LN7ajbvHa4iX7Mi3LsKq-353" vertex="1">
          <mxGeometry x="30" width="150" height="30" as="geometry">
            <mxRectangle width="150" height="30" as="alternateBounds" />
          </mxGeometry>
        </mxCell>
        <mxCell id="LN7ajbvHa4iX7Mi3LsKq-494" value="" style="shape=tableRow;horizontal=0;startSize=0;swimlaneHead=0;swimlaneBody=0;fillColor=none;collapsible=0;dropTarget=0;points=[[0,0.5],[1,0.5]];portConstraint=eastwest;top=0;left=0;right=0;bottom=0;" parent="LN7ajbvHa4iX7Mi3LsKq-343" vertex="1">
          <mxGeometry y="120" width="180" height="30" as="geometry" />
        </mxCell>
        <mxCell id="LN7ajbvHa4iX7Mi3LsKq-495" value="FK" style="shape=partialRectangle;connectable=0;fillColor=none;top=0;left=0;bottom=0;right=0;editable=1;overflow=hidden;whiteSpace=wrap;html=1;" parent="LN7ajbvHa4iX7Mi3LsKq-494" vertex="1">
          <mxGeometry width="30" height="30" as="geometry">
            <mxRectangle width="30" height="30" as="alternateBounds" />
          </mxGeometry>
        </mxCell>
        <mxCell id="LN7ajbvHa4iX7Mi3LsKq-496" value="Portion" style="shape=partialRectangle;connectable=0;fillColor=none;top=0;left=0;bottom=0;right=0;align=left;spacingLeft=6;overflow=hidden;whiteSpace=wrap;html=1;" parent="LN7ajbvHa4iX7Mi3LsKq-494" vertex="1">
          <mxGeometry x="30" width="150" height="30" as="geometry">
            <mxRectangle width="150" height="30" as="alternateBounds" />
          </mxGeometry>
        </mxCell>
        <mxCell id="LN7ajbvHa4iX7Mi3LsKq-356" value="Portion" style="shape=table;startSize=30;container=1;collapsible=1;childLayout=tableLayout;fixedRows=1;rowLines=0;fontStyle=1;align=center;resizeLast=1;html=1;" parent="1" vertex="1">
          <mxGeometry x="1540" y="1557" width="180" height="120" as="geometry" />
        </mxCell>
        <mxCell id="LN7ajbvHa4iX7Mi3LsKq-357" value="" style="shape=tableRow;horizontal=0;startSize=0;swimlaneHead=0;swimlaneBody=0;fillColor=none;collapsible=0;dropTarget=0;points=[[0,0.5],[1,0.5]];portConstraint=eastwest;top=0;left=0;right=0;bottom=1;" parent="LN7ajbvHa4iX7Mi3LsKq-356" vertex="1">
          <mxGeometry y="30" width="180" height="30" as="geometry" />
        </mxCell>
        <mxCell id="LN7ajbvHa4iX7Mi3LsKq-358" value="PK/FK" style="shape=partialRectangle;connectable=0;fillColor=none;top=0;left=0;bottom=0;right=0;fontStyle=1;overflow=hidden;whiteSpace=wrap;html=1;" parent="LN7ajbvHa4iX7Mi3LsKq-357" vertex="1">
          <mxGeometry width="30" height="30" as="geometry">
            <mxRectangle width="30" height="30" as="alternateBounds" />
          </mxGeometry>
        </mxCell>
        <mxCell id="LN7ajbvHa4iX7Mi3LsKq-359" value="Portion_Id" style="shape=partialRectangle;connectable=0;fillColor=none;top=0;left=0;bottom=0;right=0;align=left;spacingLeft=6;fontStyle=5;overflow=hidden;whiteSpace=wrap;html=1;" parent="LN7ajbvHa4iX7Mi3LsKq-357" vertex="1">
          <mxGeometry x="30" width="150" height="30" as="geometry">
            <mxRectangle width="150" height="30" as="alternateBounds" />
          </mxGeometry>
        </mxCell>
        <mxCell id="LN7ajbvHa4iX7Mi3LsKq-360" value="" style="shape=tableRow;horizontal=0;startSize=0;swimlaneHead=0;swimlaneBody=0;fillColor=none;collapsible=0;dropTarget=0;points=[[0,0.5],[1,0.5]];portConstraint=eastwest;top=0;left=0;right=0;bottom=0;" parent="LN7ajbvHa4iX7Mi3LsKq-356" vertex="1">
          <mxGeometry y="60" width="180" height="30" as="geometry" />
        </mxCell>
        <mxCell id="LN7ajbvHa4iX7Mi3LsKq-361" value="FK" style="shape=partialRectangle;connectable=0;fillColor=none;top=0;left=0;bottom=0;right=0;editable=1;overflow=hidden;whiteSpace=wrap;html=1;" parent="LN7ajbvHa4iX7Mi3LsKq-360" vertex="1">
          <mxGeometry width="30" height="30" as="geometry">
            <mxRectangle width="30" height="30" as="alternateBounds" />
          </mxGeometry>
        </mxCell>
        <mxCell id="LN7ajbvHa4iX7Mi3LsKq-362" value="Portion_UUId" style="shape=partialRectangle;connectable=0;fillColor=none;top=0;left=0;bottom=0;right=0;align=left;spacingLeft=6;overflow=hidden;whiteSpace=wrap;html=1;" parent="LN7ajbvHa4iX7Mi3LsKq-360" vertex="1">
          <mxGeometry x="30" width="150" height="30" as="geometry">
            <mxRectangle width="150" height="30" as="alternateBounds" />
          </mxGeometry>
        </mxCell>
        <mxCell id="LN7ajbvHa4iX7Mi3LsKq-363" value="" style="shape=tableRow;horizontal=0;startSize=0;swimlaneHead=0;swimlaneBody=0;fillColor=none;collapsible=0;dropTarget=0;points=[[0,0.5],[1,0.5]];portConstraint=eastwest;top=0;left=0;right=0;bottom=0;" parent="LN7ajbvHa4iX7Mi3LsKq-356" vertex="1">
          <mxGeometry y="90" width="180" height="30" as="geometry" />
        </mxCell>
        <mxCell id="LN7ajbvHa4iX7Mi3LsKq-364" value="FK" style="shape=partialRectangle;connectable=0;fillColor=none;top=0;left=0;bottom=0;right=0;editable=1;overflow=hidden;whiteSpace=wrap;html=1;" parent="LN7ajbvHa4iX7Mi3LsKq-363" vertex="1">
          <mxGeometry width="30" height="30" as="geometry">
            <mxRectangle width="30" height="30" as="alternateBounds" />
          </mxGeometry>
        </mxCell>
        <mxCell id="LN7ajbvHa4iX7Mi3LsKq-365" value="Sample" style="shape=partialRectangle;connectable=0;fillColor=none;top=0;left=0;bottom=0;right=0;align=left;spacingLeft=6;overflow=hidden;whiteSpace=wrap;html=1;" parent="LN7ajbvHa4iX7Mi3LsKq-363" vertex="1">
          <mxGeometry x="30" width="150" height="30" as="geometry">
            <mxRectangle width="150" height="30" as="alternateBounds" />
          </mxGeometry>
        </mxCell>
        <mxCell id="LN7ajbvHa4iX7Mi3LsKq-369" value="Sample" style="shape=table;startSize=30;container=1;collapsible=1;childLayout=tableLayout;fixedRows=1;rowLines=0;fontStyle=1;align=center;resizeLast=1;html=1;" parent="1" vertex="1">
          <mxGeometry x="1230" y="1556.5" width="180" height="150" as="geometry" />
        </mxCell>
        <mxCell id="LN7ajbvHa4iX7Mi3LsKq-370" value="" style="shape=tableRow;horizontal=0;startSize=0;swimlaneHead=0;swimlaneBody=0;fillColor=none;collapsible=0;dropTarget=0;points=[[0,0.5],[1,0.5]];portConstraint=eastwest;top=0;left=0;right=0;bottom=1;" parent="LN7ajbvHa4iX7Mi3LsKq-369" vertex="1">
          <mxGeometry y="30" width="180" height="30" as="geometry" />
        </mxCell>
        <mxCell id="LN7ajbvHa4iX7Mi3LsKq-371" value="PK/FK" style="shape=partialRectangle;connectable=0;fillColor=none;top=0;left=0;bottom=0;right=0;fontStyle=1;overflow=hidden;whiteSpace=wrap;html=1;" parent="LN7ajbvHa4iX7Mi3LsKq-370" vertex="1">
          <mxGeometry width="30" height="30" as="geometry">
            <mxRectangle width="30" height="30" as="alternateBounds" />
          </mxGeometry>
        </mxCell>
        <mxCell id="LN7ajbvHa4iX7Mi3LsKq-372" value="Sample_Id" style="shape=partialRectangle;connectable=0;fillColor=none;top=0;left=0;bottom=0;right=0;align=left;spacingLeft=6;fontStyle=5;overflow=hidden;whiteSpace=wrap;html=1;" parent="LN7ajbvHa4iX7Mi3LsKq-370" vertex="1">
          <mxGeometry x="30" width="150" height="30" as="geometry">
            <mxRectangle width="150" height="30" as="alternateBounds" />
          </mxGeometry>
        </mxCell>
        <mxCell id="LN7ajbvHa4iX7Mi3LsKq-373" value="" style="shape=tableRow;horizontal=0;startSize=0;swimlaneHead=0;swimlaneBody=0;fillColor=none;collapsible=0;dropTarget=0;points=[[0,0.5],[1,0.5]];portConstraint=eastwest;top=0;left=0;right=0;bottom=0;" parent="LN7ajbvHa4iX7Mi3LsKq-369" vertex="1">
          <mxGeometry y="60" width="180" height="30" as="geometry" />
        </mxCell>
        <mxCell id="LN7ajbvHa4iX7Mi3LsKq-374" value="" style="shape=partialRectangle;connectable=0;fillColor=none;top=0;left=0;bottom=0;right=0;editable=1;overflow=hidden;whiteSpace=wrap;html=1;" parent="LN7ajbvHa4iX7Mi3LsKq-373" vertex="1">
          <mxGeometry width="30" height="30" as="geometry">
            <mxRectangle width="30" height="30" as="alternateBounds" />
          </mxGeometry>
        </mxCell>
        <mxCell id="LN7ajbvHa4iX7Mi3LsKq-375" value="Sample_UUId" style="shape=partialRectangle;connectable=0;fillColor=none;top=0;left=0;bottom=0;right=0;align=left;spacingLeft=6;overflow=hidden;whiteSpace=wrap;html=1;" parent="LN7ajbvHa4iX7Mi3LsKq-373" vertex="1">
          <mxGeometry x="30" width="150" height="30" as="geometry">
            <mxRectangle width="150" height="30" as="alternateBounds" />
          </mxGeometry>
        </mxCell>
        <mxCell id="LN7ajbvHa4iX7Mi3LsKq-376" value="" style="shape=tableRow;horizontal=0;startSize=0;swimlaneHead=0;swimlaneBody=0;fillColor=none;collapsible=0;dropTarget=0;points=[[0,0.5],[1,0.5]];portConstraint=eastwest;top=0;left=0;right=0;bottom=0;" parent="LN7ajbvHa4iX7Mi3LsKq-369" vertex="1">
          <mxGeometry y="90" width="180" height="30" as="geometry" />
        </mxCell>
        <mxCell id="LN7ajbvHa4iX7Mi3LsKq-377" value="FK" style="shape=partialRectangle;connectable=0;fillColor=none;top=0;left=0;bottom=0;right=0;editable=1;overflow=hidden;whiteSpace=wrap;html=1;" parent="LN7ajbvHa4iX7Mi3LsKq-376" vertex="1">
          <mxGeometry width="30" height="30" as="geometry">
            <mxRectangle width="30" height="30" as="alternateBounds" />
          </mxGeometry>
        </mxCell>
        <mxCell id="LN7ajbvHa4iX7Mi3LsKq-378" value="Type" style="shape=partialRectangle;connectable=0;fillColor=none;top=0;left=0;bottom=0;right=0;align=left;spacingLeft=6;overflow=hidden;whiteSpace=wrap;html=1;" parent="LN7ajbvHa4iX7Mi3LsKq-376" vertex="1">
          <mxGeometry x="30" width="150" height="30" as="geometry">
            <mxRectangle width="150" height="30" as="alternateBounds" />
          </mxGeometry>
        </mxCell>
        <mxCell id="LN7ajbvHa4iX7Mi3LsKq-379" value="" style="shape=tableRow;horizontal=0;startSize=0;swimlaneHead=0;swimlaneBody=0;fillColor=none;collapsible=0;dropTarget=0;points=[[0,0.5],[1,0.5]];portConstraint=eastwest;top=0;left=0;right=0;bottom=0;" parent="LN7ajbvHa4iX7Mi3LsKq-369" vertex="1">
          <mxGeometry y="120" width="180" height="30" as="geometry" />
        </mxCell>
        <mxCell id="LN7ajbvHa4iX7Mi3LsKq-380" value="FK" style="shape=partialRectangle;connectable=0;fillColor=none;top=0;left=0;bottom=0;right=0;editable=1;overflow=hidden;whiteSpace=wrap;html=1;" parent="LN7ajbvHa4iX7Mi3LsKq-379" vertex="1">
          <mxGeometry width="30" height="30" as="geometry">
            <mxRectangle width="30" height="30" as="alternateBounds" />
          </mxGeometry>
        </mxCell>
        <mxCell id="LN7ajbvHa4iX7Mi3LsKq-381" value="Tumor" style="shape=partialRectangle;connectable=0;fillColor=none;top=0;left=0;bottom=0;right=0;align=left;spacingLeft=6;overflow=hidden;whiteSpace=wrap;html=1;" parent="LN7ajbvHa4iX7Mi3LsKq-379" vertex="1">
          <mxGeometry x="30" width="150" height="30" as="geometry">
            <mxRectangle width="150" height="30" as="alternateBounds" />
          </mxGeometry>
        </mxCell>
        <mxCell id="LN7ajbvHa4iX7Mi3LsKq-382" value="Biospecimen" style="shape=table;startSize=30;container=1;collapsible=1;childLayout=tableLayout;fixedRows=1;rowLines=0;fontStyle=1;align=center;resizeLast=1;html=1;" parent="1" vertex="1">
          <mxGeometry x="1340" y="1290" width="180" height="150" as="geometry" />
        </mxCell>
        <mxCell id="LN7ajbvHa4iX7Mi3LsKq-383" value="" style="shape=tableRow;horizontal=0;startSize=0;swimlaneHead=0;swimlaneBody=0;fillColor=none;collapsible=0;dropTarget=0;points=[[0,0.5],[1,0.5]];portConstraint=eastwest;top=0;left=0;right=0;bottom=1;" parent="LN7ajbvHa4iX7Mi3LsKq-382" vertex="1">
          <mxGeometry y="30" width="180" height="30" as="geometry" />
        </mxCell>
        <mxCell id="LN7ajbvHa4iX7Mi3LsKq-384" value="PK" style="shape=partialRectangle;connectable=0;fillColor=none;top=0;left=0;bottom=0;right=0;fontStyle=1;overflow=hidden;whiteSpace=wrap;html=1;" parent="LN7ajbvHa4iX7Mi3LsKq-383" vertex="1">
          <mxGeometry width="30" height="30" as="geometry">
            <mxRectangle width="30" height="30" as="alternateBounds" />
          </mxGeometry>
        </mxCell>
        <mxCell id="LN7ajbvHa4iX7Mi3LsKq-385" value="Id" style="shape=partialRectangle;connectable=0;fillColor=none;top=0;left=0;bottom=0;right=0;align=left;spacingLeft=6;fontStyle=5;overflow=hidden;whiteSpace=wrap;html=1;" parent="LN7ajbvHa4iX7Mi3LsKq-383" vertex="1">
          <mxGeometry x="30" width="150" height="30" as="geometry">
            <mxRectangle width="150" height="30" as="alternateBounds" />
          </mxGeometry>
        </mxCell>
        <mxCell id="LN7ajbvHa4iX7Mi3LsKq-386" value="" style="shape=tableRow;horizontal=0;startSize=0;swimlaneHead=0;swimlaneBody=0;fillColor=none;collapsible=0;dropTarget=0;points=[[0,0.5],[1,0.5]];portConstraint=eastwest;top=0;left=0;right=0;bottom=0;" parent="LN7ajbvHa4iX7Mi3LsKq-382" vertex="1">
          <mxGeometry y="60" width="180" height="30" as="geometry" />
        </mxCell>
        <mxCell id="LN7ajbvHa4iX7Mi3LsKq-387" value="" style="shape=partialRectangle;connectable=0;fillColor=none;top=0;left=0;bottom=0;right=0;editable=1;overflow=hidden;whiteSpace=wrap;html=1;" parent="LN7ajbvHa4iX7Mi3LsKq-386" vertex="1">
          <mxGeometry width="30" height="30" as="geometry">
            <mxRectangle width="30" height="30" as="alternateBounds" />
          </mxGeometry>
        </mxCell>
        <mxCell id="LN7ajbvHa4iX7Mi3LsKq-388" value="UUId" style="shape=partialRectangle;connectable=0;fillColor=none;top=0;left=0;bottom=0;right=0;align=left;spacingLeft=6;overflow=hidden;whiteSpace=wrap;html=1;" parent="LN7ajbvHa4iX7Mi3LsKq-386" vertex="1">
          <mxGeometry x="30" width="150" height="30" as="geometry">
            <mxRectangle width="150" height="30" as="alternateBounds" />
          </mxGeometry>
        </mxCell>
        <mxCell id="LN7ajbvHa4iX7Mi3LsKq-389" value="" style="shape=tableRow;horizontal=0;startSize=0;swimlaneHead=0;swimlaneBody=0;fillColor=none;collapsible=0;dropTarget=0;points=[[0,0.5],[1,0.5]];portConstraint=eastwest;top=0;left=0;right=0;bottom=0;" parent="LN7ajbvHa4iX7Mi3LsKq-382" vertex="1">
          <mxGeometry y="90" width="180" height="30" as="geometry" />
        </mxCell>
        <mxCell id="LN7ajbvHa4iX7Mi3LsKq-390" value="FK" style="shape=partialRectangle;connectable=0;fillColor=none;top=0;left=0;bottom=0;right=0;editable=1;overflow=hidden;whiteSpace=wrap;html=1;" parent="LN7ajbvHa4iX7Mi3LsKq-389" vertex="1">
          <mxGeometry width="30" height="30" as="geometry">
            <mxRectangle width="30" height="30" as="alternateBounds" />
          </mxGeometry>
        </mxCell>
        <mxCell id="LN7ajbvHa4iX7Mi3LsKq-391" value="Case" style="shape=partialRectangle;connectable=0;fillColor=none;top=0;left=0;bottom=0;right=0;align=left;spacingLeft=6;overflow=hidden;whiteSpace=wrap;html=1;" parent="LN7ajbvHa4iX7Mi3LsKq-389" vertex="1">
          <mxGeometry x="30" width="150" height="30" as="geometry">
            <mxRectangle width="150" height="30" as="alternateBounds" />
          </mxGeometry>
        </mxCell>
        <mxCell id="3CzU7pItrZiahojDzi_F-56" value="" style="shape=tableRow;horizontal=0;startSize=0;swimlaneHead=0;swimlaneBody=0;fillColor=none;collapsible=0;dropTarget=0;points=[[0,0.5],[1,0.5]];portConstraint=eastwest;top=0;left=0;right=0;bottom=0;" parent="LN7ajbvHa4iX7Mi3LsKq-382" vertex="1">
          <mxGeometry y="120" width="180" height="30" as="geometry" />
        </mxCell>
        <mxCell id="3CzU7pItrZiahojDzi_F-57" value="FK" style="shape=partialRectangle;connectable=0;fillColor=none;top=0;left=0;bottom=0;right=0;fontStyle=0;overflow=hidden;whiteSpace=wrap;html=1;" parent="3CzU7pItrZiahojDzi_F-56" vertex="1">
          <mxGeometry width="30" height="30" as="geometry">
            <mxRectangle width="30" height="30" as="alternateBounds" />
          </mxGeometry>
        </mxCell>
        <mxCell id="3CzU7pItrZiahojDzi_F-58" value="Type" style="shape=partialRectangle;connectable=0;fillColor=none;top=0;left=0;bottom=0;right=0;align=left;spacingLeft=6;fontStyle=0;overflow=hidden;whiteSpace=wrap;html=1;" parent="3CzU7pItrZiahojDzi_F-56" vertex="1">
          <mxGeometry x="30" width="150" height="30" as="geometry">
            <mxRectangle width="150" height="30" as="alternateBounds" />
          </mxGeometry>
        </mxCell>
        <mxCell id="LN7ajbvHa4iX7Mi3LsKq-395" value="Primary_Site" style="shape=table;startSize=30;container=1;collapsible=1;childLayout=tableLayout;fixedRows=1;rowLines=0;fontStyle=1;align=center;resizeLast=1;html=1;" parent="1" vertex="1">
          <mxGeometry x="2160" y="1220" width="180" height="90" as="geometry" />
        </mxCell>
        <mxCell id="LN7ajbvHa4iX7Mi3LsKq-396" value="" style="shape=tableRow;horizontal=0;startSize=0;swimlaneHead=0;swimlaneBody=0;fillColor=none;collapsible=0;dropTarget=0;points=[[0,0.5],[1,0.5]];portConstraint=eastwest;top=0;left=0;right=0;bottom=1;" parent="LN7ajbvHa4iX7Mi3LsKq-395" vertex="1">
          <mxGeometry y="30" width="180" height="30" as="geometry" />
        </mxCell>
        <mxCell id="LN7ajbvHa4iX7Mi3LsKq-397" value="PK" style="shape=partialRectangle;connectable=0;fillColor=none;top=0;left=0;bottom=0;right=0;fontStyle=1;overflow=hidden;whiteSpace=wrap;html=1;" parent="LN7ajbvHa4iX7Mi3LsKq-396" vertex="1">
          <mxGeometry width="30" height="30" as="geometry">
            <mxRectangle width="30" height="30" as="alternateBounds" />
          </mxGeometry>
        </mxCell>
        <mxCell id="LN7ajbvHa4iX7Mi3LsKq-398" value="Site_Id" style="shape=partialRectangle;connectable=0;fillColor=none;top=0;left=0;bottom=0;right=0;align=left;spacingLeft=6;fontStyle=5;overflow=hidden;whiteSpace=wrap;html=1;" parent="LN7ajbvHa4iX7Mi3LsKq-396" vertex="1">
          <mxGeometry x="30" width="150" height="30" as="geometry">
            <mxRectangle width="150" height="30" as="alternateBounds" />
          </mxGeometry>
        </mxCell>
        <mxCell id="LN7ajbvHa4iX7Mi3LsKq-399" value="" style="shape=tableRow;horizontal=0;startSize=0;swimlaneHead=0;swimlaneBody=0;fillColor=none;collapsible=0;dropTarget=0;points=[[0,0.5],[1,0.5]];portConstraint=eastwest;top=0;left=0;right=0;bottom=0;" parent="LN7ajbvHa4iX7Mi3LsKq-395" vertex="1">
          <mxGeometry y="60" width="180" height="30" as="geometry" />
        </mxCell>
        <mxCell id="LN7ajbvHa4iX7Mi3LsKq-400" value="" style="shape=partialRectangle;connectable=0;fillColor=none;top=0;left=0;bottom=0;right=0;editable=1;overflow=hidden;whiteSpace=wrap;html=1;" parent="LN7ajbvHa4iX7Mi3LsKq-399" vertex="1">
          <mxGeometry width="30" height="30" as="geometry">
            <mxRectangle width="30" height="30" as="alternateBounds" />
          </mxGeometry>
        </mxCell>
        <mxCell id="LN7ajbvHa4iX7Mi3LsKq-401" value="Site" style="shape=partialRectangle;connectable=0;fillColor=none;top=0;left=0;bottom=0;right=0;align=left;spacingLeft=6;overflow=hidden;whiteSpace=wrap;html=1;" parent="LN7ajbvHa4iX7Mi3LsKq-399" vertex="1">
          <mxGeometry x="30" width="150" height="30" as="geometry">
            <mxRectangle width="150" height="30" as="alternateBounds" />
          </mxGeometry>
        </mxCell>
        <mxCell id="LN7ajbvHa4iX7Mi3LsKq-408" value="Disease" style="shape=table;startSize=30;container=1;collapsible=1;childLayout=tableLayout;fixedRows=1;rowLines=0;fontStyle=1;align=center;resizeLast=1;html=1;" parent="1" vertex="1">
          <mxGeometry x="2160" y="1340" width="180" height="90" as="geometry" />
        </mxCell>
        <mxCell id="LN7ajbvHa4iX7Mi3LsKq-409" value="" style="shape=tableRow;horizontal=0;startSize=0;swimlaneHead=0;swimlaneBody=0;fillColor=none;collapsible=0;dropTarget=0;points=[[0,0.5],[1,0.5]];portConstraint=eastwest;top=0;left=0;right=0;bottom=1;" parent="LN7ajbvHa4iX7Mi3LsKq-408" vertex="1">
          <mxGeometry y="30" width="180" height="30" as="geometry" />
        </mxCell>
        <mxCell id="LN7ajbvHa4iX7Mi3LsKq-410" value="PK" style="shape=partialRectangle;connectable=0;fillColor=none;top=0;left=0;bottom=0;right=0;fontStyle=1;overflow=hidden;whiteSpace=wrap;html=1;" parent="LN7ajbvHa4iX7Mi3LsKq-409" vertex="1">
          <mxGeometry width="30" height="30" as="geometry">
            <mxRectangle width="30" height="30" as="alternateBounds" />
          </mxGeometry>
        </mxCell>
        <mxCell id="LN7ajbvHa4iX7Mi3LsKq-411" value="Disease_Id" style="shape=partialRectangle;connectable=0;fillColor=none;top=0;left=0;bottom=0;right=0;align=left;spacingLeft=6;fontStyle=5;overflow=hidden;whiteSpace=wrap;html=1;" parent="LN7ajbvHa4iX7Mi3LsKq-409" vertex="1">
          <mxGeometry x="30" width="150" height="30" as="geometry">
            <mxRectangle width="150" height="30" as="alternateBounds" />
          </mxGeometry>
        </mxCell>
        <mxCell id="LN7ajbvHa4iX7Mi3LsKq-412" value="" style="shape=tableRow;horizontal=0;startSize=0;swimlaneHead=0;swimlaneBody=0;fillColor=none;collapsible=0;dropTarget=0;points=[[0,0.5],[1,0.5]];portConstraint=eastwest;top=0;left=0;right=0;bottom=0;" parent="LN7ajbvHa4iX7Mi3LsKq-408" vertex="1">
          <mxGeometry y="60" width="180" height="30" as="geometry" />
        </mxCell>
        <mxCell id="LN7ajbvHa4iX7Mi3LsKq-413" value="" style="shape=partialRectangle;connectable=0;fillColor=none;top=0;left=0;bottom=0;right=0;editable=1;overflow=hidden;whiteSpace=wrap;html=1;" parent="LN7ajbvHa4iX7Mi3LsKq-412" vertex="1">
          <mxGeometry width="30" height="30" as="geometry">
            <mxRectangle width="30" height="30" as="alternateBounds" />
          </mxGeometry>
        </mxCell>
        <mxCell id="LN7ajbvHa4iX7Mi3LsKq-414" value="Type" style="shape=partialRectangle;connectable=0;fillColor=none;top=0;left=0;bottom=0;right=0;align=left;spacingLeft=6;overflow=hidden;whiteSpace=wrap;html=1;" parent="LN7ajbvHa4iX7Mi3LsKq-412" vertex="1">
          <mxGeometry x="30" width="150" height="30" as="geometry">
            <mxRectangle width="150" height="30" as="alternateBounds" />
          </mxGeometry>
        </mxCell>
        <mxCell id="LN7ajbvHa4iX7Mi3LsKq-421" value="Case" style="shape=table;startSize=30;container=1;collapsible=1;childLayout=tableLayout;fixedRows=1;rowLines=0;fontStyle=1;align=center;resizeLast=1;html=1;" parent="1" vertex="1">
          <mxGeometry x="1900" y="1210" width="180" height="270" as="geometry" />
        </mxCell>
        <mxCell id="LN7ajbvHa4iX7Mi3LsKq-422" value="" style="shape=tableRow;horizontal=0;startSize=0;swimlaneHead=0;swimlaneBody=0;fillColor=none;collapsible=0;dropTarget=0;points=[[0,0.5],[1,0.5]];portConstraint=eastwest;top=0;left=0;right=0;bottom=1;" parent="LN7ajbvHa4iX7Mi3LsKq-421" vertex="1">
          <mxGeometry y="30" width="180" height="30" as="geometry" />
        </mxCell>
        <mxCell id="LN7ajbvHa4iX7Mi3LsKq-423" value="PK" style="shape=partialRectangle;connectable=0;fillColor=none;top=0;left=0;bottom=0;right=0;fontStyle=1;overflow=hidden;whiteSpace=wrap;html=1;" parent="LN7ajbvHa4iX7Mi3LsKq-422" vertex="1">
          <mxGeometry width="30" height="30" as="geometry">
            <mxRectangle width="30" height="30" as="alternateBounds" />
          </mxGeometry>
        </mxCell>
        <mxCell id="LN7ajbvHa4iX7Mi3LsKq-424" value="Case_Id" style="shape=partialRectangle;connectable=0;fillColor=none;top=0;left=0;bottom=0;right=0;align=left;spacingLeft=6;fontStyle=5;overflow=hidden;whiteSpace=wrap;html=1;" parent="LN7ajbvHa4iX7Mi3LsKq-422" vertex="1">
          <mxGeometry x="30" width="150" height="30" as="geometry">
            <mxRectangle width="150" height="30" as="alternateBounds" />
          </mxGeometry>
        </mxCell>
        <mxCell id="LN7ajbvHa4iX7Mi3LsKq-425" value="" style="shape=tableRow;horizontal=0;startSize=0;swimlaneHead=0;swimlaneBody=0;fillColor=none;collapsible=0;dropTarget=0;points=[[0,0.5],[1,0.5]];portConstraint=eastwest;top=0;left=0;right=0;bottom=0;" parent="LN7ajbvHa4iX7Mi3LsKq-421" vertex="1">
          <mxGeometry y="60" width="180" height="30" as="geometry" />
        </mxCell>
        <mxCell id="LN7ajbvHa4iX7Mi3LsKq-426" value="" style="shape=partialRectangle;connectable=0;fillColor=none;top=0;left=0;bottom=0;right=0;editable=1;overflow=hidden;whiteSpace=wrap;html=1;" parent="LN7ajbvHa4iX7Mi3LsKq-425" vertex="1">
          <mxGeometry width="30" height="30" as="geometry">
            <mxRectangle width="30" height="30" as="alternateBounds" />
          </mxGeometry>
        </mxCell>
        <mxCell id="LN7ajbvHa4iX7Mi3LsKq-427" value="Ethnicity" style="shape=partialRectangle;connectable=0;fillColor=none;top=0;left=0;bottom=0;right=0;align=left;spacingLeft=6;overflow=hidden;whiteSpace=wrap;html=1;" parent="LN7ajbvHa4iX7Mi3LsKq-425" vertex="1">
          <mxGeometry x="30" width="150" height="30" as="geometry">
            <mxRectangle width="150" height="30" as="alternateBounds" />
          </mxGeometry>
        </mxCell>
        <mxCell id="LN7ajbvHa4iX7Mi3LsKq-428" value="" style="shape=tableRow;horizontal=0;startSize=0;swimlaneHead=0;swimlaneBody=0;fillColor=none;collapsible=0;dropTarget=0;points=[[0,0.5],[1,0.5]];portConstraint=eastwest;top=0;left=0;right=0;bottom=0;" parent="LN7ajbvHa4iX7Mi3LsKq-421" vertex="1">
          <mxGeometry y="90" width="180" height="30" as="geometry" />
        </mxCell>
        <mxCell id="LN7ajbvHa4iX7Mi3LsKq-429" value="" style="shape=partialRectangle;connectable=0;fillColor=none;top=0;left=0;bottom=0;right=0;editable=1;overflow=hidden;whiteSpace=wrap;html=1;" parent="LN7ajbvHa4iX7Mi3LsKq-428" vertex="1">
          <mxGeometry width="30" height="30" as="geometry">
            <mxRectangle width="30" height="30" as="alternateBounds" />
          </mxGeometry>
        </mxCell>
        <mxCell id="LN7ajbvHa4iX7Mi3LsKq-430" value="Gender" style="shape=partialRectangle;connectable=0;fillColor=none;top=0;left=0;bottom=0;right=0;align=left;spacingLeft=6;overflow=hidden;whiteSpace=wrap;html=1;" parent="LN7ajbvHa4iX7Mi3LsKq-428" vertex="1">
          <mxGeometry x="30" width="150" height="30" as="geometry">
            <mxRectangle width="150" height="30" as="alternateBounds" />
          </mxGeometry>
        </mxCell>
        <mxCell id="LN7ajbvHa4iX7Mi3LsKq-431" value="" style="shape=tableRow;horizontal=0;startSize=0;swimlaneHead=0;swimlaneBody=0;fillColor=none;collapsible=0;dropTarget=0;points=[[0,0.5],[1,0.5]];portConstraint=eastwest;top=0;left=0;right=0;bottom=0;" parent="LN7ajbvHa4iX7Mi3LsKq-421" vertex="1">
          <mxGeometry y="120" width="180" height="30" as="geometry" />
        </mxCell>
        <mxCell id="LN7ajbvHa4iX7Mi3LsKq-432" value="" style="shape=partialRectangle;connectable=0;fillColor=none;top=0;left=0;bottom=0;right=0;editable=1;overflow=hidden;whiteSpace=wrap;html=1;" parent="LN7ajbvHa4iX7Mi3LsKq-431" vertex="1">
          <mxGeometry width="30" height="30" as="geometry">
            <mxRectangle width="30" height="30" as="alternateBounds" />
          </mxGeometry>
        </mxCell>
        <mxCell id="LN7ajbvHa4iX7Mi3LsKq-433" value="Race" style="shape=partialRectangle;connectable=0;fillColor=none;top=0;left=0;bottom=0;right=0;align=left;spacingLeft=6;overflow=hidden;whiteSpace=wrap;html=1;" parent="LN7ajbvHa4iX7Mi3LsKq-431" vertex="1">
          <mxGeometry x="30" width="150" height="30" as="geometry">
            <mxRectangle width="150" height="30" as="alternateBounds" />
          </mxGeometry>
        </mxCell>
        <mxCell id="3CzU7pItrZiahojDzi_F-48" value="" style="shape=tableRow;horizontal=0;startSize=0;swimlaneHead=0;swimlaneBody=0;fillColor=none;collapsible=0;dropTarget=0;points=[[0,0.5],[1,0.5]];portConstraint=eastwest;top=0;left=0;right=0;bottom=0;" parent="LN7ajbvHa4iX7Mi3LsKq-421" vertex="1">
          <mxGeometry y="150" width="180" height="30" as="geometry" />
        </mxCell>
        <mxCell id="3CzU7pItrZiahojDzi_F-49" value="" style="shape=partialRectangle;connectable=0;fillColor=none;top=0;left=0;bottom=0;right=0;editable=1;overflow=hidden;" parent="3CzU7pItrZiahojDzi_F-48" vertex="1">
          <mxGeometry width="30" height="30" as="geometry">
            <mxRectangle width="30" height="30" as="alternateBounds" />
          </mxGeometry>
        </mxCell>
        <mxCell id="3CzU7pItrZiahojDzi_F-50" value="Vital_Status" style="shape=partialRectangle;connectable=0;fillColor=none;top=0;left=0;bottom=0;right=0;align=left;spacingLeft=6;overflow=hidden;" parent="3CzU7pItrZiahojDzi_F-48" vertex="1">
          <mxGeometry x="30" width="150" height="30" as="geometry">
            <mxRectangle width="150" height="30" as="alternateBounds" />
          </mxGeometry>
        </mxCell>
        <mxCell id="LN7ajbvHa4iX7Mi3LsKq-459" value="" style="shape=tableRow;horizontal=0;startSize=0;swimlaneHead=0;swimlaneBody=0;fillColor=none;collapsible=0;dropTarget=0;points=[[0,0.5],[1,0.5]];portConstraint=eastwest;top=0;left=0;right=0;bottom=0;" parent="LN7ajbvHa4iX7Mi3LsKq-421" vertex="1">
          <mxGeometry y="180" width="180" height="30" as="geometry" />
        </mxCell>
        <mxCell id="LN7ajbvHa4iX7Mi3LsKq-460" value="FK" style="shape=partialRectangle;connectable=0;fillColor=none;top=0;left=0;bottom=0;right=0;editable=1;overflow=hidden;whiteSpace=wrap;html=1;" parent="LN7ajbvHa4iX7Mi3LsKq-459" vertex="1">
          <mxGeometry width="30" height="30" as="geometry">
            <mxRectangle width="30" height="30" as="alternateBounds" />
          </mxGeometry>
        </mxCell>
        <mxCell id="LN7ajbvHa4iX7Mi3LsKq-461" value="Project" style="shape=partialRectangle;connectable=0;fillColor=none;top=0;left=0;bottom=0;right=0;align=left;spacingLeft=6;overflow=hidden;whiteSpace=wrap;html=1;" parent="LN7ajbvHa4iX7Mi3LsKq-459" vertex="1">
          <mxGeometry x="30" width="150" height="30" as="geometry">
            <mxRectangle width="150" height="30" as="alternateBounds" />
          </mxGeometry>
        </mxCell>
        <mxCell id="LN7ajbvHa4iX7Mi3LsKq-462" value="" style="shape=tableRow;horizontal=0;startSize=0;swimlaneHead=0;swimlaneBody=0;fillColor=none;collapsible=0;dropTarget=0;points=[[0,0.5],[1,0.5]];portConstraint=eastwest;top=0;left=0;right=0;bottom=0;" parent="LN7ajbvHa4iX7Mi3LsKq-421" vertex="1">
          <mxGeometry y="210" width="180" height="30" as="geometry" />
        </mxCell>
        <mxCell id="LN7ajbvHa4iX7Mi3LsKq-463" value="FK" style="shape=partialRectangle;connectable=0;fillColor=none;top=0;left=0;bottom=0;right=0;editable=1;overflow=hidden;whiteSpace=wrap;html=1;" parent="LN7ajbvHa4iX7Mi3LsKq-462" vertex="1">
          <mxGeometry width="30" height="30" as="geometry">
            <mxRectangle width="30" height="30" as="alternateBounds" />
          </mxGeometry>
        </mxCell>
        <mxCell id="LN7ajbvHa4iX7Mi3LsKq-464" value="Site" style="shape=partialRectangle;connectable=0;fillColor=none;top=0;left=0;bottom=0;right=0;align=left;spacingLeft=6;overflow=hidden;whiteSpace=wrap;html=1;" parent="LN7ajbvHa4iX7Mi3LsKq-462" vertex="1">
          <mxGeometry x="30" width="150" height="30" as="geometry">
            <mxRectangle width="150" height="30" as="alternateBounds" />
          </mxGeometry>
        </mxCell>
        <mxCell id="LN7ajbvHa4iX7Mi3LsKq-465" value="" style="shape=tableRow;horizontal=0;startSize=0;swimlaneHead=0;swimlaneBody=0;fillColor=none;collapsible=0;dropTarget=0;points=[[0,0.5],[1,0.5]];portConstraint=eastwest;top=0;left=0;right=0;bottom=0;" parent="LN7ajbvHa4iX7Mi3LsKq-421" vertex="1">
          <mxGeometry y="240" width="180" height="30" as="geometry" />
        </mxCell>
        <mxCell id="LN7ajbvHa4iX7Mi3LsKq-466" value="FK" style="shape=partialRectangle;connectable=0;fillColor=none;top=0;left=0;bottom=0;right=0;editable=1;overflow=hidden;whiteSpace=wrap;html=1;" parent="LN7ajbvHa4iX7Mi3LsKq-465" vertex="1">
          <mxGeometry width="30" height="30" as="geometry">
            <mxRectangle width="30" height="30" as="alternateBounds" />
          </mxGeometry>
        </mxCell>
        <mxCell id="LN7ajbvHa4iX7Mi3LsKq-467" value="Disease" style="shape=partialRectangle;connectable=0;fillColor=none;top=0;left=0;bottom=0;right=0;align=left;spacingLeft=6;overflow=hidden;whiteSpace=wrap;html=1;" parent="LN7ajbvHa4iX7Mi3LsKq-465" vertex="1">
          <mxGeometry x="30" width="150" height="30" as="geometry">
            <mxRectangle width="150" height="30" as="alternateBounds" />
          </mxGeometry>
        </mxCell>
        <mxCell id="LN7ajbvHa4iX7Mi3LsKq-434" value="Project" style="shape=table;startSize=30;container=1;collapsible=1;childLayout=tableLayout;fixedRows=1;rowLines=0;fontStyle=1;align=center;resizeLast=1;html=1;" parent="1" vertex="1">
          <mxGeometry x="1650" y="1285" width="180" height="90" as="geometry" />
        </mxCell>
        <mxCell id="LN7ajbvHa4iX7Mi3LsKq-435" value="" style="shape=tableRow;horizontal=0;startSize=0;swimlaneHead=0;swimlaneBody=0;fillColor=none;collapsible=0;dropTarget=0;points=[[0,0.5],[1,0.5]];portConstraint=eastwest;top=0;left=0;right=0;bottom=1;" parent="LN7ajbvHa4iX7Mi3LsKq-434" vertex="1">
          <mxGeometry y="30" width="180" height="30" as="geometry" />
        </mxCell>
        <mxCell id="LN7ajbvHa4iX7Mi3LsKq-436" value="PK" style="shape=partialRectangle;connectable=0;fillColor=none;top=0;left=0;bottom=0;right=0;fontStyle=1;overflow=hidden;whiteSpace=wrap;html=1;" parent="LN7ajbvHa4iX7Mi3LsKq-435" vertex="1">
          <mxGeometry width="30" height="30" as="geometry">
            <mxRectangle width="30" height="30" as="alternateBounds" />
          </mxGeometry>
        </mxCell>
        <mxCell id="LN7ajbvHa4iX7Mi3LsKq-437" value="Project_Id" style="shape=partialRectangle;connectable=0;fillColor=none;top=0;left=0;bottom=0;right=0;align=left;spacingLeft=6;fontStyle=5;overflow=hidden;whiteSpace=wrap;html=1;" parent="LN7ajbvHa4iX7Mi3LsKq-435" vertex="1">
          <mxGeometry x="30" width="150" height="30" as="geometry">
            <mxRectangle width="150" height="30" as="alternateBounds" />
          </mxGeometry>
        </mxCell>
        <mxCell id="LN7ajbvHa4iX7Mi3LsKq-438" value="" style="shape=tableRow;horizontal=0;startSize=0;swimlaneHead=0;swimlaneBody=0;fillColor=none;collapsible=0;dropTarget=0;points=[[0,0.5],[1,0.5]];portConstraint=eastwest;top=0;left=0;right=0;bottom=0;" parent="LN7ajbvHa4iX7Mi3LsKq-434" vertex="1">
          <mxGeometry y="60" width="180" height="30" as="geometry" />
        </mxCell>
        <mxCell id="LN7ajbvHa4iX7Mi3LsKq-439" value="" style="shape=partialRectangle;connectable=0;fillColor=none;top=0;left=0;bottom=0;right=0;editable=1;overflow=hidden;whiteSpace=wrap;html=1;" parent="LN7ajbvHa4iX7Mi3LsKq-438" vertex="1">
          <mxGeometry width="30" height="30" as="geometry">
            <mxRectangle width="30" height="30" as="alternateBounds" />
          </mxGeometry>
        </mxCell>
        <mxCell id="LN7ajbvHa4iX7Mi3LsKq-440" value="Name" style="shape=partialRectangle;connectable=0;fillColor=none;top=0;left=0;bottom=0;right=0;align=left;spacingLeft=6;overflow=hidden;whiteSpace=wrap;html=1;" parent="LN7ajbvHa4iX7Mi3LsKq-438" vertex="1">
          <mxGeometry x="30" width="150" height="30" as="geometry">
            <mxRectangle width="150" height="30" as="alternateBounds" />
          </mxGeometry>
        </mxCell>
        <mxCell id="LN7ajbvHa4iX7Mi3LsKq-468" style="edgeStyle=orthogonalEdgeStyle;rounded=0;orthogonalLoop=1;jettySize=auto;html=1;entryX=0;entryY=0.5;entryDx=0;entryDy=0;" parent="1" source="LN7ajbvHa4iX7Mi3LsKq-435" target="LN7ajbvHa4iX7Mi3LsKq-459" edge="1">
          <mxGeometry relative="1" as="geometry" />
        </mxCell>
        <mxCell id="LN7ajbvHa4iX7Mi3LsKq-469" style="edgeStyle=orthogonalEdgeStyle;rounded=0;orthogonalLoop=1;jettySize=auto;html=1;entryX=1;entryY=0.5;entryDx=0;entryDy=0;" parent="1" source="LN7ajbvHa4iX7Mi3LsKq-409" target="LN7ajbvHa4iX7Mi3LsKq-465" edge="1">
          <mxGeometry relative="1" as="geometry" />
        </mxCell>
        <mxCell id="LN7ajbvHa4iX7Mi3LsKq-470" style="edgeStyle=orthogonalEdgeStyle;rounded=0;orthogonalLoop=1;jettySize=auto;html=1;entryX=1;entryY=0.5;entryDx=0;entryDy=0;" parent="1" source="LN7ajbvHa4iX7Mi3LsKq-396" target="LN7ajbvHa4iX7Mi3LsKq-462" edge="1">
          <mxGeometry relative="1" as="geometry">
            <Array as="points">
              <mxPoint x="2110" y="1265" />
              <mxPoint x="2110" y="1435" />
            </Array>
          </mxGeometry>
        </mxCell>
        <mxCell id="LN7ajbvHa4iX7Mi3LsKq-485" style="edgeStyle=orthogonalEdgeStyle;rounded=0;orthogonalLoop=1;jettySize=auto;html=1;entryX=0;entryY=0.5;entryDx=0;entryDy=0;" parent="1" source="LN7ajbvHa4iX7Mi3LsKq-422" target="LN7ajbvHa4iX7Mi3LsKq-389" edge="1">
          <mxGeometry relative="1" as="geometry">
            <Array as="points">
              <mxPoint x="1310" y="1255" />
              <mxPoint x="1310" y="1395" />
            </Array>
          </mxGeometry>
        </mxCell>
        <mxCell id="LN7ajbvHa4iX7Mi3LsKq-486" style="edgeStyle=orthogonalEdgeStyle;rounded=0;orthogonalLoop=1;jettySize=auto;html=1;entryX=0;entryY=0.5;entryDx=0;entryDy=0;" parent="1" source="LN7ajbvHa4iX7Mi3LsKq-383" target="LN7ajbvHa4iX7Mi3LsKq-370" edge="1">
          <mxGeometry relative="1" as="geometry">
            <Array as="points">
              <mxPoint x="1210" y="1335" />
              <mxPoint x="1210" y="1602" />
            </Array>
          </mxGeometry>
        </mxCell>
        <mxCell id="LN7ajbvHa4iX7Mi3LsKq-487" style="edgeStyle=orthogonalEdgeStyle;rounded=0;orthogonalLoop=1;jettySize=auto;html=1;entryX=0;entryY=0.5;entryDx=0;entryDy=0;" parent="1" source="LN7ajbvHa4iX7Mi3LsKq-386" target="LN7ajbvHa4iX7Mi3LsKq-373" edge="1">
          <mxGeometry relative="1" as="geometry">
            <Array as="points">
              <mxPoint x="1180" y="1365" />
              <mxPoint x="1180" y="1632" />
            </Array>
          </mxGeometry>
        </mxCell>
        <mxCell id="LN7ajbvHa4iX7Mi3LsKq-531" style="edgeStyle=orthogonalEdgeStyle;rounded=0;orthogonalLoop=1;jettySize=auto;html=1;entryX=0;entryY=0.5;entryDx=0;entryDy=0;" parent="1" source="LN7ajbvHa4iX7Mi3LsKq-370" target="LN7ajbvHa4iX7Mi3LsKq-363" edge="1">
          <mxGeometry relative="1" as="geometry" />
        </mxCell>
        <mxCell id="LN7ajbvHa4iX7Mi3LsKq-532" style="edgeStyle=orthogonalEdgeStyle;rounded=0;orthogonalLoop=1;jettySize=auto;html=1;entryX=0;entryY=0.5;entryDx=0;entryDy=0;" parent="1" source="LN7ajbvHa4iX7Mi3LsKq-357" target="LN7ajbvHa4iX7Mi3LsKq-494" edge="1">
          <mxGeometry relative="1" as="geometry">
            <Array as="points">
              <mxPoint x="1750" y="1602" />
              <mxPoint x="1750" y="1684" />
            </Array>
          </mxGeometry>
        </mxCell>
        <mxCell id="LN7ajbvHa4iX7Mi3LsKq-533" style="edgeStyle=orthogonalEdgeStyle;rounded=0;orthogonalLoop=1;jettySize=auto;html=1;entryX=0;entryY=0.5;entryDx=0;entryDy=0;" parent="1" source="LN7ajbvHa4iX7Mi3LsKq-344" target="LN7ajbvHa4iX7Mi3LsKq-507" edge="1">
          <mxGeometry relative="1" as="geometry">
            <Array as="points">
              <mxPoint x="2060" y="1594" />
              <mxPoint x="2060" y="1684" />
            </Array>
          </mxGeometry>
        </mxCell>
        <mxCell id="LN7ajbvHa4iX7Mi3LsKq-537" style="edgeStyle=orthogonalEdgeStyle;rounded=0;orthogonalLoop=1;jettySize=auto;html=1;entryX=0;entryY=0.5;entryDx=0;entryDy=0;" parent="1" source="LN7ajbvHa4iX7Mi3LsKq-331" target="LN7ajbvHa4iX7Mi3LsKq-376" edge="1">
          <mxGeometry relative="1" as="geometry">
            <Array as="points">
              <mxPoint x="1180" y="1640" />
              <mxPoint x="1180" y="1662" />
            </Array>
          </mxGeometry>
        </mxCell>
        <mxCell id="LN7ajbvHa4iX7Mi3LsKq-538" style="edgeStyle=orthogonalEdgeStyle;rounded=0;orthogonalLoop=1;jettySize=auto;html=1;entryX=0;entryY=0.5;entryDx=0;entryDy=0;exitX=1;exitY=0.5;exitDx=0;exitDy=0;" parent="1" source="LN7ajbvHa4iX7Mi3LsKq-292" target="LN7ajbvHa4iX7Mi3LsKq-379" edge="1">
          <mxGeometry relative="1" as="geometry">
            <Array as="points">
              <mxPoint x="1210" y="1780" />
              <mxPoint x="1210" y="1692" />
            </Array>
          </mxGeometry>
        </mxCell>
        <mxCell id="LN7ajbvHa4iX7Mi3LsKq-539" style="edgeStyle=orthogonalEdgeStyle;rounded=0;orthogonalLoop=1;jettySize=auto;html=1;entryX=0;entryY=0.5;entryDx=0;entryDy=0;exitX=1;exitY=0.5;exitDx=0;exitDy=0;" parent="1" source="LN7ajbvHa4iX7Mi3LsKq-383" target="LN7ajbvHa4iX7Mi3LsKq-357" edge="1">
          <mxGeometry relative="1" as="geometry">
            <Array as="points">
              <mxPoint x="1560" y="1335" />
              <mxPoint x="1560" y="1500" />
              <mxPoint x="1520" y="1500" />
              <mxPoint x="1520" y="1602" />
            </Array>
          </mxGeometry>
        </mxCell>
        <mxCell id="LN7ajbvHa4iX7Mi3LsKq-540" style="edgeStyle=orthogonalEdgeStyle;rounded=0;orthogonalLoop=1;jettySize=auto;html=1;entryX=0;entryY=0.5;entryDx=0;entryDy=0;" parent="1" source="LN7ajbvHa4iX7Mi3LsKq-383" target="LN7ajbvHa4iX7Mi3LsKq-344" edge="1">
          <mxGeometry relative="1" as="geometry">
            <Array as="points">
              <mxPoint x="1560" y="1335" />
              <mxPoint x="1560" y="1502" />
              <mxPoint x="1800" y="1502" />
              <mxPoint x="1800" y="1594" />
            </Array>
          </mxGeometry>
        </mxCell>
        <mxCell id="LN7ajbvHa4iX7Mi3LsKq-541" style="edgeStyle=orthogonalEdgeStyle;rounded=0;orthogonalLoop=1;jettySize=auto;html=1;entryX=0;entryY=0.5;entryDx=0;entryDy=0;" parent="1" source="LN7ajbvHa4iX7Mi3LsKq-383" target="LN7ajbvHa4iX7Mi3LsKq-227" edge="1">
          <mxGeometry relative="1" as="geometry">
            <Array as="points">
              <mxPoint x="1560" y="1335" />
              <mxPoint x="1560" y="1502" />
              <mxPoint x="2120" y="1502" />
              <mxPoint x="2120" y="1594" />
            </Array>
          </mxGeometry>
        </mxCell>
        <mxCell id="LN7ajbvHa4iX7Mi3LsKq-542" style="edgeStyle=orthogonalEdgeStyle;rounded=0;orthogonalLoop=1;jettySize=auto;html=1;entryX=0;entryY=0.5;entryDx=0;entryDy=0;" parent="1" source="LN7ajbvHa4iX7Mi3LsKq-386" target="LN7ajbvHa4iX7Mi3LsKq-360" edge="1">
          <mxGeometry relative="1" as="geometry">
            <Array as="points">
              <mxPoint x="1180" y="1365" />
              <mxPoint x="1180" y="1532" />
              <mxPoint x="1500" y="1532" />
              <mxPoint x="1500" y="1632" />
            </Array>
          </mxGeometry>
        </mxCell>
        <mxCell id="LN7ajbvHa4iX7Mi3LsKq-543" style="edgeStyle=orthogonalEdgeStyle;rounded=0;orthogonalLoop=1;jettySize=auto;html=1;entryX=0;entryY=0.5;entryDx=0;entryDy=0;" parent="1" source="LN7ajbvHa4iX7Mi3LsKq-386" target="LN7ajbvHa4iX7Mi3LsKq-347" edge="1">
          <mxGeometry relative="1" as="geometry">
            <Array as="points">
              <mxPoint x="1180" y="1365" />
              <mxPoint x="1180" y="1532" />
              <mxPoint x="1770" y="1532" />
              <mxPoint x="1770" y="1624" />
            </Array>
          </mxGeometry>
        </mxCell>
        <mxCell id="LN7ajbvHa4iX7Mi3LsKq-544" style="edgeStyle=orthogonalEdgeStyle;rounded=0;orthogonalLoop=1;jettySize=auto;html=1;entryX=0;entryY=0.5;entryDx=0;entryDy=0;" parent="1" source="LN7ajbvHa4iX7Mi3LsKq-386" target="LN7ajbvHa4iX7Mi3LsKq-230" edge="1">
          <mxGeometry relative="1" as="geometry">
            <Array as="points">
              <mxPoint x="1180" y="1365" />
              <mxPoint x="1180" y="1532" />
              <mxPoint x="2100" y="1532" />
              <mxPoint x="2100" y="1624" />
            </Array>
          </mxGeometry>
        </mxCell>
        <mxCell id="LN7ajbvHa4iX7Mi3LsKq-546" value="Analysis_Entity" style="shape=table;startSize=30;container=1;collapsible=1;childLayout=tableLayout;fixedRows=1;rowLines=0;fontStyle=1;align=center;resizeLast=1;html=1;whiteSpace=wrap;" parent="1" vertex="1">
          <mxGeometry x="960" y="1891.5" width="180" height="90" as="geometry" />
        </mxCell>
        <mxCell id="LN7ajbvHa4iX7Mi3LsKq-547" value="" style="shape=tableRow;horizontal=0;startSize=0;swimlaneHead=0;swimlaneBody=0;fillColor=none;collapsible=0;dropTarget=0;points=[[0,0.5],[1,0.5]];portConstraint=eastwest;top=0;left=0;right=0;bottom=0;html=1;" parent="LN7ajbvHa4iX7Mi3LsKq-546" vertex="1">
          <mxGeometry y="30" width="180" height="30" as="geometry" />
        </mxCell>
        <mxCell id="LN7ajbvHa4iX7Mi3LsKq-548" value="PK,FK1" style="shape=partialRectangle;connectable=0;fillColor=none;top=0;left=0;bottom=0;right=0;fontStyle=1;overflow=hidden;html=1;whiteSpace=wrap;" parent="LN7ajbvHa4iX7Mi3LsKq-547" vertex="1">
          <mxGeometry width="60" height="30" as="geometry">
            <mxRectangle width="60" height="30" as="alternateBounds" />
          </mxGeometry>
        </mxCell>
        <mxCell id="LN7ajbvHa4iX7Mi3LsKq-549" value="File" style="shape=partialRectangle;connectable=0;fillColor=none;top=0;left=0;bottom=0;right=0;align=left;spacingLeft=6;fontStyle=5;overflow=hidden;html=1;whiteSpace=wrap;" parent="LN7ajbvHa4iX7Mi3LsKq-547" vertex="1">
          <mxGeometry x="60" width="120" height="30" as="geometry">
            <mxRectangle width="120" height="30" as="alternateBounds" />
          </mxGeometry>
        </mxCell>
        <mxCell id="LN7ajbvHa4iX7Mi3LsKq-550" value="" style="shape=tableRow;horizontal=0;startSize=0;swimlaneHead=0;swimlaneBody=0;fillColor=none;collapsible=0;dropTarget=0;points=[[0,0.5],[1,0.5]];portConstraint=eastwest;top=0;left=0;right=0;bottom=1;html=1;" parent="LN7ajbvHa4iX7Mi3LsKq-546" vertex="1">
          <mxGeometry y="60" width="180" height="30" as="geometry" />
        </mxCell>
        <mxCell id="LN7ajbvHa4iX7Mi3LsKq-551" value="PK,FK2" style="shape=partialRectangle;connectable=0;fillColor=none;top=0;left=0;bottom=0;right=0;fontStyle=1;overflow=hidden;html=1;whiteSpace=wrap;" parent="LN7ajbvHa4iX7Mi3LsKq-550" vertex="1">
          <mxGeometry width="60" height="30" as="geometry">
            <mxRectangle width="60" height="30" as="alternateBounds" />
          </mxGeometry>
        </mxCell>
        <mxCell id="LN7ajbvHa4iX7Mi3LsKq-552" value="Biospecimen" style="shape=partialRectangle;connectable=0;fillColor=none;top=0;left=0;bottom=0;right=0;align=left;spacingLeft=6;fontStyle=5;overflow=hidden;html=1;whiteSpace=wrap;" parent="LN7ajbvHa4iX7Mi3LsKq-550" vertex="1">
          <mxGeometry x="60" width="120" height="30" as="geometry">
            <mxRectangle width="120" height="30" as="alternateBounds" />
          </mxGeometry>
        </mxCell>
        <mxCell id="LN7ajbvHa4iX7Mi3LsKq-572" value="Protein_Expression_File" style="shape=table;startSize=30;container=1;collapsible=1;childLayout=tableLayout;fixedRows=1;rowLines=0;fontStyle=1;align=center;resizeLast=1;html=1;whiteSpace=wrap;" parent="1" vertex="1">
          <mxGeometry x="1660" y="1887.5" width="180" height="120" as="geometry" />
        </mxCell>
        <mxCell id="LN7ajbvHa4iX7Mi3LsKq-573" value="" style="shape=tableRow;horizontal=0;startSize=0;swimlaneHead=0;swimlaneBody=0;fillColor=none;collapsible=0;dropTarget=0;points=[[0,0.5],[1,0.5]];portConstraint=eastwest;top=0;left=0;right=0;bottom=0;html=1;" parent="LN7ajbvHa4iX7Mi3LsKq-572" vertex="1">
          <mxGeometry y="30" width="180" height="30" as="geometry" />
        </mxCell>
        <mxCell id="LN7ajbvHa4iX7Mi3LsKq-574" value="PK,FK1" style="shape=partialRectangle;connectable=0;fillColor=none;top=0;left=0;bottom=0;right=0;fontStyle=1;overflow=hidden;html=1;whiteSpace=wrap;" parent="LN7ajbvHa4iX7Mi3LsKq-573" vertex="1">
          <mxGeometry width="60" height="30" as="geometry">
            <mxRectangle width="60" height="30" as="alternateBounds" />
          </mxGeometry>
        </mxCell>
        <mxCell id="LN7ajbvHa4iX7Mi3LsKq-575" value="File" style="shape=partialRectangle;connectable=0;fillColor=none;top=0;left=0;bottom=0;right=0;align=left;spacingLeft=6;fontStyle=5;overflow=hidden;html=1;whiteSpace=wrap;" parent="LN7ajbvHa4iX7Mi3LsKq-573" vertex="1">
          <mxGeometry x="60" width="120" height="30" as="geometry">
            <mxRectangle width="120" height="30" as="alternateBounds" />
          </mxGeometry>
        </mxCell>
        <mxCell id="LN7ajbvHa4iX7Mi3LsKq-576" value="" style="shape=tableRow;horizontal=0;startSize=0;swimlaneHead=0;swimlaneBody=0;fillColor=none;collapsible=0;dropTarget=0;points=[[0,0.5],[1,0.5]];portConstraint=eastwest;top=0;left=0;right=0;bottom=1;html=1;" parent="LN7ajbvHa4iX7Mi3LsKq-572" vertex="1">
          <mxGeometry y="60" width="180" height="30" as="geometry" />
        </mxCell>
        <mxCell id="LN7ajbvHa4iX7Mi3LsKq-577" value="PK,FK2" style="shape=partialRectangle;connectable=0;fillColor=none;top=0;left=0;bottom=0;right=0;fontStyle=1;overflow=hidden;html=1;whiteSpace=wrap;" parent="LN7ajbvHa4iX7Mi3LsKq-576" vertex="1">
          <mxGeometry width="60" height="30" as="geometry">
            <mxRectangle width="60" height="30" as="alternateBounds" />
          </mxGeometry>
        </mxCell>
        <mxCell id="LN7ajbvHa4iX7Mi3LsKq-578" value="Protein" style="shape=partialRectangle;connectable=0;fillColor=none;top=0;left=0;bottom=0;right=0;align=left;spacingLeft=6;fontStyle=5;overflow=hidden;html=1;whiteSpace=wrap;" parent="LN7ajbvHa4iX7Mi3LsKq-576" vertex="1">
          <mxGeometry x="60" width="120" height="30" as="geometry">
            <mxRectangle width="120" height="30" as="alternateBounds" />
          </mxGeometry>
        </mxCell>
        <mxCell id="LN7ajbvHa4iX7Mi3LsKq-579" value="" style="shape=tableRow;horizontal=0;startSize=0;swimlaneHead=0;swimlaneBody=0;fillColor=none;collapsible=0;dropTarget=0;points=[[0,0.5],[1,0.5]];portConstraint=eastwest;top=0;left=0;right=0;bottom=0;html=1;" parent="LN7ajbvHa4iX7Mi3LsKq-572" vertex="1">
          <mxGeometry y="90" width="180" height="30" as="geometry" />
        </mxCell>
        <mxCell id="LN7ajbvHa4iX7Mi3LsKq-580" value="" style="shape=partialRectangle;connectable=0;fillColor=none;top=0;left=0;bottom=0;right=0;editable=1;overflow=hidden;html=1;whiteSpace=wrap;" parent="LN7ajbvHa4iX7Mi3LsKq-579" vertex="1">
          <mxGeometry width="60" height="30" as="geometry">
            <mxRectangle width="60" height="30" as="alternateBounds" />
          </mxGeometry>
        </mxCell>
        <mxCell id="LN7ajbvHa4iX7Mi3LsKq-581" value="Expression" style="shape=partialRectangle;connectable=0;fillColor=none;top=0;left=0;bottom=0;right=0;align=left;spacingLeft=6;overflow=hidden;html=1;whiteSpace=wrap;" parent="LN7ajbvHa4iX7Mi3LsKq-579" vertex="1">
          <mxGeometry x="60" width="120" height="30" as="geometry">
            <mxRectangle width="120" height="30" as="alternateBounds" />
          </mxGeometry>
        </mxCell>
        <mxCell id="LN7ajbvHa4iX7Mi3LsKq-585" value="Gene_Expression_File" style="shape=table;startSize=30;container=1;collapsible=1;childLayout=tableLayout;fixedRows=1;rowLines=0;fontStyle=1;align=center;resizeLast=1;html=1;whiteSpace=wrap;" parent="1" vertex="1">
          <mxGeometry x="1660" y="2040" width="180" height="270" as="geometry" />
        </mxCell>
        <mxCell id="LN7ajbvHa4iX7Mi3LsKq-586" value="" style="shape=tableRow;horizontal=0;startSize=0;swimlaneHead=0;swimlaneBody=0;fillColor=none;collapsible=0;dropTarget=0;points=[[0,0.5],[1,0.5]];portConstraint=eastwest;top=0;left=0;right=0;bottom=0;html=1;" parent="LN7ajbvHa4iX7Mi3LsKq-585" vertex="1">
          <mxGeometry y="30" width="180" height="30" as="geometry" />
        </mxCell>
        <mxCell id="LN7ajbvHa4iX7Mi3LsKq-587" value="PK,FK1" style="shape=partialRectangle;connectable=0;fillColor=none;top=0;left=0;bottom=0;right=0;fontStyle=1;overflow=hidden;html=1;whiteSpace=wrap;" parent="LN7ajbvHa4iX7Mi3LsKq-586" vertex="1">
          <mxGeometry width="60" height="30" as="geometry">
            <mxRectangle width="60" height="30" as="alternateBounds" />
          </mxGeometry>
        </mxCell>
        <mxCell id="LN7ajbvHa4iX7Mi3LsKq-588" value="FIle" style="shape=partialRectangle;connectable=0;fillColor=none;top=0;left=0;bottom=0;right=0;align=left;spacingLeft=6;fontStyle=5;overflow=hidden;html=1;whiteSpace=wrap;" parent="LN7ajbvHa4iX7Mi3LsKq-586" vertex="1">
          <mxGeometry x="60" width="120" height="30" as="geometry">
            <mxRectangle width="120" height="30" as="alternateBounds" />
          </mxGeometry>
        </mxCell>
        <mxCell id="LN7ajbvHa4iX7Mi3LsKq-589" value="" style="shape=tableRow;horizontal=0;startSize=0;swimlaneHead=0;swimlaneBody=0;fillColor=none;collapsible=0;dropTarget=0;points=[[0,0.5],[1,0.5]];portConstraint=eastwest;top=0;left=0;right=0;bottom=1;html=1;" parent="LN7ajbvHa4iX7Mi3LsKq-585" vertex="1">
          <mxGeometry y="60" width="180" height="30" as="geometry" />
        </mxCell>
        <mxCell id="LN7ajbvHa4iX7Mi3LsKq-590" value="PK,FK2" style="shape=partialRectangle;connectable=0;fillColor=none;top=0;left=0;bottom=0;right=0;fontStyle=1;overflow=hidden;html=1;whiteSpace=wrap;" parent="LN7ajbvHa4iX7Mi3LsKq-589" vertex="1">
          <mxGeometry width="60" height="30" as="geometry">
            <mxRectangle width="60" height="30" as="alternateBounds" />
          </mxGeometry>
        </mxCell>
        <mxCell id="LN7ajbvHa4iX7Mi3LsKq-591" value="Gene" style="shape=partialRectangle;connectable=0;fillColor=none;top=0;left=0;bottom=0;right=0;align=left;spacingLeft=6;fontStyle=5;overflow=hidden;html=1;whiteSpace=wrap;" parent="LN7ajbvHa4iX7Mi3LsKq-589" vertex="1">
          <mxGeometry x="60" width="120" height="30" as="geometry">
            <mxRectangle width="120" height="30" as="alternateBounds" />
          </mxGeometry>
        </mxCell>
        <mxCell id="vzgwTtRD75kb0JKpq5gD-75" value="" style="shape=tableRow;horizontal=0;startSize=0;swimlaneHead=0;swimlaneBody=0;fillColor=none;collapsible=0;dropTarget=0;points=[[0,0.5],[1,0.5]];portConstraint=eastwest;top=0;left=0;right=0;bottom=0;" parent="LN7ajbvHa4iX7Mi3LsKq-585" vertex="1">
          <mxGeometry y="90" width="180" height="30" as="geometry" />
        </mxCell>
        <mxCell id="vzgwTtRD75kb0JKpq5gD-76" value="" style="shape=partialRectangle;connectable=0;fillColor=none;top=0;left=0;bottom=0;right=0;editable=1;overflow=hidden;" parent="vzgwTtRD75kb0JKpq5gD-75" vertex="1">
          <mxGeometry width="60" height="30" as="geometry">
            <mxRectangle width="60" height="30" as="alternateBounds" />
          </mxGeometry>
        </mxCell>
        <mxCell id="vzgwTtRD75kb0JKpq5gD-77" value="unstranded" style="shape=partialRectangle;connectable=0;fillColor=none;top=0;left=0;bottom=0;right=0;align=left;spacingLeft=6;overflow=hidden;" parent="vzgwTtRD75kb0JKpq5gD-75" vertex="1">
          <mxGeometry x="60" width="120" height="30" as="geometry">
            <mxRectangle width="120" height="30" as="alternateBounds" />
          </mxGeometry>
        </mxCell>
        <mxCell id="vzgwTtRD75kb0JKpq5gD-78" value="" style="shape=tableRow;horizontal=0;startSize=0;swimlaneHead=0;swimlaneBody=0;fillColor=none;collapsible=0;dropTarget=0;points=[[0,0.5],[1,0.5]];portConstraint=eastwest;top=0;left=0;right=0;bottom=0;" parent="LN7ajbvHa4iX7Mi3LsKq-585" vertex="1">
          <mxGeometry y="120" width="180" height="30" as="geometry" />
        </mxCell>
        <mxCell id="vzgwTtRD75kb0JKpq5gD-79" value="" style="shape=partialRectangle;connectable=0;fillColor=none;top=0;left=0;bottom=0;right=0;editable=1;overflow=hidden;" parent="vzgwTtRD75kb0JKpq5gD-78" vertex="1">
          <mxGeometry width="60" height="30" as="geometry">
            <mxRectangle width="60" height="30" as="alternateBounds" />
          </mxGeometry>
        </mxCell>
        <mxCell id="vzgwTtRD75kb0JKpq5gD-80" value="stranded_first" style="shape=partialRectangle;connectable=0;fillColor=none;top=0;left=0;bottom=0;right=0;align=left;spacingLeft=6;overflow=hidden;" parent="vzgwTtRD75kb0JKpq5gD-78" vertex="1">
          <mxGeometry x="60" width="120" height="30" as="geometry">
            <mxRectangle width="120" height="30" as="alternateBounds" />
          </mxGeometry>
        </mxCell>
        <mxCell id="vzgwTtRD75kb0JKpq5gD-72" value="" style="shape=tableRow;horizontal=0;startSize=0;swimlaneHead=0;swimlaneBody=0;fillColor=none;collapsible=0;dropTarget=0;points=[[0,0.5],[1,0.5]];portConstraint=eastwest;top=0;left=0;right=0;bottom=0;" parent="LN7ajbvHa4iX7Mi3LsKq-585" vertex="1">
          <mxGeometry y="150" width="180" height="30" as="geometry" />
        </mxCell>
        <mxCell id="vzgwTtRD75kb0JKpq5gD-73" value="" style="shape=partialRectangle;connectable=0;fillColor=none;top=0;left=0;bottom=0;right=0;editable=1;overflow=hidden;" parent="vzgwTtRD75kb0JKpq5gD-72" vertex="1">
          <mxGeometry width="60" height="30" as="geometry">
            <mxRectangle width="60" height="30" as="alternateBounds" />
          </mxGeometry>
        </mxCell>
        <mxCell id="vzgwTtRD75kb0JKpq5gD-74" value="stranded_second" style="shape=partialRectangle;connectable=0;fillColor=none;top=0;left=0;bottom=0;right=0;align=left;spacingLeft=6;overflow=hidden;" parent="vzgwTtRD75kb0JKpq5gD-72" vertex="1">
          <mxGeometry x="60" width="120" height="30" as="geometry">
            <mxRectangle width="120" height="30" as="alternateBounds" />
          </mxGeometry>
        </mxCell>
        <mxCell id="LN7ajbvHa4iX7Mi3LsKq-592" value="" style="shape=tableRow;horizontal=0;startSize=0;swimlaneHead=0;swimlaneBody=0;fillColor=none;collapsible=0;dropTarget=0;points=[[0,0.5],[1,0.5]];portConstraint=eastwest;top=0;left=0;right=0;bottom=0;html=1;" parent="LN7ajbvHa4iX7Mi3LsKq-585" vertex="1">
          <mxGeometry y="180" width="180" height="30" as="geometry" />
        </mxCell>
        <mxCell id="LN7ajbvHa4iX7Mi3LsKq-593" value="" style="shape=partialRectangle;connectable=0;fillColor=none;top=0;left=0;bottom=0;right=0;editable=1;overflow=hidden;html=1;whiteSpace=wrap;" parent="LN7ajbvHa4iX7Mi3LsKq-592" vertex="1">
          <mxGeometry width="60" height="30" as="geometry">
            <mxRectangle width="60" height="30" as="alternateBounds" />
          </mxGeometry>
        </mxCell>
        <mxCell id="LN7ajbvHa4iX7Mi3LsKq-594" value="tpm" style="shape=partialRectangle;connectable=0;fillColor=none;top=0;left=0;bottom=0;right=0;align=left;spacingLeft=6;overflow=hidden;html=1;whiteSpace=wrap;" parent="LN7ajbvHa4iX7Mi3LsKq-592" vertex="1">
          <mxGeometry x="60" width="120" height="30" as="geometry">
            <mxRectangle width="120" height="30" as="alternateBounds" />
          </mxGeometry>
        </mxCell>
        <mxCell id="vzgwTtRD75kb0JKpq5gD-81" value="" style="shape=tableRow;horizontal=0;startSize=0;swimlaneHead=0;swimlaneBody=0;fillColor=none;collapsible=0;dropTarget=0;points=[[0,0.5],[1,0.5]];portConstraint=eastwest;top=0;left=0;right=0;bottom=0;" parent="LN7ajbvHa4iX7Mi3LsKq-585" vertex="1">
          <mxGeometry y="210" width="180" height="30" as="geometry" />
        </mxCell>
        <mxCell id="vzgwTtRD75kb0JKpq5gD-82" value="" style="shape=partialRectangle;connectable=0;fillColor=none;top=0;left=0;bottom=0;right=0;editable=1;overflow=hidden;" parent="vzgwTtRD75kb0JKpq5gD-81" vertex="1">
          <mxGeometry width="60" height="30" as="geometry">
            <mxRectangle width="60" height="30" as="alternateBounds" />
          </mxGeometry>
        </mxCell>
        <mxCell id="vzgwTtRD75kb0JKpq5gD-83" value="fpkm" style="shape=partialRectangle;connectable=0;fillColor=none;top=0;left=0;bottom=0;right=0;align=left;spacingLeft=6;overflow=hidden;" parent="vzgwTtRD75kb0JKpq5gD-81" vertex="1">
          <mxGeometry x="60" width="120" height="30" as="geometry">
            <mxRectangle width="120" height="30" as="alternateBounds" />
          </mxGeometry>
        </mxCell>
        <mxCell id="LN7ajbvHa4iX7Mi3LsKq-595" value="" style="shape=tableRow;horizontal=0;startSize=0;swimlaneHead=0;swimlaneBody=0;fillColor=none;collapsible=0;dropTarget=0;points=[[0,0.5],[1,0.5]];portConstraint=eastwest;top=0;left=0;right=0;bottom=0;html=1;" parent="LN7ajbvHa4iX7Mi3LsKq-585" vertex="1">
          <mxGeometry y="240" width="180" height="30" as="geometry" />
        </mxCell>
        <mxCell id="LN7ajbvHa4iX7Mi3LsKq-596" value="" style="shape=partialRectangle;connectable=0;fillColor=none;top=0;left=0;bottom=0;right=0;editable=1;overflow=hidden;html=1;whiteSpace=wrap;" parent="LN7ajbvHa4iX7Mi3LsKq-595" vertex="1">
          <mxGeometry width="60" height="30" as="geometry">
            <mxRectangle width="60" height="30" as="alternateBounds" />
          </mxGeometry>
        </mxCell>
        <mxCell id="LN7ajbvHa4iX7Mi3LsKq-597" value="fpkm_uq" style="shape=partialRectangle;connectable=0;fillColor=none;top=0;left=0;bottom=0;right=0;align=left;spacingLeft=6;overflow=hidden;html=1;whiteSpace=wrap;" parent="LN7ajbvHa4iX7Mi3LsKq-595" vertex="1">
          <mxGeometry x="60" width="120" height="30" as="geometry">
            <mxRectangle width="120" height="30" as="alternateBounds" />
          </mxGeometry>
        </mxCell>
        <mxCell id="LN7ajbvHa4iX7Mi3LsKq-598" style="edgeStyle=orthogonalEdgeStyle;rounded=0;orthogonalLoop=1;jettySize=auto;html=1;entryX=1;entryY=0.5;entryDx=0;entryDy=0;" parent="1" source="LN7ajbvHa4iX7Mi3LsKq-188" target="LN7ajbvHa4iX7Mi3LsKq-576" edge="1">
          <mxGeometry relative="1" as="geometry" />
        </mxCell>
        <mxCell id="LN7ajbvHa4iX7Mi3LsKq-599" style="edgeStyle=orthogonalEdgeStyle;rounded=0;orthogonalLoop=1;jettySize=auto;html=1;entryX=1;entryY=0.5;entryDx=0;entryDy=0;" parent="1" source="LN7ajbvHa4iX7Mi3LsKq-201" target="LN7ajbvHa4iX7Mi3LsKq-589" edge="1">
          <mxGeometry relative="1" as="geometry" />
        </mxCell>
        <mxCell id="LN7ajbvHa4iX7Mi3LsKq-600" style="edgeStyle=orthogonalEdgeStyle;rounded=0;orthogonalLoop=1;jettySize=auto;html=1;entryX=0;entryY=0.5;entryDx=0;entryDy=0;" parent="1" source="LN7ajbvHa4iX7Mi3LsKq-253" target="LN7ajbvHa4iX7Mi3LsKq-573" edge="1">
          <mxGeometry relative="1" as="geometry" />
        </mxCell>
        <mxCell id="LN7ajbvHa4iX7Mi3LsKq-601" style="edgeStyle=orthogonalEdgeStyle;rounded=0;orthogonalLoop=1;jettySize=auto;html=1;entryX=0;entryY=0.5;entryDx=0;entryDy=0;" parent="1" source="LN7ajbvHa4iX7Mi3LsKq-253" target="LN7ajbvHa4iX7Mi3LsKq-586" edge="1">
          <mxGeometry relative="1" as="geometry">
            <Array as="points">
              <mxPoint x="1570" y="2035" />
              <mxPoint x="1570" y="2085" />
            </Array>
          </mxGeometry>
        </mxCell>
        <mxCell id="LN7ajbvHa4iX7Mi3LsKq-603" style="edgeStyle=orthogonalEdgeStyle;rounded=0;orthogonalLoop=1;jettySize=auto;html=1;entryX=1;entryY=0.5;entryDx=0;entryDy=0;" parent="1" source="LN7ajbvHa4iX7Mi3LsKq-253" target="LN7ajbvHa4iX7Mi3LsKq-547" edge="1">
          <mxGeometry relative="1" as="geometry">
            <Array as="points">
              <mxPoint x="1270" y="2035" />
              <mxPoint x="1270" y="1937" />
            </Array>
          </mxGeometry>
        </mxCell>
        <mxCell id="LN7ajbvHa4iX7Mi3LsKq-604" style="edgeStyle=orthogonalEdgeStyle;rounded=0;orthogonalLoop=1;jettySize=auto;html=1;entryX=0;entryY=0.5;entryDx=0;entryDy=0;" parent="1" source="LN7ajbvHa4iX7Mi3LsKq-383" target="LN7ajbvHa4iX7Mi3LsKq-550" edge="1">
          <mxGeometry relative="1" as="geometry">
            <Array as="points">
              <mxPoint x="1560" y="1335" />
              <mxPoint x="1560" y="1503" />
              <mxPoint x="890" y="1503" />
              <mxPoint x="890" y="1967" />
            </Array>
          </mxGeometry>
        </mxCell>
        <mxCell id="G5Dd-7IOfGYtY5oB0d5u-4" style="edgeStyle=orthogonalEdgeStyle;rounded=0;orthogonalLoop=1;jettySize=auto;html=1;entryX=0;entryY=0.5;entryDx=0;entryDy=0;" parent="1" source="LN7ajbvHa4iX7Mi3LsKq-435" target="LN7ajbvHa4iX7Mi3LsKq-569" edge="1">
          <mxGeometry relative="1" as="geometry">
            <Array as="points">
              <mxPoint x="1590" y="1330" />
              <mxPoint x="1590" y="1200" />
              <mxPoint x="870" y="1200" />
              <mxPoint x="870" y="2000" />
              <mxPoint x="1250" y="2000" />
              <mxPoint x="1250" y="2185" />
            </Array>
          </mxGeometry>
        </mxCell>
        <mxCell id="MzKUODoRHFMMzJcSqZbJ-19" value="" style="rounded=1;absoluteArcSize=1;html=1;arcSize=10;" parent="1" vertex="1">
          <mxGeometry x="-655.42" y="1263" width="1321" height="250" as="geometry" />
        </mxCell>
        <mxCell id="MzKUODoRHFMMzJcSqZbJ-20" value="BIOSPECIMEN" style="html=1;shape=mxgraph.er.anchor;whiteSpace=wrap;" parent="MzKUODoRHFMMzJcSqZbJ-19" vertex="1">
          <mxGeometry width="151.2595419847328" height="250" as="geometry" />
        </mxCell>
        <mxCell id="bxtvWOW6OA86Dgw1eZwp-8" value="Sample" style="whiteSpace=wrap;html=1;align=center;" parent="MzKUODoRHFMMzJcSqZbJ-19" vertex="1">
          <mxGeometry x="164.36870229007633" y="55" width="100.83969465648855" height="40" as="geometry" />
        </mxCell>
        <mxCell id="bxtvWOW6OA86Dgw1eZwp-9" value="Portion" style="whiteSpace=wrap;html=1;align=center;" parent="MzKUODoRHFMMzJcSqZbJ-19" vertex="1">
          <mxGeometry x="517.3076335877862" y="54" width="100.83969465648855" height="40" as="geometry" />
        </mxCell>
        <mxCell id="bxtvWOW6OA86Dgw1eZwp-10" value="Analyte" style="whiteSpace=wrap;html=1;align=center;" parent="MzKUODoRHFMMzJcSqZbJ-19" vertex="1">
          <mxGeometry x="850.0786259541984" y="54" width="100.83969465648855" height="40" as="geometry" />
        </mxCell>
        <mxCell id="bxtvWOW6OA86Dgw1eZwp-11" value="Aliquote" style="whiteSpace=wrap;html=1;align=center;" parent="MzKUODoRHFMMzJcSqZbJ-19" vertex="1">
          <mxGeometry x="1205.1603053435115" y="55" width="100.83969465648855" height="40" as="geometry" />
        </mxCell>
        <mxCell id="bxtvWOW6OA86Dgw1eZwp-20" value="Separazione_1a" style="shape=rhombus;perimeter=rhombusPerimeter;whiteSpace=wrap;html=1;align=center;" parent="MzKUODoRHFMMzJcSqZbJ-19" vertex="1">
          <mxGeometry x="335.79618320610683" y="45" width="121.00763358778624" height="60" as="geometry" />
        </mxCell>
        <mxCell id="bxtvWOW6OA86Dgw1eZwp-21" style="edgeStyle=orthogonalEdgeStyle;rounded=0;orthogonalLoop=1;jettySize=auto;html=1;entryX=0;entryY=0.5;entryDx=0;entryDy=0;" parent="MzKUODoRHFMMzJcSqZbJ-19" source="bxtvWOW6OA86Dgw1eZwp-8" target="bxtvWOW6OA86Dgw1eZwp-20" edge="1">
          <mxGeometry relative="1" as="geometry" />
        </mxCell>
        <mxCell id="bxtvWOW6OA86Dgw1eZwp-22" style="edgeStyle=orthogonalEdgeStyle;rounded=0;orthogonalLoop=1;jettySize=auto;html=1;entryX=1;entryY=0.5;entryDx=0;entryDy=0;exitX=0;exitY=0.5;exitDx=0;exitDy=0;" parent="MzKUODoRHFMMzJcSqZbJ-19" source="bxtvWOW6OA86Dgw1eZwp-9" target="bxtvWOW6OA86Dgw1eZwp-20" edge="1">
          <mxGeometry relative="1" as="geometry" />
        </mxCell>
        <mxCell id="bxtvWOW6OA86Dgw1eZwp-23" value="Separazione_2" style="shape=rhombus;perimeter=rhombusPerimeter;whiteSpace=wrap;html=1;align=center;" parent="MzKUODoRHFMMzJcSqZbJ-19" vertex="1">
          <mxGeometry x="678.6511450381679" y="45" width="121.00763358778624" height="60" as="geometry" />
        </mxCell>
        <mxCell id="bxtvWOW6OA86Dgw1eZwp-24" style="edgeStyle=orthogonalEdgeStyle;rounded=0;orthogonalLoop=1;jettySize=auto;html=1;entryX=0;entryY=0.5;entryDx=0;entryDy=0;exitX=1;exitY=0.5;exitDx=0;exitDy=0;" parent="MzKUODoRHFMMzJcSqZbJ-19" source="bxtvWOW6OA86Dgw1eZwp-9" target="bxtvWOW6OA86Dgw1eZwp-23" edge="1">
          <mxGeometry relative="1" as="geometry" />
        </mxCell>
        <mxCell id="bxtvWOW6OA86Dgw1eZwp-25" style="edgeStyle=orthogonalEdgeStyle;rounded=0;orthogonalLoop=1;jettySize=auto;html=1;entryX=1;entryY=0.5;entryDx=0;entryDy=0;exitX=0;exitY=0.5;exitDx=0;exitDy=0;" parent="MzKUODoRHFMMzJcSqZbJ-19" source="bxtvWOW6OA86Dgw1eZwp-10" target="bxtvWOW6OA86Dgw1eZwp-23" edge="1">
          <mxGeometry relative="1" as="geometry" />
        </mxCell>
        <mxCell id="bxtvWOW6OA86Dgw1eZwp-26" value="Separazione_3" style="shape=rhombus;perimeter=rhombusPerimeter;whiteSpace=wrap;html=1;align=center;" parent="MzKUODoRHFMMzJcSqZbJ-19" vertex="1">
          <mxGeometry x="1005.3717557251907" y="45" width="121.00763358778624" height="60" as="geometry" />
        </mxCell>
        <mxCell id="bxtvWOW6OA86Dgw1eZwp-27" style="edgeStyle=orthogonalEdgeStyle;rounded=0;orthogonalLoop=1;jettySize=auto;html=1;entryX=0;entryY=0.5;entryDx=0;entryDy=0;exitX=1;exitY=0.5;exitDx=0;exitDy=0;" parent="MzKUODoRHFMMzJcSqZbJ-19" source="bxtvWOW6OA86Dgw1eZwp-10" target="bxtvWOW6OA86Dgw1eZwp-26" edge="1">
          <mxGeometry relative="1" as="geometry" />
        </mxCell>
        <mxCell id="bxtvWOW6OA86Dgw1eZwp-28" style="edgeStyle=orthogonalEdgeStyle;rounded=0;orthogonalLoop=1;jettySize=auto;html=1;entryX=1;entryY=0.5;entryDx=0;entryDy=0;exitX=0;exitY=0.5;exitDx=0;exitDy=0;" parent="MzKUODoRHFMMzJcSqZbJ-19" source="bxtvWOW6OA86Dgw1eZwp-11" target="bxtvWOW6OA86Dgw1eZwp-26" edge="1">
          <mxGeometry relative="1" as="geometry" />
        </mxCell>
        <mxCell id="bxtvWOW6OA86Dgw1eZwp-35" value="1,1" style="text;html=1;align=center;verticalAlign=middle;resizable=0;points=[];autosize=1;strokeColor=none;fillColor=none;" parent="MzKUODoRHFMMzJcSqZbJ-19" vertex="1">
          <mxGeometry x="484.030534351145" y="45" width="40" height="30" as="geometry" />
        </mxCell>
        <mxCell id="bxtvWOW6OA86Dgw1eZwp-36" value="0,n" style="text;html=1;align=center;verticalAlign=middle;resizable=0;points=[];autosize=1;strokeColor=none;fillColor=none;" parent="MzKUODoRHFMMzJcSqZbJ-19" vertex="1">
          <mxGeometry x="620.1641221374045" y="45" width="40" height="30" as="geometry" />
        </mxCell>
        <mxCell id="bxtvWOW6OA86Dgw1eZwp-37" value="1,1" style="text;html=1;align=center;verticalAlign=middle;resizable=0;points=[];autosize=1;strokeColor=none;fillColor=none;" parent="MzKUODoRHFMMzJcSqZbJ-19" vertex="1">
          <mxGeometry x="809.742748091603" y="45" width="40" height="30" as="geometry" />
        </mxCell>
        <mxCell id="bxtvWOW6OA86Dgw1eZwp-38" value="0,n" style="text;html=1;align=center;verticalAlign=middle;resizable=0;points=[];autosize=1;strokeColor=none;fillColor=none;" parent="MzKUODoRHFMMzJcSqZbJ-19" vertex="1">
          <mxGeometry x="950.9183206106869" y="45" width="40" height="30" as="geometry" />
        </mxCell>
        <mxCell id="bxtvWOW6OA86Dgw1eZwp-39" value="1,1" style="text;html=1;align=center;verticalAlign=middle;resizable=0;points=[];autosize=1;strokeColor=none;fillColor=none;" parent="MzKUODoRHFMMzJcSqZbJ-19" vertex="1">
          <mxGeometry x="1183.8832061068701" y="45" width="40" height="30" as="geometry" />
        </mxCell>
        <mxCell id="MzKUODoRHFMMzJcSqZbJ-1" value="Slide" style="whiteSpace=wrap;html=1;align=center;" parent="MzKUODoRHFMMzJcSqZbJ-19" vertex="1">
          <mxGeometry x="517.3076335877862" y="165" width="100.83969465648855" height="40" as="geometry" />
        </mxCell>
        <mxCell id="MzKUODoRHFMMzJcSqZbJ-6" value="0,n" style="text;html=1;align=center;verticalAlign=middle;resizable=0;points=[];autosize=1;strokeColor=none;fillColor=none;" parent="MzKUODoRHFMMzJcSqZbJ-19" vertex="1">
          <mxGeometry x="265.20839694656485" y="40" width="40" height="30" as="geometry" />
        </mxCell>
        <mxCell id="MzKUODoRHFMMzJcSqZbJ-8" value="Separazione_1b" style="shape=rhombus;perimeter=rhombusPerimeter;whiteSpace=wrap;html=1;align=center;" parent="MzKUODoRHFMMzJcSqZbJ-19" vertex="1">
          <mxGeometry x="335.79618320610683" y="155" width="121.00763358778624" height="60" as="geometry" />
        </mxCell>
        <mxCell id="MzKUODoRHFMMzJcSqZbJ-10" style="edgeStyle=orthogonalEdgeStyle;rounded=0;orthogonalLoop=1;jettySize=auto;html=1;entryX=0;entryY=0.5;entryDx=0;entryDy=0;" parent="MzKUODoRHFMMzJcSqZbJ-19" source="bxtvWOW6OA86Dgw1eZwp-8" target="MzKUODoRHFMMzJcSqZbJ-8" edge="1">
          <mxGeometry relative="1" as="geometry" />
        </mxCell>
        <mxCell id="MzKUODoRHFMMzJcSqZbJ-14" style="edgeStyle=orthogonalEdgeStyle;rounded=0;orthogonalLoop=1;jettySize=auto;html=1;entryX=1;entryY=0.5;entryDx=0;entryDy=0;" parent="MzKUODoRHFMMzJcSqZbJ-19" source="MzKUODoRHFMMzJcSqZbJ-1" target="MzKUODoRHFMMzJcSqZbJ-8" edge="1">
          <mxGeometry relative="1" as="geometry" />
        </mxCell>
        <mxCell id="MzKUODoRHFMMzJcSqZbJ-16" value="" style="shape=stencil(fZbdcgIhDIWfZm8zQAg/17Z9j85U606tdqz9e/tmZ0c0uJ47xP0I5JwEBl59bp8/1kNwn6fj4W39M76ctgM/DCGM++36OJ50NPDjwKvN4bh+PR6+9i/z74/n6ctp9H74nlb4nbmSKZeJCu5vngmZ6jzzNAO7cX8FVKEsBuBKrgKg9oAE8gkCbLeUhEoEQKSUDZDLeWYRKIl8MEDRmHwfyBrBG6Amyu4+kDxxMoB3jhwgYu7TVAsVkFcWCs4CTBEoF4RctKeOxHIf8IXYpikHikAIf+MNUW94AGSSaoAoFIE3AlOyeWU+p2E5S9yfQZcQILVuQOwZdJNoS9Ls3wA5u2XZTIHECqeJ9kDpSaauRiNVcAY1QhdBzeLBli5WazpkSsBLV25uRaqWRyFawTQzRRIQYirJzq5atkBqLfouwqUxLBepthWb10vrWZY6UOAeyKCCtDV625mm9gmUC4Wc3VLJMMIE1BsA2FW9JraVlQB7n3c9oMKhCLEvIM1zBPZ25/umNQ1tVEC2G+fFCC8g398O2hNQuQlVu752DBfA+q0ptnqO5JFmeuIuo9DY7KjY71UxdJV4EntifPWorW++R/dC4t7V3DlIB5cHx2bc7eb3yvX//QNFp+bHDT/+Aw==);lineShape=1;" parent="MzKUODoRHFMMzJcSqZbJ-19" vertex="1">
          <mxGeometry x="312.46990555183993" y="74.87531245851915" width="4.711774838904198" height="4.665236216357698" as="geometry" />
        </mxCell>
        <mxCell id="MzKUODoRHFMMzJcSqZbJ-17" value="" style="shape=stencil(lVZJcttADHwNr6gZYNaz4/zDVZYjVhTJJctJ/HuDYSgJkNmJb1zQM42tgUHuXrYPz5uBw8vpePi++TU+nraDfBmYx/12cxxP+jTI/SB3T4fj5tvx8Lp/nN+fHybL6enH4ed0wu8ZF0OgECYYh7e/n4RK+vPl64zYjfsrRG/UuwFwIo4AkClFA5BOpawDWqZsKeVCAm6oQs1SKpUa8KEEKpZS0zC0dQBnEkup9yVuHwJiJ6k2rJdIf4wQkuKvEBCmSp2tfaUInNa0OheEMvA5ULMeNHUZnH9TSC1RAFmLFGzSqp7P6/Zp+Xu2T5QrKCNK7vxIMQM+eoHYKuoUQcYmj23GSoOto1XUs7+hCUiZxsjmoDJlBEjUbRJqoQSKSOqS03PWIjHIggLY+tAKcQeAvDA+153mAVFiT0kVRAAl7YRoKalGQUAkab7VGioNJSAeUAFABU48I9Q7iZojlBZJW+md7OzDcuNab7pezlRBbwbKN/oIK5ua7YSqpQ5yXG7sGfcmL5141TkFictnAVPnWJezCgiQx9QoWx/SP4aOLGV/noMZDs5JfixgKlw0B1UubCPEAPVFAU7jK0ybDtpk604bA7isVdBsFjQGiI/qpz0/UgLnq1Y5QQ3L2F3bLFJy9mgmN911xJ+PdiNetPPCH/FRYYvs4hNAfHTCp+riz8i++/MrrAe17y7+2vdIhz69Pv4PQh8u++rTuNvN6+71f7/f6qd5N5b7dw==);lineShape=1;" parent="MzKUODoRHFMMzJcSqZbJ-19" vertex="1">
          <mxGeometry x="301.76119778044136" y="74.82727242191459" width="15.035218549629068" height="17.75725530883051" as="geometry" />
        </mxCell>
        <mxCell id="3CzU7pItrZiahojDzi_F-1" value="1,1" style="text;html=1;align=center;verticalAlign=middle;resizable=0;points=[];autosize=1;strokeColor=none;fillColor=none;" parent="MzKUODoRHFMMzJcSqZbJ-19" vertex="1">
          <mxGeometry x="171" y="94" width="40" height="30" as="geometry" />
        </mxCell>
        <mxCell id="3CzU7pItrZiahojDzi_F-2" value="1,1" style="text;html=1;align=center;verticalAlign=middle;resizable=0;points=[];autosize=1;strokeColor=none;fillColor=none;" parent="MzKUODoRHFMMzJcSqZbJ-19" vertex="1">
          <mxGeometry x="211" y="95" width="40" height="30" as="geometry" />
        </mxCell>
        <mxCell id="3CzU7pItrZiahojDzi_F-3" value="0,n" style="text;html=1;align=center;verticalAlign=middle;resizable=0;points=[];autosize=1;strokeColor=none;fillColor=none;" parent="MzKUODoRHFMMzJcSqZbJ-19" vertex="1">
          <mxGeometry x="261.76" y="90" width="40" height="30" as="geometry" />
        </mxCell>
        <mxCell id="3CzU7pItrZiahojDzi_F-13" value="1,1" style="text;html=1;align=center;verticalAlign=middle;resizable=0;points=[];autosize=1;strokeColor=none;fillColor=none;" parent="MzKUODoRHFMMzJcSqZbJ-19" vertex="1">
          <mxGeometry x="477.30999999999995" y="155" width="40" height="30" as="geometry" />
        </mxCell>
        <mxCell id="MzKUODoRHFMMzJcSqZbJ-33" style="edgeStyle=orthogonalEdgeStyle;rounded=0;orthogonalLoop=1;jettySize=auto;html=1;" parent="1" source="bxtvWOW6OA86Dgw1eZwp-8" target="LN7ajbvHa4iX7Mi3LsKq-9" edge="1">
          <mxGeometry relative="1" as="geometry" />
        </mxCell>
        <mxCell id="MzKUODoRHFMMzJcSqZbJ-34" style="edgeStyle=orthogonalEdgeStyle;rounded=0;orthogonalLoop=1;jettySize=auto;html=1;entryX=0.5;entryY=0;entryDx=0;entryDy=0;" parent="1" source="bxtvWOW6OA86Dgw1eZwp-8" target="LN7ajbvHa4iX7Mi3LsKq-4" edge="1">
          <mxGeometry relative="1" as="geometry" />
        </mxCell>
        <mxCell id="MzKUODoRHFMMzJcSqZbJ-39" style="edgeStyle=orthogonalEdgeStyle;rounded=0;orthogonalLoop=1;jettySize=auto;html=1;entryX=0;entryY=0.5;entryDx=0;entryDy=0;" parent="1" source="MzKUODoRHFMMzJcSqZbJ-36" target="MzKUODoRHFMMzJcSqZbJ-19" edge="1">
          <mxGeometry relative="1" as="geometry">
            <Array as="points">
              <mxPoint x="-724.42" y="1388" />
            </Array>
          </mxGeometry>
        </mxCell>
        <mxCell id="MzKUODoRHFMMzJcSqZbJ-36" value="Biospecimen Type" style="whiteSpace=wrap;html=1;align=center;" parent="1" vertex="1">
          <mxGeometry x="-774.4200000000002" y="1612.5" width="100" height="40" as="geometry" />
        </mxCell>
        <mxCell id="MzKUODoRHFMMzJcSqZbJ-37" value="1,1" style="text;html=1;align=center;verticalAlign=middle;resizable=0;points=[];autosize=1;strokeColor=none;fillColor=none;" parent="1" vertex="1">
          <mxGeometry x="-694.42" y="1391" width="40" height="30" as="geometry" />
        </mxCell>
        <mxCell id="MzKUODoRHFMMzJcSqZbJ-38" value="0,n" style="text;html=1;align=center;verticalAlign=middle;resizable=0;points=[];autosize=1;strokeColor=none;fillColor=none;" parent="1" vertex="1">
          <mxGeometry x="-724.42" y="1581" width="40" height="30" as="geometry" />
        </mxCell>
        <mxCell id="MzKUODoRHFMMzJcSqZbJ-41" value="1,1" style="text;html=1;align=center;verticalAlign=middle;resizable=0;points=[];autosize=1;strokeColor=none;fillColor=none;" parent="1" vertex="1">
          <mxGeometry x="665.58" y="1353" width="40" height="30" as="geometry" />
        </mxCell>
        <mxCell id="MzKUODoRHFMMzJcSqZbJ-44" style="edgeStyle=orthogonalEdgeStyle;rounded=0;orthogonalLoop=1;jettySize=auto;html=1;entryX=0;entryY=0.5;entryDx=0;entryDy=0;" parent="1" source="MzKUODoRHFMMzJcSqZbJ-42" target="5YIIH4ySnnkuUXp5CgPr-51" edge="1">
          <mxGeometry relative="1" as="geometry" />
        </mxCell>
        <mxCell id="MzKUODoRHFMMzJcSqZbJ-42" value="Gene Type" style="whiteSpace=wrap;html=1;align=center;" parent="1" vertex="1">
          <mxGeometry x="-696.5" y="1811.5" width="100" height="40" as="geometry" />
        </mxCell>
        <mxCell id="MzKUODoRHFMMzJcSqZbJ-50" style="edgeStyle=orthogonalEdgeStyle;rounded=0;orthogonalLoop=1;jettySize=auto;html=1;entryX=0.5;entryY=1;entryDx=0;entryDy=0;" parent="1" source="MzKUODoRHFMMzJcSqZbJ-45" target="5YIIH4ySnnkuUXp5CgPr-41" edge="1">
          <mxGeometry relative="1" as="geometry">
            <Array as="points">
              <mxPoint x="173.5" y="2002" />
              <mxPoint x="5.5" y="2002" />
            </Array>
          </mxGeometry>
        </mxCell>
        <mxCell id="MzKUODoRHFMMzJcSqZbJ-45" value="Data Categpry" style="whiteSpace=wrap;html=1;align=center;" parent="1" vertex="1">
          <mxGeometry x="123.5" y="2082" width="100" height="40" as="geometry" />
        </mxCell>
        <mxCell id="MzKUODoRHFMMzJcSqZbJ-49" style="edgeStyle=orthogonalEdgeStyle;rounded=0;orthogonalLoop=1;jettySize=auto;html=1;" parent="1" source="MzKUODoRHFMMzJcSqZbJ-46" edge="1">
          <mxGeometry relative="1" as="geometry">
            <mxPoint x="5.5" y="1892" as="targetPoint" />
          </mxGeometry>
        </mxCell>
        <mxCell id="MzKUODoRHFMMzJcSqZbJ-46" value="Data Type" style="whiteSpace=wrap;html=1;align=center;" parent="1" vertex="1">
          <mxGeometry x="-44.5" y="2082" width="100" height="40" as="geometry" />
        </mxCell>
        <mxCell id="MzKUODoRHFMMzJcSqZbJ-48" style="edgeStyle=orthogonalEdgeStyle;rounded=0;orthogonalLoop=1;jettySize=auto;html=1;" parent="1" source="MzKUODoRHFMMzJcSqZbJ-47" target="5YIIH4ySnnkuUXp5CgPr-41" edge="1">
          <mxGeometry relative="1" as="geometry">
            <Array as="points">
              <mxPoint x="-176.5" y="2002" />
              <mxPoint x="5.5" y="2002" />
            </Array>
          </mxGeometry>
        </mxCell>
        <mxCell id="MzKUODoRHFMMzJcSqZbJ-47" value="Experimental Strategy" style="whiteSpace=wrap;html=1;align=center;" parent="1" vertex="1">
          <mxGeometry x="-226.5" y="2082" width="100" height="40" as="geometry" />
        </mxCell>
        <mxCell id="3CzU7pItrZiahojDzi_F-5" value="0,n" style="text;html=1;align=center;verticalAlign=middle;resizable=0;points=[];autosize=1;strokeColor=none;fillColor=none;" parent="1" vertex="1">
          <mxGeometry x="-599.42" y="1829.5" width="40" height="30" as="geometry" />
        </mxCell>
        <mxCell id="3CzU7pItrZiahojDzi_F-6" value="1,1" style="text;html=1;align=center;verticalAlign=middle;resizable=0;points=[];autosize=1;strokeColor=none;fillColor=none;" parent="1" vertex="1">
          <mxGeometry x="-479.42" y="1830" width="40" height="30" as="geometry" />
        </mxCell>
        <mxCell id="3CzU7pItrZiahojDzi_F-9" value="0,n" style="text;html=1;align=center;verticalAlign=middle;resizable=0;points=[];autosize=1;strokeColor=none;fillColor=none;" parent="1" vertex="1">
          <mxGeometry x="-186.5" y="2050" width="40" height="30" as="geometry" />
        </mxCell>
        <mxCell id="3CzU7pItrZiahojDzi_F-10" value="0,n" style="text;html=1;align=center;verticalAlign=middle;resizable=0;points=[];autosize=1;strokeColor=none;fillColor=none;" parent="1" vertex="1">
          <mxGeometry x="3.5" y="2050" width="40" height="30" as="geometry" />
        </mxCell>
        <mxCell id="3CzU7pItrZiahojDzi_F-11" value="0,n" style="text;html=1;align=center;verticalAlign=middle;resizable=0;points=[];autosize=1;strokeColor=none;fillColor=none;" parent="1" vertex="1">
          <mxGeometry x="163.5" y="2050" width="40" height="30" as="geometry" />
        </mxCell>
        <mxCell id="3CzU7pItrZiahojDzi_F-12" value="1,1" style="text;html=1;align=center;verticalAlign=middle;resizable=0;points=[];autosize=1;strokeColor=none;fillColor=none;" parent="1" vertex="1">
          <mxGeometry x="3.5" y="1910" width="40" height="30" as="geometry" />
        </mxCell>
        <mxCell id="3CzU7pItrZiahojDzi_F-17" style="edgeStyle=orthogonalEdgeStyle;rounded=0;orthogonalLoop=1;jettySize=auto;html=1;entryX=0.5;entryY=1;entryDx=0;entryDy=0;" parent="1" source="3CzU7pItrZiahojDzi_F-14" target="LN7ajbvHa4iX7Mi3LsKq-97" edge="1">
          <mxGeometry relative="1" as="geometry" />
        </mxCell>
        <mxCell id="3CzU7pItrZiahojDzi_F-19" style="edgeStyle=orthogonalEdgeStyle;rounded=0;orthogonalLoop=1;jettySize=auto;html=1;entryX=0.5;entryY=0;entryDx=0;entryDy=0;" parent="1" source="3CzU7pItrZiahojDzi_F-14" target="3CzU7pItrZiahojDzi_F-18" edge="1">
          <mxGeometry relative="1" as="geometry" />
        </mxCell>
        <mxCell id="3CzU7pItrZiahojDzi_F-14" value="Slide" style="whiteSpace=wrap;html=1;align=center;" parent="1" vertex="1">
          <mxGeometry x="-377.30999999999995" y="2531" width="100" height="40" as="geometry" />
        </mxCell>
        <mxCell id="3CzU7pItrZiahojDzi_F-16" value="1,1" style="text;html=1;align=center;verticalAlign=middle;resizable=0;points=[];autosize=1;strokeColor=none;fillColor=none;" parent="1" vertex="1">
          <mxGeometry x="-324.89" y="2498" width="40" height="30" as="geometry" />
        </mxCell>
        <mxCell id="3CzU7pItrZiahojDzi_F-18" value="Campione Biologico" style="shape=rhombus;perimeter=rhombusPerimeter;whiteSpace=wrap;html=1;align=center;" parent="1" vertex="1">
          <mxGeometry x="-291.39" y="2686" width="120" height="60" as="geometry" />
        </mxCell>
        <mxCell id="3CzU7pItrZiahojDzi_F-21" value="1,1" style="text;html=1;align=center;verticalAlign=middle;resizable=0;points=[];autosize=1;strokeColor=none;fillColor=none;" parent="1" vertex="1">
          <mxGeometry x="-324.89" y="2574" width="40" height="30" as="geometry" />
        </mxCell>
        <mxCell id="3CzU7pItrZiahojDzi_F-22" style="edgeStyle=orthogonalEdgeStyle;rounded=0;orthogonalLoop=1;jettySize=auto;html=1;entryX=0;entryY=0.5;entryDx=0;entryDy=0;" parent="1" source="3CzU7pItrZiahojDzi_F-23" target="LN7ajbvHa4iX7Mi3LsKq-57" edge="1">
          <mxGeometry relative="1" as="geometry">
            <Array as="points">
              <mxPoint x="-74.89" y="2819" />
              <mxPoint x="-74.89" y="2819" />
            </Array>
            <mxPoint x="-297.31" y="2584" as="targetPoint" />
          </mxGeometry>
        </mxCell>
        <mxCell id="3CzU7pItrZiahojDzi_F-23" value="Biospecimen Type" style="whiteSpace=wrap;html=1;align=center;" parent="1" vertex="1">
          <mxGeometry x="-174.8900000000002" y="2796.5" width="100" height="40" as="geometry" />
        </mxCell>
        <mxCell id="3CzU7pItrZiahojDzi_F-24" value="0,n" style="text;html=1;align=center;verticalAlign=middle;resizable=0;points=[];autosize=1;strokeColor=none;fillColor=none;" parent="1" vertex="1">
          <mxGeometry x="-78.39" y="2818.5" width="40" height="30" as="geometry" />
        </mxCell>
        <mxCell id="3CzU7pItrZiahojDzi_F-27" style="edgeStyle=orthogonalEdgeStyle;rounded=0;orthogonalLoop=1;jettySize=auto;html=1;entryX=0.5;entryY=1;entryDx=0;entryDy=0;" parent="1" source="3CzU7pItrZiahojDzi_F-28" edge="1">
          <mxGeometry relative="1" as="geometry">
            <Array as="points">
              <mxPoint x="225.11" y="3326" />
              <mxPoint x="57.11" y="3326" />
            </Array>
            <mxPoint x="57.61" y="3216" as="targetPoint" />
          </mxGeometry>
        </mxCell>
        <mxCell id="3CzU7pItrZiahojDzi_F-28" value="Data Categpry" style="whiteSpace=wrap;html=1;align=center;" parent="1" vertex="1">
          <mxGeometry x="175.11" y="3406" width="100" height="40" as="geometry" />
        </mxCell>
        <mxCell id="3CzU7pItrZiahojDzi_F-29" style="edgeStyle=orthogonalEdgeStyle;rounded=0;orthogonalLoop=1;jettySize=auto;html=1;" parent="1" source="3CzU7pItrZiahojDzi_F-30" edge="1">
          <mxGeometry relative="1" as="geometry">
            <mxPoint x="57.11" y="3216" as="targetPoint" />
          </mxGeometry>
        </mxCell>
        <mxCell id="3CzU7pItrZiahojDzi_F-30" value="Data Type" style="whiteSpace=wrap;html=1;align=center;" parent="1" vertex="1">
          <mxGeometry x="7.110000000000002" y="3406" width="100" height="40" as="geometry" />
        </mxCell>
        <mxCell id="3CzU7pItrZiahojDzi_F-31" style="edgeStyle=orthogonalEdgeStyle;rounded=0;orthogonalLoop=1;jettySize=auto;html=1;" parent="1" source="3CzU7pItrZiahojDzi_F-32" edge="1">
          <mxGeometry relative="1" as="geometry">
            <Array as="points">
              <mxPoint x="-124.89" y="3326" />
              <mxPoint x="57.11" y="3326" />
            </Array>
            <mxPoint x="56.61" y="3216" as="targetPoint" />
          </mxGeometry>
        </mxCell>
        <mxCell id="3CzU7pItrZiahojDzi_F-32" value="Experimental Strategy" style="whiteSpace=wrap;html=1;align=center;" parent="1" vertex="1">
          <mxGeometry x="-174.89" y="3406" width="100" height="40" as="geometry" />
        </mxCell>
        <mxCell id="3CzU7pItrZiahojDzi_F-33" value="0,n" style="text;html=1;align=center;verticalAlign=middle;resizable=0;points=[];autosize=1;strokeColor=none;fillColor=none;" parent="1" vertex="1">
          <mxGeometry x="-134.89" y="3374" width="40" height="30" as="geometry" />
        </mxCell>
        <mxCell id="3CzU7pItrZiahojDzi_F-34" value="0,n" style="text;html=1;align=center;verticalAlign=middle;resizable=0;points=[];autosize=1;strokeColor=none;fillColor=none;" parent="1" vertex="1">
          <mxGeometry x="55.11" y="3374" width="40" height="30" as="geometry" />
        </mxCell>
        <mxCell id="3CzU7pItrZiahojDzi_F-35" value="0,n" style="text;html=1;align=center;verticalAlign=middle;resizable=0;points=[];autosize=1;strokeColor=none;fillColor=none;" parent="1" vertex="1">
          <mxGeometry x="215.11" y="3374" width="40" height="30" as="geometry" />
        </mxCell>
        <mxCell id="3CzU7pItrZiahojDzi_F-36" value="1,1" style="text;html=1;align=center;verticalAlign=middle;resizable=0;points=[];autosize=1;strokeColor=none;fillColor=none;" parent="1" vertex="1">
          <mxGeometry x="55.11" y="3234" width="40" height="30" as="geometry" />
        </mxCell>
        <mxCell id="3CzU7pItrZiahojDzi_F-37" value="Gene_Type" style="shape=table;startSize=30;container=1;collapsible=1;childLayout=tableLayout;fixedRows=1;rowLines=0;fontStyle=1;align=center;resizeLast=1;html=1;" parent="1" vertex="1">
          <mxGeometry x="2220" y="2130" width="180" height="90" as="geometry" />
        </mxCell>
        <mxCell id="3CzU7pItrZiahojDzi_F-38" value="" style="shape=tableRow;horizontal=0;startSize=0;swimlaneHead=0;swimlaneBody=0;fillColor=none;collapsible=0;dropTarget=0;points=[[0,0.5],[1,0.5]];portConstraint=eastwest;top=0;left=0;right=0;bottom=1;" parent="3CzU7pItrZiahojDzi_F-37" vertex="1">
          <mxGeometry y="30" width="180" height="30" as="geometry" />
        </mxCell>
        <mxCell id="3CzU7pItrZiahojDzi_F-39" value="PK" style="shape=partialRectangle;connectable=0;fillColor=none;top=0;left=0;bottom=0;right=0;fontStyle=1;overflow=hidden;whiteSpace=wrap;html=1;" parent="3CzU7pItrZiahojDzi_F-38" vertex="1">
          <mxGeometry width="30" height="30" as="geometry">
            <mxRectangle width="30" height="30" as="alternateBounds" />
          </mxGeometry>
        </mxCell>
        <mxCell id="3CzU7pItrZiahojDzi_F-40" value="Type_Id" style="shape=partialRectangle;connectable=0;fillColor=none;top=0;left=0;bottom=0;right=0;align=left;spacingLeft=6;fontStyle=5;overflow=hidden;whiteSpace=wrap;html=1;" parent="3CzU7pItrZiahojDzi_F-38" vertex="1">
          <mxGeometry x="30" width="150" height="30" as="geometry">
            <mxRectangle width="150" height="30" as="alternateBounds" />
          </mxGeometry>
        </mxCell>
        <mxCell id="3CzU7pItrZiahojDzi_F-41" value="" style="shape=tableRow;horizontal=0;startSize=0;swimlaneHead=0;swimlaneBody=0;fillColor=none;collapsible=0;dropTarget=0;points=[[0,0.5],[1,0.5]];portConstraint=eastwest;top=0;left=0;right=0;bottom=0;" parent="3CzU7pItrZiahojDzi_F-37" vertex="1">
          <mxGeometry y="60" width="180" height="30" as="geometry" />
        </mxCell>
        <mxCell id="3CzU7pItrZiahojDzi_F-42" value="" style="shape=partialRectangle;connectable=0;fillColor=none;top=0;left=0;bottom=0;right=0;editable=1;overflow=hidden;whiteSpace=wrap;html=1;" parent="3CzU7pItrZiahojDzi_F-41" vertex="1">
          <mxGeometry width="30" height="30" as="geometry">
            <mxRectangle width="30" height="30" as="alternateBounds" />
          </mxGeometry>
        </mxCell>
        <mxCell id="3CzU7pItrZiahojDzi_F-43" value="Type" style="shape=partialRectangle;connectable=0;fillColor=none;top=0;left=0;bottom=0;right=0;align=left;spacingLeft=6;overflow=hidden;whiteSpace=wrap;html=1;" parent="3CzU7pItrZiahojDzi_F-41" vertex="1">
          <mxGeometry x="30" width="150" height="30" as="geometry">
            <mxRectangle width="150" height="30" as="alternateBounds" />
          </mxGeometry>
        </mxCell>
        <mxCell id="3CzU7pItrZiahojDzi_F-44" style="edgeStyle=orthogonalEdgeStyle;rounded=0;orthogonalLoop=1;jettySize=auto;html=1;entryX=1;entryY=0.5;entryDx=0;entryDy=0;" parent="1" source="3CzU7pItrZiahojDzi_F-38" target="LN7ajbvHa4iX7Mi3LsKq-207" edge="1">
          <mxGeometry relative="1" as="geometry" />
        </mxCell>
        <mxCell id="3CzU7pItrZiahojDzi_F-59" value="Biospecimen_Type" style="shape=table;startSize=30;container=1;collapsible=1;childLayout=tableLayout;fixedRows=1;rowLines=0;fontStyle=1;align=center;resizeLast=1;html=1;" parent="1" vertex="1">
          <mxGeometry x="960" y="1290" width="180" height="90" as="geometry" />
        </mxCell>
        <mxCell id="3CzU7pItrZiahojDzi_F-60" value="" style="shape=tableRow;horizontal=0;startSize=0;swimlaneHead=0;swimlaneBody=0;fillColor=none;collapsible=0;dropTarget=0;points=[[0,0.5],[1,0.5]];portConstraint=eastwest;top=0;left=0;right=0;bottom=1;" parent="3CzU7pItrZiahojDzi_F-59" vertex="1">
          <mxGeometry y="30" width="180" height="30" as="geometry" />
        </mxCell>
        <mxCell id="3CzU7pItrZiahojDzi_F-61" value="PK" style="shape=partialRectangle;connectable=0;fillColor=none;top=0;left=0;bottom=0;right=0;fontStyle=1;overflow=hidden;whiteSpace=wrap;html=1;" parent="3CzU7pItrZiahojDzi_F-60" vertex="1">
          <mxGeometry width="30" height="30" as="geometry">
            <mxRectangle width="30" height="30" as="alternateBounds" />
          </mxGeometry>
        </mxCell>
        <mxCell id="3CzU7pItrZiahojDzi_F-62" value="Type_Id" style="shape=partialRectangle;connectable=0;fillColor=none;top=0;left=0;bottom=0;right=0;align=left;spacingLeft=6;fontStyle=5;overflow=hidden;whiteSpace=wrap;html=1;" parent="3CzU7pItrZiahojDzi_F-60" vertex="1">
          <mxGeometry x="30" width="150" height="30" as="geometry">
            <mxRectangle width="150" height="30" as="alternateBounds" />
          </mxGeometry>
        </mxCell>
        <mxCell id="3CzU7pItrZiahojDzi_F-63" value="" style="shape=tableRow;horizontal=0;startSize=0;swimlaneHead=0;swimlaneBody=0;fillColor=none;collapsible=0;dropTarget=0;points=[[0,0.5],[1,0.5]];portConstraint=eastwest;top=0;left=0;right=0;bottom=0;" parent="3CzU7pItrZiahojDzi_F-59" vertex="1">
          <mxGeometry y="60" width="180" height="30" as="geometry" />
        </mxCell>
        <mxCell id="3CzU7pItrZiahojDzi_F-64" value="" style="shape=partialRectangle;connectable=0;fillColor=none;top=0;left=0;bottom=0;right=0;editable=1;overflow=hidden;whiteSpace=wrap;html=1;" parent="3CzU7pItrZiahojDzi_F-63" vertex="1">
          <mxGeometry width="30" height="30" as="geometry">
            <mxRectangle width="30" height="30" as="alternateBounds" />
          </mxGeometry>
        </mxCell>
        <mxCell id="3CzU7pItrZiahojDzi_F-65" value="Type" style="shape=partialRectangle;connectable=0;fillColor=none;top=0;left=0;bottom=0;right=0;align=left;spacingLeft=6;overflow=hidden;whiteSpace=wrap;html=1;" parent="3CzU7pItrZiahojDzi_F-63" vertex="1">
          <mxGeometry x="30" width="150" height="30" as="geometry">
            <mxRectangle width="150" height="30" as="alternateBounds" />
          </mxGeometry>
        </mxCell>
        <mxCell id="3CzU7pItrZiahojDzi_F-66" style="edgeStyle=orthogonalEdgeStyle;rounded=0;orthogonalLoop=1;jettySize=auto;html=1;entryX=0;entryY=0.5;entryDx=0;entryDy=0;" parent="1" source="3CzU7pItrZiahojDzi_F-60" target="3CzU7pItrZiahojDzi_F-56" edge="1">
          <mxGeometry relative="1" as="geometry" />
        </mxCell>
        <mxCell id="vzgwTtRD75kb0JKpq5gD-1" value="Slide" style="shape=table;startSize=30;container=1;collapsible=1;childLayout=tableLayout;fixedRows=1;rowLines=0;fontStyle=1;align=center;resizeLast=1;html=1;" parent="1" vertex="1">
          <mxGeometry x="1540" y="1709.5" width="180" height="150" as="geometry" />
        </mxCell>
        <mxCell id="vzgwTtRD75kb0JKpq5gD-2" value="" style="shape=tableRow;horizontal=0;startSize=0;swimlaneHead=0;swimlaneBody=0;fillColor=none;collapsible=0;dropTarget=0;points=[[0,0.5],[1,0.5]];portConstraint=eastwest;top=0;left=0;right=0;bottom=1;" parent="vzgwTtRD75kb0JKpq5gD-1" vertex="1">
          <mxGeometry y="30" width="180" height="30" as="geometry" />
        </mxCell>
        <mxCell id="vzgwTtRD75kb0JKpq5gD-3" value="PK/FK" style="shape=partialRectangle;connectable=0;fillColor=none;top=0;left=0;bottom=0;right=0;fontStyle=1;overflow=hidden;whiteSpace=wrap;html=1;" parent="vzgwTtRD75kb0JKpq5gD-2" vertex="1">
          <mxGeometry width="30" height="30" as="geometry">
            <mxRectangle width="30" height="30" as="alternateBounds" />
          </mxGeometry>
        </mxCell>
        <mxCell id="vzgwTtRD75kb0JKpq5gD-4" value="Slide_Id" style="shape=partialRectangle;connectable=0;fillColor=none;top=0;left=0;bottom=0;right=0;align=left;spacingLeft=6;fontStyle=5;overflow=hidden;whiteSpace=wrap;html=1;" parent="vzgwTtRD75kb0JKpq5gD-2" vertex="1">
          <mxGeometry x="30" width="150" height="30" as="geometry">
            <mxRectangle width="150" height="30" as="alternateBounds" />
          </mxGeometry>
        </mxCell>
        <mxCell id="vzgwTtRD75kb0JKpq5gD-5" value="" style="shape=tableRow;horizontal=0;startSize=0;swimlaneHead=0;swimlaneBody=0;fillColor=none;collapsible=0;dropTarget=0;points=[[0,0.5],[1,0.5]];portConstraint=eastwest;top=0;left=0;right=0;bottom=0;" parent="vzgwTtRD75kb0JKpq5gD-1" vertex="1">
          <mxGeometry y="60" width="180" height="30" as="geometry" />
        </mxCell>
        <mxCell id="vzgwTtRD75kb0JKpq5gD-6" value="FK" style="shape=partialRectangle;connectable=0;fillColor=none;top=0;left=0;bottom=0;right=0;editable=1;overflow=hidden;whiteSpace=wrap;html=1;" parent="vzgwTtRD75kb0JKpq5gD-5" vertex="1">
          <mxGeometry width="30" height="30" as="geometry">
            <mxRectangle width="30" height="30" as="alternateBounds" />
          </mxGeometry>
        </mxCell>
        <mxCell id="vzgwTtRD75kb0JKpq5gD-7" value="Slide_UUId" style="shape=partialRectangle;connectable=0;fillColor=none;top=0;left=0;bottom=0;right=0;align=left;spacingLeft=6;overflow=hidden;whiteSpace=wrap;html=1;" parent="vzgwTtRD75kb0JKpq5gD-5" vertex="1">
          <mxGeometry x="30" width="150" height="30" as="geometry">
            <mxRectangle width="150" height="30" as="alternateBounds" />
          </mxGeometry>
        </mxCell>
        <mxCell id="vzgwTtRD75kb0JKpq5gD-36" value="" style="shape=tableRow;horizontal=0;startSize=0;swimlaneHead=0;swimlaneBody=0;fillColor=none;collapsible=0;dropTarget=0;points=[[0,0.5],[1,0.5]];portConstraint=eastwest;top=0;left=0;right=0;bottom=0;" parent="vzgwTtRD75kb0JKpq5gD-1" vertex="1">
          <mxGeometry y="90" width="180" height="30" as="geometry" />
        </mxCell>
        <mxCell id="vzgwTtRD75kb0JKpq5gD-37" value="" style="shape=partialRectangle;connectable=0;fillColor=none;top=0;left=0;bottom=0;right=0;editable=1;overflow=hidden;" parent="vzgwTtRD75kb0JKpq5gD-36" vertex="1">
          <mxGeometry width="30" height="30" as="geometry">
            <mxRectangle width="30" height="30" as="alternateBounds" />
          </mxGeometry>
        </mxCell>
        <mxCell id="vzgwTtRD75kb0JKpq5gD-38" value="Image" style="shape=partialRectangle;connectable=0;fillColor=none;top=0;left=0;bottom=0;right=0;align=left;spacingLeft=6;overflow=hidden;" parent="vzgwTtRD75kb0JKpq5gD-36" vertex="1">
          <mxGeometry x="30" width="150" height="30" as="geometry">
            <mxRectangle width="150" height="30" as="alternateBounds" />
          </mxGeometry>
        </mxCell>
        <mxCell id="vzgwTtRD75kb0JKpq5gD-8" value="" style="shape=tableRow;horizontal=0;startSize=0;swimlaneHead=0;swimlaneBody=0;fillColor=none;collapsible=0;dropTarget=0;points=[[0,0.5],[1,0.5]];portConstraint=eastwest;top=0;left=0;right=0;bottom=0;" parent="vzgwTtRD75kb0JKpq5gD-1" vertex="1">
          <mxGeometry y="120" width="180" height="30" as="geometry" />
        </mxCell>
        <mxCell id="vzgwTtRD75kb0JKpq5gD-9" value="FK" style="shape=partialRectangle;connectable=0;fillColor=none;top=0;left=0;bottom=0;right=0;editable=1;overflow=hidden;whiteSpace=wrap;html=1;" parent="vzgwTtRD75kb0JKpq5gD-8" vertex="1">
          <mxGeometry width="30" height="30" as="geometry">
            <mxRectangle width="30" height="30" as="alternateBounds" />
          </mxGeometry>
        </mxCell>
        <mxCell id="vzgwTtRD75kb0JKpq5gD-10" value="Sample" style="shape=partialRectangle;connectable=0;fillColor=none;top=0;left=0;bottom=0;right=0;align=left;spacingLeft=6;overflow=hidden;whiteSpace=wrap;html=1;" parent="vzgwTtRD75kb0JKpq5gD-8" vertex="1">
          <mxGeometry x="30" width="150" height="30" as="geometry">
            <mxRectangle width="150" height="30" as="alternateBounds" />
          </mxGeometry>
        </mxCell>
        <mxCell id="vzgwTtRD75kb0JKpq5gD-11" style="edgeStyle=orthogonalEdgeStyle;rounded=0;orthogonalLoop=1;jettySize=auto;html=1;entryX=0;entryY=0.5;entryDx=0;entryDy=0;" parent="1" source="LN7ajbvHa4iX7Mi3LsKq-370" target="vzgwTtRD75kb0JKpq5gD-8" edge="1">
          <mxGeometry relative="1" as="geometry" />
        </mxCell>
        <mxCell id="vzgwTtRD75kb0JKpq5gD-12" style="edgeStyle=orthogonalEdgeStyle;rounded=0;orthogonalLoop=1;jettySize=auto;html=1;entryX=0;entryY=0.5;entryDx=0;entryDy=0;" parent="1" source="LN7ajbvHa4iX7Mi3LsKq-383" target="vzgwTtRD75kb0JKpq5gD-2" edge="1">
          <mxGeometry relative="1" as="geometry">
            <Array as="points">
              <mxPoint x="1560" y="1335" />
              <mxPoint x="1560" y="1500" />
              <mxPoint x="1520" y="1500" />
              <mxPoint x="1520" y="1754" />
            </Array>
          </mxGeometry>
        </mxCell>
        <mxCell id="vzgwTtRD75kb0JKpq5gD-13" style="edgeStyle=orthogonalEdgeStyle;rounded=0;orthogonalLoop=1;jettySize=auto;html=1;entryX=0;entryY=0.5;entryDx=0;entryDy=0;" parent="1" source="LN7ajbvHa4iX7Mi3LsKq-386" target="vzgwTtRD75kb0JKpq5gD-5" edge="1">
          <mxGeometry relative="1" as="geometry">
            <Array as="points">
              <mxPoint x="1180" y="1365" />
              <mxPoint x="1180" y="1530" />
              <mxPoint x="1500" y="1530" />
              <mxPoint x="1500" y="1784" />
            </Array>
          </mxGeometry>
        </mxCell>
        <mxCell id="vzgwTtRD75kb0JKpq5gD-48" value="Experimental_Strategy" style="shape=table;startSize=30;container=1;collapsible=1;childLayout=tableLayout;fixedRows=1;rowLines=0;fontStyle=1;align=center;resizeLast=1;html=1;" parent="1" vertex="1">
          <mxGeometry x="960" y="2230" width="180" height="90" as="geometry" />
        </mxCell>
        <mxCell id="vzgwTtRD75kb0JKpq5gD-49" value="" style="shape=tableRow;horizontal=0;startSize=0;swimlaneHead=0;swimlaneBody=0;fillColor=none;collapsible=0;dropTarget=0;points=[[0,0.5],[1,0.5]];portConstraint=eastwest;top=0;left=0;right=0;bottom=1;" parent="vzgwTtRD75kb0JKpq5gD-48" vertex="1">
          <mxGeometry y="30" width="180" height="30" as="geometry" />
        </mxCell>
        <mxCell id="vzgwTtRD75kb0JKpq5gD-50" value="PK" style="shape=partialRectangle;connectable=0;fillColor=none;top=0;left=0;bottom=0;right=0;fontStyle=1;overflow=hidden;whiteSpace=wrap;html=1;" parent="vzgwTtRD75kb0JKpq5gD-49" vertex="1">
          <mxGeometry width="30" height="30" as="geometry">
            <mxRectangle width="30" height="30" as="alternateBounds" />
          </mxGeometry>
        </mxCell>
        <mxCell id="vzgwTtRD75kb0JKpq5gD-51" value="Strategy_Id" style="shape=partialRectangle;connectable=0;fillColor=none;top=0;left=0;bottom=0;right=0;align=left;spacingLeft=6;fontStyle=5;overflow=hidden;whiteSpace=wrap;html=1;" parent="vzgwTtRD75kb0JKpq5gD-49" vertex="1">
          <mxGeometry x="30" width="150" height="30" as="geometry">
            <mxRectangle width="150" height="30" as="alternateBounds" />
          </mxGeometry>
        </mxCell>
        <mxCell id="vzgwTtRD75kb0JKpq5gD-52" value="" style="shape=tableRow;horizontal=0;startSize=0;swimlaneHead=0;swimlaneBody=0;fillColor=none;collapsible=0;dropTarget=0;points=[[0,0.5],[1,0.5]];portConstraint=eastwest;top=0;left=0;right=0;bottom=0;" parent="vzgwTtRD75kb0JKpq5gD-48" vertex="1">
          <mxGeometry y="60" width="180" height="30" as="geometry" />
        </mxCell>
        <mxCell id="vzgwTtRD75kb0JKpq5gD-53" value="" style="shape=partialRectangle;connectable=0;fillColor=none;top=0;left=0;bottom=0;right=0;editable=1;overflow=hidden;whiteSpace=wrap;html=1;" parent="vzgwTtRD75kb0JKpq5gD-52" vertex="1">
          <mxGeometry width="30" height="30" as="geometry">
            <mxRectangle width="30" height="30" as="alternateBounds" />
          </mxGeometry>
        </mxCell>
        <mxCell id="vzgwTtRD75kb0JKpq5gD-54" value="Strategy" style="shape=partialRectangle;connectable=0;fillColor=none;top=0;left=0;bottom=0;right=0;align=left;spacingLeft=6;overflow=hidden;whiteSpace=wrap;html=1;" parent="vzgwTtRD75kb0JKpq5gD-52" vertex="1">
          <mxGeometry x="30" width="150" height="30" as="geometry">
            <mxRectangle width="150" height="30" as="alternateBounds" />
          </mxGeometry>
        </mxCell>
        <mxCell id="vzgwTtRD75kb0JKpq5gD-55" value="Data_Category" style="shape=table;startSize=30;container=1;collapsible=1;childLayout=tableLayout;fixedRows=1;rowLines=0;fontStyle=1;align=center;resizeLast=1;html=1;" parent="1" vertex="1">
          <mxGeometry x="960" y="2020" width="180" height="90" as="geometry" />
        </mxCell>
        <mxCell id="vzgwTtRD75kb0JKpq5gD-56" value="" style="shape=tableRow;horizontal=0;startSize=0;swimlaneHead=0;swimlaneBody=0;fillColor=none;collapsible=0;dropTarget=0;points=[[0,0.5],[1,0.5]];portConstraint=eastwest;top=0;left=0;right=0;bottom=1;" parent="vzgwTtRD75kb0JKpq5gD-55" vertex="1">
          <mxGeometry y="30" width="180" height="30" as="geometry" />
        </mxCell>
        <mxCell id="vzgwTtRD75kb0JKpq5gD-57" value="PK" style="shape=partialRectangle;connectable=0;fillColor=none;top=0;left=0;bottom=0;right=0;fontStyle=1;overflow=hidden;whiteSpace=wrap;html=1;" parent="vzgwTtRD75kb0JKpq5gD-56" vertex="1">
          <mxGeometry width="30" height="30" as="geometry">
            <mxRectangle width="30" height="30" as="alternateBounds" />
          </mxGeometry>
        </mxCell>
        <mxCell id="vzgwTtRD75kb0JKpq5gD-58" value="Category_Id" style="shape=partialRectangle;connectable=0;fillColor=none;top=0;left=0;bottom=0;right=0;align=left;spacingLeft=6;fontStyle=5;overflow=hidden;whiteSpace=wrap;html=1;" parent="vzgwTtRD75kb0JKpq5gD-56" vertex="1">
          <mxGeometry x="30" width="150" height="30" as="geometry">
            <mxRectangle width="150" height="30" as="alternateBounds" />
          </mxGeometry>
        </mxCell>
        <mxCell id="vzgwTtRD75kb0JKpq5gD-59" value="" style="shape=tableRow;horizontal=0;startSize=0;swimlaneHead=0;swimlaneBody=0;fillColor=none;collapsible=0;dropTarget=0;points=[[0,0.5],[1,0.5]];portConstraint=eastwest;top=0;left=0;right=0;bottom=0;" parent="vzgwTtRD75kb0JKpq5gD-55" vertex="1">
          <mxGeometry y="60" width="180" height="30" as="geometry" />
        </mxCell>
        <mxCell id="vzgwTtRD75kb0JKpq5gD-60" value="" style="shape=partialRectangle;connectable=0;fillColor=none;top=0;left=0;bottom=0;right=0;editable=1;overflow=hidden;whiteSpace=wrap;html=1;" parent="vzgwTtRD75kb0JKpq5gD-59" vertex="1">
          <mxGeometry width="30" height="30" as="geometry">
            <mxRectangle width="30" height="30" as="alternateBounds" />
          </mxGeometry>
        </mxCell>
        <mxCell id="vzgwTtRD75kb0JKpq5gD-61" value="Category" style="shape=partialRectangle;connectable=0;fillColor=none;top=0;left=0;bottom=0;right=0;align=left;spacingLeft=6;overflow=hidden;whiteSpace=wrap;html=1;" parent="vzgwTtRD75kb0JKpq5gD-59" vertex="1">
          <mxGeometry x="30" width="150" height="30" as="geometry">
            <mxRectangle width="150" height="30" as="alternateBounds" />
          </mxGeometry>
        </mxCell>
        <mxCell id="vzgwTtRD75kb0JKpq5gD-70" style="edgeStyle=orthogonalEdgeStyle;rounded=0;orthogonalLoop=1;jettySize=auto;html=1;entryX=0;entryY=0.5;entryDx=0;entryDy=0;" parent="1" source="vzgwTtRD75kb0JKpq5gD-62" target="vzgwTtRD75kb0JKpq5gD-42" edge="1">
          <mxGeometry relative="1" as="geometry">
            <Array as="points">
              <mxPoint x="1210" y="2167" />
              <mxPoint x="1210" y="2245" />
            </Array>
          </mxGeometry>
        </mxCell>
        <mxCell id="vzgwTtRD75kb0JKpq5gD-62" value="Data_Type" style="shape=table;startSize=30;container=1;collapsible=1;childLayout=tableLayout;fixedRows=1;rowLines=0;fontStyle=1;align=center;resizeLast=1;html=1;" parent="1" vertex="1">
          <mxGeometry x="960" y="2122" width="180" height="90" as="geometry" />
        </mxCell>
        <mxCell id="vzgwTtRD75kb0JKpq5gD-63" value="" style="shape=tableRow;horizontal=0;startSize=0;swimlaneHead=0;swimlaneBody=0;fillColor=none;collapsible=0;dropTarget=0;points=[[0,0.5],[1,0.5]];portConstraint=eastwest;top=0;left=0;right=0;bottom=1;" parent="vzgwTtRD75kb0JKpq5gD-62" vertex="1">
          <mxGeometry y="30" width="180" height="30" as="geometry" />
        </mxCell>
        <mxCell id="vzgwTtRD75kb0JKpq5gD-64" value="PK" style="shape=partialRectangle;connectable=0;fillColor=none;top=0;left=0;bottom=0;right=0;fontStyle=1;overflow=hidden;whiteSpace=wrap;html=1;" parent="vzgwTtRD75kb0JKpq5gD-63" vertex="1">
          <mxGeometry width="30" height="30" as="geometry">
            <mxRectangle width="30" height="30" as="alternateBounds" />
          </mxGeometry>
        </mxCell>
        <mxCell id="vzgwTtRD75kb0JKpq5gD-65" value="Type_Id" style="shape=partialRectangle;connectable=0;fillColor=none;top=0;left=0;bottom=0;right=0;align=left;spacingLeft=6;fontStyle=5;overflow=hidden;whiteSpace=wrap;html=1;" parent="vzgwTtRD75kb0JKpq5gD-63" vertex="1">
          <mxGeometry x="30" width="150" height="30" as="geometry">
            <mxRectangle width="150" height="30" as="alternateBounds" />
          </mxGeometry>
        </mxCell>
        <mxCell id="vzgwTtRD75kb0JKpq5gD-66" value="" style="shape=tableRow;horizontal=0;startSize=0;swimlaneHead=0;swimlaneBody=0;fillColor=none;collapsible=0;dropTarget=0;points=[[0,0.5],[1,0.5]];portConstraint=eastwest;top=0;left=0;right=0;bottom=0;" parent="vzgwTtRD75kb0JKpq5gD-62" vertex="1">
          <mxGeometry y="60" width="180" height="30" as="geometry" />
        </mxCell>
        <mxCell id="vzgwTtRD75kb0JKpq5gD-67" value="" style="shape=partialRectangle;connectable=0;fillColor=none;top=0;left=0;bottom=0;right=0;editable=1;overflow=hidden;whiteSpace=wrap;html=1;" parent="vzgwTtRD75kb0JKpq5gD-66" vertex="1">
          <mxGeometry width="30" height="30" as="geometry">
            <mxRectangle width="30" height="30" as="alternateBounds" />
          </mxGeometry>
        </mxCell>
        <mxCell id="vzgwTtRD75kb0JKpq5gD-68" value="Type" style="shape=partialRectangle;connectable=0;fillColor=none;top=0;left=0;bottom=0;right=0;align=left;spacingLeft=6;overflow=hidden;whiteSpace=wrap;html=1;" parent="vzgwTtRD75kb0JKpq5gD-66" vertex="1">
          <mxGeometry x="30" width="150" height="30" as="geometry">
            <mxRectangle width="150" height="30" as="alternateBounds" />
          </mxGeometry>
        </mxCell>
        <mxCell id="vzgwTtRD75kb0JKpq5gD-69" style="edgeStyle=orthogonalEdgeStyle;rounded=0;orthogonalLoop=1;jettySize=auto;html=1;entryX=0;entryY=0.5;entryDx=0;entryDy=0;" parent="1" source="vzgwTtRD75kb0JKpq5gD-56" target="vzgwTtRD75kb0JKpq5gD-39" edge="1">
          <mxGeometry relative="1" as="geometry" />
        </mxCell>
        <mxCell id="vzgwTtRD75kb0JKpq5gD-71" style="edgeStyle=orthogonalEdgeStyle;rounded=0;orthogonalLoop=1;jettySize=auto;html=1;entryX=0;entryY=0.5;entryDx=0;entryDy=0;" parent="1" source="vzgwTtRD75kb0JKpq5gD-49" target="vzgwTtRD75kb0JKpq5gD-45" edge="1">
          <mxGeometry relative="1" as="geometry" />
        </mxCell>
      </root>
    </mxGraphModel>
  </diagram>
</mxfile>
